<?xml version="1.0" encoding="utf-8"?>
<!-- Generator: Adobe Illustrator 27.8.0, SVG Export Plug-In . SVG Version: 6.00 Build 0)  -->
<svg version="1.1" id="Layer_1" xmlns="http://www.w3.org/2000/svg" xmlns:xlink="http://www.w3.org/1999/xlink" x="0px" y="0px"
	 viewBox="0 0 512 512" style="enable-background:new 0 0 512 512;" xml:space="preserve">
<g>
	<path d="M500.9,212.3l-1.8-2.2c-6.2-7.4-11.6-13.9-13.1-22.4c-1.2-6.8-6.6-12.2-13.4-13.3c-1.6-4.2-3.2-8.5-4.7-12.8l-2.4-6.7
		c-0.1-0.3-0.2-0.6-0.3-0.8c-0.6-2.7-2.1-5.2-4.1-7.1c-1.6-1.4-3.2-3-4.9-4.7c-4.9-6-11.5-10.4-18.8-12.7c-0.5-2.9-1-5.8-1.7-8.7
		c-0.5-2.3-3.8-14.9-3.8-14.9c-1-4.1-1.6-8.4-1.7-12.6c0.9-13.8-6.9-26.6-19.6-32.1c-1.7-9.9-4.7-19.6-9-28.7
		c-1.9-4.6-3.8-9-5.2-13.5c-1.5-4.7-6.7-11.6-13.4-11.2c-5.3,0.7-10.1,3.7-13.1,8.1c-2.1,3-3.8,6.3-5,9.7c0,0-10.3,32-12.5,51.9
		c-1.1,7.5-2.7,14.9-4.9,22.1l-0.1,0.4c-0.4-0.2-0.9-0.4-1.3-0.6c-3.8-1.6-7.4-3.5-10.9-5.8c-7.9-5.7-27.3-21-29.3-22.5
		c1.3-2.2,2.2-4.6,2.7-7.1c0.2-0.9,0.2-1,1.7-2c7.5-4.5,11.8-12.9,11.1-21.6c-0.4-4.8-3.7-12.2-9.9-13.9c-1.5-0.4-3-0.9-4.5-1.5
		c-6.2-2.2-14.6-5.1-23.8-0.8c-0.2-0.1-23.7-6.3-33-9c-8-2.2-16.6-0.7-23.5,3.9c-3.2,1.9-4.7,5.8-3.5,9.3c-3.3,1.1-6.2,3-8.5,5.5
		c-5.7,6.9-11,14.2-15.8,21.7c-0.9,1.3-1.8,2.6-2.7,4c-1-1.1-3.9-4-3.9-4c-9.6-9.7-16.5-10.4-27.4-2.6c-3.1,2.2-19.9,14.4-25.3,18.1
		c-3.2,2.2-10.8,7.4-11,16.2c-8.2,6-20,17.6-23.9,25.4c-1.8,3.2-2.4,7-1.7,10.7c-3.7,6.4-7.5,11-13.6,13c-3,1-5.9,2.3-8.6,3.8
		c-1.5,0.8-24.3,10.1-28.2,11.7c0,0-11,4.6-15.6,7.2c-8.3,4.8-16.4,10-24.2,15.6c-5,3.6-8.2,9.2-8.7,15.4c0,2.7-0.1,5.4-0.2,8.1
		c-0.3,10.7-0.7,21.7,3.2,32.2c-2,1.3-3.7,3-5,5c-5,8,1.1,14.9,3.4,17.4c0,0,14.1,15.2,15.5,21c0.7,2.4,1.9,4.6,3.6,6.5
		c0.2,0.2,0.4,0.5,0.6,0.7c4,4.6,6.7,10,8.1,15.9c1,4.6,3,9,5.8,12.8c4.4,5.7,6.4,12.9,5.6,20.1l-0.1,0.4c-0.1,0.8-0.2,1.9-0.2,1.9
		c-6.9,4.7-8.6,14.1-3.9,21c0,0,0,0.1,0.1,0.1c4.1,7.1,11.3,11.8,19.4,12.8c2.3,0.3,4.6,0.5,6.9,0.8c4.7,0.4,9.5,1.1,14.1,2
		c15.2,3.5,22.3-4.6,25.2-9.8c1.8-3.2,4.6-5.7,7.9-7.2c3.8-1.8,8.1-2.7,12.3-2.6c18.4,1.8,33.9-5.1,47.3-21.1
		c2.4-1.7,5.2-2.9,8.1-3.6l2.2-0.7c5.4-1.8,38.3-8.9,49.6-10.9c0.5,0.1,7.4,2.4,7.4,2.4c4.4,1.3,8.6,2.5,12.7,4
		c1.7,0.5,3.3,1.2,4.7,2.2c6,5.8,10.7,12.7,13.9,20.4c1.5,5.2,5.7,9.1,10.9,10.5c5.5,1,11.2-1,14.9-5.2c1.4-1.4,4.3-4.2,7.7-7.7
		c0.3,10.9,1.1,12.9,1.6,14.2l0.2,0.5c1.4,5,4.5,9.4,8.7,12.5l-0.1,0.2c-3.7,8.2-1.3,17.9,5.8,23.5l0.6,0.6c1.3,1.3,2.8,2.5,4.5,3.6
		c0.6,0.4,1.4,0.9,1.5,1c4.4,6.7,11.8,10.9,19.8,11.1c4.2,0.2,8.5,0.6,12.7,0.9c5.7,0.4,11.7,0.9,17.6,1.1c2-0.1,3.9,0.8,5.1,2.4
		c5,6.2,9.9,9.3,15.2,9.3c5.2-0.4,10.1-2.5,14-5.9l0.4-0.3c1.3-1,2.6-2.1,3.7-3.3c4.8-5.2,8.1-5.9,11.8-5.4c3.1,0.3,6.3,0.3,9.4-0.1
		c1.1-0.1,2.2-0.2,3.3-0.3c8.6,0.3,15.9-6.4,16.3-15c0.5-3.5,0.9-7,1.2-10.5c0.1-3.1,1.5-6,3.9-8c4.3-3.3,7.7-7.7,9.8-12.7
		c4.7-9.5,10.2-18.7,16.3-27.4c8.2-12.1,14.1-25.5,17.6-39.7c2.6-11.9,4.2-24.1,4.8-36.3c0.3-3.8,0.6-7.7,0.9-11.5
		C512.8,232.7,508.8,221.1,500.9,212.3L500.9,212.3z"/>
	<path d="M425.2,439.6c-4.4-2.9-10-3.2-14.6-0.8c-4.4,1.9-9.4,1.2-13.1-1.9c-7.5-5-18.2-6.2-25,0.6c-5.6,5.6-4.8,12.7-2.8,19.6
		c1.8,5.9,3.3,12,4.5,18.1c1.6,8.9,5.9,17.1,12.4,23.4c7.6,7.5,19.9,7.3,27.4-0.3c0.2-0.2,0.3-0.4,0.5-0.5
		c9.7-11.3,18.5-23.7,17.4-37.9C432.2,453.2,431.7,444.1,425.2,439.6L425.2,439.6z"/>
</g>
</svg>
