<svg id="Layer_1" xmlns="http://www.w3.org/2000/svg" viewBox="0 0 1400.88 1046.72"><defs><style>.cls-1{fill:#fff;}</style></defs><g id="rmwllr"><g><path d="M779.95,639.78c-.11,.23-.3,.66-.33,.65-.42-.14-.83-.35-1.23-.53,.11-.23,.29-.66,.33-.65,.42,.14,.83,.34,1.23,.53Z"/><path d="M154.83,1044.15c-.78,.86-1.55,1.71-2.33,2.57-.27-.36-.54-.72-.81-1.07,1.11-.43,2.21-.86,3.33-1.29,0,0-.2-.21-.2-.21Z"/><path class="cls-1" d="M744.13,856.98c-1.07,1.26-1.76,2.67-2.31,2.62-1.12-.11-2.17-1.01-3.24-1.58,.6-1.02,1.07-2.71,1.85-2.87,.91-.19,2.1,.97,3.71,1.84Z"/><path class="cls-1" d="M188.96,998.38c-.76-1.5-1.16-2.31-1.57-3.11,.83-.37,1.66-1,2.51-1.02,.45,0,1.41,1.21,1.28,1.56-.28,.78-1.11,1.36-2.22,2.57Z"/></g></g><g id="YYWYxS.tif"><g>
<path d="M1004.57,0c10.34,7.9,28.81-1.68,27.14,22.27,7.98-2.67,16.17-3.11,20.55-7.42,6.98-6.84,13.27-5.14,19.76-1.97,17.05,8.35,33.93,17.06,50.56,26.21,8.32,4.58,15.84,4.62,25.32,3.33,7.37-1,16.29,5.54,23.72,10.06,6.49,3.95,11.19,11.13,17.89,14.4,8.77,4.28,18.57,6.92,28.22,8.77,9.89,1.89,20.28,1.21,30.17,3.08,9.52,1.79,15.03-1.11,19.79-9.38,7.18-12.49,32.6-13.26,40.32-.83,8.75,14.11,22.83,12.88,35.91,15.81,4.08,.92,8.8,4.43,10.76,8.08,3.52,6.54,6.37,13.95,7.25,21.26,.79,6.59-.37,13.91-2.55,20.26-3.37,9.82-9.59,18.76-12.25,28.71-2.17,8.13-3.31,15.77,5.37,24.6,8.65,8.8,11.92,23.85,15.01,36.77,2.1,8.76,3.85,15.88,12,21.1,3.26,2.09,5.92,7.92,5.77,11.94-.35,10.04,2.33,17.35,15.61,21.47-19.05,8.78-3.49,34.79-23.55,38.8,2.42,14.86,4.65,28.59,7.11,43.75-13.79-1.47-25.75,11.84-37.56-1.21-13.6,10.61-14.7,10.47-25.46-3.04-9.96-12.51-28.19-11.83-37.12,.83-2.35,3.33-7.23,4.77-10.58,7.53-2.8,2.3-5.05,5.26-7.55,7.92,2.7,2.18,5.18,4.74,8.17,6.4,1.99,1.11,4.69,1.12,7.09,1.32,16.25,1.37,28.8,7.58,33,24.89,.28,1.16,1.34,2.63,.94,3.38-4.31,8.24-7.17,18.29-13.77,23.96-6.23,5.34-16.51,5.89-24.9,8.86-2.65,.94-5.77,2.32-7.19,4.47-1.4,2.11-1.94,5.84-1.08,8.22,5.08,14.06,6.61,27.07-2.25,41.01-2.59,4.07,2.63,13.1,4.46,20.62h10.25c1.22,8.41-16.72,13-2.22,22.38-3.47,2.63-6.21,4.71-9.58,7.26,2.56,2.26,4.6,4.07,9.02,7.98-11.82-.93-20.55-2.45-29.17-1.96-4.44,.26-9.83,3.09-12.8,6.49-13.49,15.44-25.75,31.97-46.19,39.42-6.46,2.36-9.35,19.29-5.43,28.54,1.39,3.28,3.67,6.19,6.12,10.21-6.31-2.49-11.84-5.57-17.75-6.76-6.5-1.31-13.37-1.23-20.06-1.04-3.11,.09-6.76,3.5-9.15,2.63-14.07-5.11-23.61,6.64-35.61,8.83-1.14,.21-2.76,.86-3.12,1.74-6.64,16.07-16.84,12.91-28.37,5.83-1.92-1.18-5.49,.57-8.29,.56-12.56-.04-25.49,1.63-37.58-.79-20.64-4.13-35.11,12.34-53.79,13.59-.85,.06-2.03,1.62-2.31,2.68-6.03,22.71-26.03,30.16-43.55,40.58-3.8,2.26-5.9,7.38-9.16,11.67-16.82-12.02-36.48-14.54-56.96-13.29-10.01,.61-19.54,.02-26.87-8.18-1.03-1.15-2.67-2.15-4.17-2.41-16.5-2.88-33.07-5.38-49.53-8.42-17.48-3.23-34.76-7.77-52.34-10.15-13.62-1.85-27.58-1.18-41.38-1.78-5.08-.22-11.15,.8-15.05-1.57-15.67-9.53-32.89-9.89-50.29-11.93-16.14-1.89-31.83-7.62-47.73-11.61-3.51-.88-7.59-3.06-10.53-2.06-13.22,4.49-23.28-4.81-34.69-7.56-4.91-1.18-8.59-7.75-12.66-12.03-3.95-4.15-8.02-8.27-11.4-12.87-2.08-2.82-4.31-6.57-4.17-9.8,.41-9.03-.33-15.35-11.61-17.45-13.03-2.43-15-14.78-16.21-25.32-.44-3.83,5.55-8.14,7.92-12.6,2.42-4.57,4-9.59,5.94-14.42-4.89-.61-10.39-2.97-14.56-1.53-18.92,6.55-37.89,13.3-56.02,21.74-12.1,5.63-22.97,1.84-34.72,1.01-13.89-.99-28.84-7.05-42,3.93-1.63,1.36-5.48,.59-8.17,.1-29.05-5.34-47.45,5.26-56.18,32.52-7.68,23.98-15.4,28.2-40.19,22.21-6.2-1.5-12.52-2.51-18.79-3.75,2.03-10.03-9.4-20.93-20.61-19.53-4.39,.55-8.62,2.35-12.99,3.23-13.69,2.74-15.38-1.07-17.25-14.19-1.22-8.53-10.16-15.97-15.64-23.9-5.4,4.15-10.83,8.27-16.18,12.48-2.57,2.02-5.04,4.15-7.47,6.34-2.75,2.47-6.4,4.57-7.92,7.68-5.99,12.28-15.95,15.28-27.87,8.29-7.95-4.66-16.14-9.03-24.6-12.64-6.85-2.93-10.85-6.46-9.23-14.6,1.83-9.17-2.53-14.56-11.42-16.95-12.06-3.23-24.04-6.76-33.16-9.35-3.75-9.43-6.24-18.23-10.58-25.99-6.01-10.76-6.34-30.15,.14-40.4,4.72-7.47,9.77-15.04,12.68-23.27,2.8-7.91,4.05-16.9-6.09-22.18-3.89-2.03-7.34-4.89-10.25-9.6,17.76,.75,32.12-2.32,40.95-20.89,2.29,16.86,12.42,16.56,22.99,16.96,8.28,.32,28.93,21.81,28.72,28.44q-.61,19.42,17.82,15.73c1.82-.36,3.8,.12,8,.33-2.63,8.55-4.91,15.95-7.19,23.36,11.04,4.68,22.94,1.51,32.1-9.93,7.95-9.93,18.45-19.61,21.57-31.1,2.94-10.83-2.29-23.86-3.21-36.03,6.28,11.27,13.81,12.54,24.29,5.83,3.85-2.47,10.45-2.47,15.24-1.3,12.77,3.12,23.7,15.97,34.52,7.26,4.91,6.25,8.18,10.61,11.66,14.78,2.58,3.09,5.67,5.77,8.09,8.97,2.91,3.85,4.98,11.14,8.07,11.51,8.14,.98,16.75-.38,24.93-2.04,4.05-.82,7.56-4.35,12.12-7.15,4.97,12.44,11.12,10.08,18.25,2.76,2.36-2.42,5.98-4.21,9.32-4.96,6.31-1.42,11.54-2.19,11.2-11.16-.1-2.54,7.23-7.79,10.94-7.61,12.29,.62,21.29-1.38,25.53-14.87,1.06-3.37,8.09-7.21,12.06-6.89,14.07,1.14,26.79,1.04,41.08-3.98,14.16-4.98,31.29-1.37,47.12-1.83,10.51-.31,16.88-9.09,14.15-19.13-.52-1.9-2.54-3.55-2.61-5.37-.1-2.35,1.06-4.75,1.49-6.42,9.56,18.82,26.13,3.87,38.45,9.82,10.78,16.93,14.64,17.03,34.23,6.8,6.58-3.43,17.05-4.09,23.74-1.26,6.1,2.57,12.27,10.52,7.1,20.09-.9,1.68-.34,5.76,1.02,6.79,11.89,9.01,19.59,23.88,36.66,25.77,8.59,.95,11.67-3.3,12.96-10.7,1.71-9.79,4.29-19.46,5.36-29.31,.71-6.51,.62-13.61-1.31-19.76-2.15-6.88-7.34-11.4-16.05-9.23-3.57,.89-7.65-.22-12.94-.5,2.79-7.34,4.74-12.99,7.08-18.47,2.65-6.21,9.27-13.45,7.74-18.14-3.25-9.98-10.32-18.85-16.47-27.72-8.45-12.18-17.66-23.83-26.14-35.98-1.28-1.84-1.54-6.51-.27-7.66,9.75-8.8,19.59-17.6,30.21-25.3,9.75-7.07,20.18-13.4,30.93-18.82,6.35-3.21,13.81-4.59,20.94-5.84,27.69-4.86,42.56-20.39,45.48-48.4,.82-7.83-.02-16.1,2.29-23.4,1.11-3.5,8.55-8.08,11.83-7.23,9.09,2.37,17.51,7.3,26.17,11.3,2.53,1.17,4.94,2.6,7.19,3.79,19.52-13.89,25.16-31.76,18.41-54.12-.81-2.69,1.29-7.02,3.37-9.47,1.03-1.22,5.56-.79,7.65,.41,7.02,4.02,14.18,8.11,20.25,13.37,4.47,3.88,8.83,8.07,6.46,16.5-.99,3.51,6.18,12.3,11.2,13.95,14.11,4.65,28.94,8.64,43.67,9.44,12,.65,22.21-6.58,27.11-20.16,11.34,9.38,28.23,1.69,37.91,14.76,.47,.63,5.18-.87,6.91-2.46,1.58-1.46,2.85-4.58,2.47-6.64-3.21-17.52,11.53-27.47,17.61-40.97,1.14-2.53,10.09-3.57,14.47-2.2,9.97,3.12,12.62,.66,13.35-9.63,1.33-18.77,4.46-37.42,7.21-59.02Z"/>
<path d="M1241.44,876.36v3.11c-.25-.03-.71-.05-.71-.09-.04-1-.03-2.01-.03-3.02,.25,0,.5,0,.75,0Z"/></g></g></svg>