<?xml version="1.0" encoding="utf-8"?>
<!-- Generator: Adobe Illustrator 27.8.0, SVG Export Plug-In . SVG Version: 6.00 Build 0)  -->
<svg version="1.1" id="Layer_1" xmlns="http://www.w3.org/2000/svg" xmlns:xlink="http://www.w3.org/1999/xlink" x="0px" y="0px"
	 viewBox="0 0 512 512" style="enable-background:new 0 0 512 512;" xml:space="preserve">
<style type="text/css">
	.st0{fill:#FFFFFF;}
</style>
<g id="rmwllr">
	<g>
		<path d="M280.3,229.9c0,0.1-0.1,0.2-0.1,0.2c-0.2-0.1-0.3-0.1-0.4-0.2c0-0.1,0.1-0.2,0.1-0.2C280,229.8,280.2,229.8,280.3,229.9z"
			/>
		<path d="M55.7,375.2c-0.3,0.3-0.6,0.6-0.8,0.9c-0.1-0.1-0.2-0.3-0.3-0.4C54.9,375.6,55.3,375.5,55.7,375.2L55.7,375.2L55.7,375.2z
			"/>
		<path class="st0" d="M267.5,308c-0.4,0.5-0.6,1-0.8,0.9c-0.4,0-0.8-0.4-1.2-0.6c0.2-0.4,0.4-1,0.7-1
			C266.5,307.2,266.9,307.7,267.5,308L267.5,308z"/>
		<path class="st0" d="M67.9,358.8c-0.3-0.5-0.4-0.8-0.6-1.1c0.3-0.1,0.6-0.4,0.9-0.4c0.2,0,0.5,0.4,0.5,0.6
			C68.6,358.1,68.3,358.4,67.9,358.8L67.9,358.8z"/>
	</g>
</g>
<g id="YYWYxS.tif">
	<g>
		<path d="M367.1,95.3c3.8,2.9,10.5-0.6,9.9,8.1c2.9-1,5.9-1.1,7.5-2.7c2.6-2.5,4.8-1.9,7.2-0.7c6.2,3.1,12.4,6.2,18.5,9.6
			c3,1.7,5.8,1.7,9.3,1.2c2.7-0.4,6,2,8.7,3.7c2.4,1.4,4.1,4.1,6.5,5.3c3.2,1.6,6.8,2.5,10.3,3.2c3.6,0.7,7.4,0.4,11,1.1
			c3.5,0.7,5.5-0.4,7.2-3.4c2.6-4.6,11.9-4.8,14.7-0.3c3.2,5.2,8.3,4.7,13.1,5.8c1.5,0.3,3.2,1.6,3.9,3c1.3,2.4,2.3,5.1,2.6,7.8
			c0.3,2.4-0.1,5.1-0.9,7.4c-1.2,3.6-3.5,6.9-4.5,10.5c-0.8,3-1.2,5.8,2,9c3.2,3.2,4.4,8.7,5.5,13.4c0.8,3.2,1.4,5.8,4.4,7.7
			c1.2,0.8,2.2,2.9,2.1,4.4c-0.1,3.7,0.9,6.3,5.7,7.8c-7,3.2-1.3,12.7-8.6,14.2c0.9,5.4,1.7,10.4,2.6,16c-5-0.5-9.4,4.3-13.7-0.4
			c-5,3.9-5.4,3.8-9.3-1.1c-3.6-4.6-10.3-4.3-13.6,0.3c-0.9,1.2-2.6,1.7-3.9,2.8c-1,0.8-1.8,1.9-2.8,2.9c1,0.8,1.9,1.7,3,2.3
			c0.7,0.4,1.7,0.4,2.6,0.5c5.9,0.5,10.5,2.8,12.1,9.1c0.1,0.4,0.5,1,0.3,1.2c-1.6,3-2.6,6.7-5,8.8c-2.3,2-6,2.2-9.1,3.2
			c-1,0.3-2.1,0.8-2.6,1.6c-0.5,0.8-0.7,2.1-0.4,3c1.9,5.1,2.4,9.9-0.8,15c-0.9,1.5,1,4.8,1.6,7.5h3.7c0.4,3.1-6.1,4.8-0.8,8.2
			c-1.3,1-2.3,1.7-3.5,2.7c0.9,0.8,1.7,1.5,3.3,2.9c-4.3-0.3-7.5-0.9-10.7-0.7c-1.6,0.1-3.6,1.1-4.7,2.4
			c-4.9,5.6-9.4,11.7-16.9,14.4c-2.4,0.9-3.4,7.1-2,10.4c0.5,1.2,1.3,2.3,2.2,3.7c-2.3-0.9-4.3-2-6.5-2.5c-2.4-0.5-4.9-0.4-7.3-0.4
			c-1.1,0-2.5,1.3-3.3,1c-5.1-1.9-8.6,2.4-13,3.2c-0.4,0.1-1,0.3-1.1,0.6c-2.4,5.9-6.2,4.7-10.4,2.1c-0.7-0.4-2,0.2-3,0.2
			c-4.6,0-9.3,0.6-13.7-0.3c-7.5-1.5-12.8,4.5-19.7,5c-0.3,0-0.7,0.6-0.8,1c-2.2,8.3-9.5,11-15.9,14.8c-1.4,0.8-2.2,2.7-3.3,4.3
			c-6.1-4.4-13.3-5.3-20.8-4.9c-3.7,0.2-7.1,0-9.8-3c-0.4-0.4-1-0.8-1.5-0.9c-6-1.1-12.1-2-18.1-3.1c-6.4-1.2-12.7-2.8-19.1-3.7
			c-5-0.7-10.1-0.4-15.1-0.7c-1.9-0.1-4.1,0.3-5.5-0.6c-5.7-3.5-12-3.6-18.4-4.4c-5.9-0.7-11.6-2.8-17.4-4.2
			c-1.3-0.3-2.8-1.1-3.8-0.8c-4.8,1.6-8.5-1.8-12.7-2.8c-1.8-0.4-3.1-2.8-4.6-4.4c-1.4-1.5-2.9-3-4.2-4.7c-0.8-1-1.6-2.4-1.5-3.6
			c0.1-3.3-0.1-5.6-4.2-6.4c-4.8-0.9-5.5-5.4-5.9-9.3c-0.2-1.4,2-3,2.9-4.6c0.9-1.7,1.5-3.5,2.2-5.3c-1.8-0.2-3.8-1.1-5.3-0.6
			c-6.9,2.4-13.8,4.9-20.5,7.9c-4.4,2.1-8.4,0.7-12.7,0.4c-5.1-0.4-10.5-2.6-15.3,1.4c-0.6,0.5-2,0.2-3,0
			c-10.6-2-17.3,1.9-20.5,11.9c-2.8,8.8-5.6,10.3-14.7,8.1c-2.3-0.5-4.6-0.9-6.9-1.4c0.7-3.7-3.4-7.6-7.5-7.1
			c-1.6,0.2-3.2,0.9-4.7,1.2c-5,1-5.6-0.4-6.3-5.2c-0.4-3.1-3.7-5.8-5.7-8.7c-2,1.5-4,3-5.9,4.6c-0.9,0.7-1.8,1.5-2.7,2.3
			c-1,0.9-2.3,1.7-2.9,2.8c-2.2,4.5-5.8,5.6-10.2,3c-2.9-1.7-5.9-3.3-9-4.6c-2.5-1.1-4-2.4-3.4-5.3c0.7-3.4-0.9-5.3-4.2-6.2
			c-4.4-1.2-8.8-2.5-12.1-3.4c-1.4-3.4-2.3-6.7-3.9-9.5c-2.2-3.9-2.3-11,0.1-14.8c1.7-2.7,3.6-5.5,4.6-8.5c1-2.9,1.5-6.2-2.2-8.1
			c-1.4-0.7-2.7-1.8-3.7-3.5c6.5,0.3,11.7-0.8,15-7.6c0.8,6.2,4.5,6.1,8.4,6.2c3,0.1,10.6,8,10.5,10.4c-0.1,4.7,2,6.6,6.5,5.7
			c0.7-0.1,1.4,0,2.9,0.1c-1,3.1-1.8,5.8-2.6,8.5c4,1.7,8.4,0.6,11.7-3.6c2.9-3.6,6.7-7.2,7.9-11.4c1.1-4-0.8-8.7-1.2-13.2
			c2.3,4.1,5,4.6,8.9,2.1c1.4-0.9,3.8-0.9,5.6-0.5c4.7,1.1,8.7,5.8,12.6,2.7c1.8,2.3,3,3.9,4.3,5.4c0.9,1.1,2.1,2.1,3,3.3
			c1.1,1.4,1.8,4.1,2.9,4.2c3,0.4,6.1-0.1,9.1-0.7c1.5-0.3,2.8-1.6,4.4-2.6c1.8,4.5,4.1,3.7,6.7,1c0.9-0.9,2.2-1.5,3.4-1.8
			c2.3-0.5,4.2-0.8,4.1-4.1c0-0.9,2.6-2.8,4-2.8c4.5,0.2,7.8-0.5,9.3-5.4c0.4-1.2,3-2.6,4.4-2.5c5.1,0.4,9.8,0.4,15-1.5
			c5.2-1.8,11.4-0.5,17.2-0.7c3.8-0.1,6.2-3.3,5.2-7c-0.2-0.7-0.9-1.3-1-2c0-0.9,0.4-1.7,0.5-2.3c3.5,6.9,9.5,1.4,14.1,3.6
			c3.9,6.2,5.4,6.2,12.5,2.5c2.4-1.3,6.2-1.5,8.7-0.5c2.2,0.9,4.5,3.8,2.6,7.3c-0.3,0.6-0.1,2.1,0.4,2.5c4.3,3.3,7.2,8.7,13.4,9.4
			c3.1,0.3,4.3-1.2,4.7-3.9c0.6-3.6,1.6-7.1,2-10.7c0.3-2.4,0.2-5-0.5-7.2c-0.8-2.5-2.7-4.2-5.9-3.4c-1.3,0.3-2.8-0.1-4.7-0.2
			c1-2.7,1.7-4.7,2.6-6.8c1-2.3,3.4-4.9,2.8-6.6c-1.2-3.6-3.8-6.9-6-10.1c-3.1-4.5-6.5-8.7-9.6-13.1c-0.5-0.7-0.6-2.4-0.1-2.8
			c3.6-3.2,7.2-6.4,11-9.2c3.6-2.6,7.4-4.9,11.3-6.9c2.3-1.2,5-1.7,7.7-2.1c10.1-1.8,15.6-7.5,16.6-17.7c0.3-2.9,0-5.9,0.8-8.6
			c0.4-1.3,3.1-3,4.3-2.6c3.3,0.9,6.4,2.7,9.6,4.1c0.9,0.4,1.8,1,2.6,1.4c7.1-5.1,9.2-11.6,6.7-19.8c-0.3-1,0.5-2.6,1.2-3.5
			c0.4-0.4,2-0.3,2.8,0.1c2.6,1.5,5.2,3,7.4,4.9c1.6,1.4,3.2,2.9,2.4,6c-0.4,1.3,2.3,4.5,4.1,5.1c5.2,1.7,10.6,3.2,16,3.5
			c4.4,0.2,8.1-2.4,9.9-7.4c4.1,3.4,10.3,0.6,13.9,5.4c0.2,0.2,1.9-0.3,2.5-0.9c0.6-0.5,1-1.7,0.9-2.4c-1.2-6.4,4.2-10,6.4-15
			c0.4-0.9,3.7-1.3,5.3-0.8c3.6,1.1,4.6,0.2,4.9-3.5C365,110,366.1,103.2,367.1,95.3L367.1,95.3z"/>
		<path d="M453.7,415.6v1.1c-0.1,0-0.3,0-0.3,0c0-0.4,0-0.7,0-1.1C453.5,415.6,453.6,415.6,453.7,415.6L453.7,415.6z"/>
	</g>
</g>
</svg>
