<svg id="Layer_1" viewBox="0 0 128 128" xmlns="http://www.w3.org/2000/svg" data-name="Layer 1"><path d="m125.20465 53.08728-.4599-.551c-1.55359-1.859-2.89526-3.46405-3.27612-5.58777a4.08443 4.08443 0 0 0 -3.36108-3.32825c-.40814-1.05994-.79291-2.12769-1.17859-3.19543l-.60443-1.66461c-.02441-.06641-.04395-.1377-.06543-.209a3.49192 3.49192 0 0 0 -1.02533-1.76813c-.40424-.3429-.80463-.7522-1.22742-1.186a9.92914 9.92914 0 0 0 -4.70667-3.1651c-.12109-.71606-.251-1.44873-.41406-2.17944-.13086-.58514-.95306-3.71411-.95306-3.71411a15.796 15.796 0 0 1 -.42572-3.15826 8.129 8.129 0 0 0 -4.903-8.02313 27.87644 27.87644 0 0 0 -2.243-7.17133c-.4834-1.15961-.93939-2.25464-1.30847-3.37421-.38471-1.16539-1.68637-2.89351-3.35321-2.80851a4.69829 4.69829 0 0 0 -3.27124 2.03094 9.88305 9.88305 0 0 0 -1.2597 2.43439s-2.56323 7.9978-3.12964 12.9809a37.402 37.402 0 0 1 -1.21667 5.52527l-.02832.10352c-.11133-.05176-.22461-.10352-.33691-.15436a16.16124 16.16124 0 0 1 -2.71368-1.44283c-1.96863-1.42334-6.82373-5.2381-7.32465-5.62982a5.53547 5.53547 0 0 0 .6767-1.78577c.03906-.22565.04395-.25494.43359-.507a5.76668 5.76668 0 0 0 2.77124-5.39636c-.0957-1.18982-.92572-3.05566-2.4715-3.48059-.372-.10162-.74213-.23352-1.11511-.3634-1.55847-.54706-3.656-1.27972-5.94-.20123-.05171-.01466-5.93306-1.57082-8.26003-2.25266a7.21331 7.21331 0 0 0 -5.88434.97986 2.00109 2.00109 0 0 0 -.88373 2.33569 4.97514 4.97514 0 0 0 -2.118 1.37842 54.19562 54.19562 0 0 0 -3.947 5.4295c-.21973.3302-.44043.66235-.666.99744-.23828-.2804-.96674-.99158-.96674-.99158-2.39337-2.43634-4.12274-2.60144-6.85785-.64862-.76556.54706-4.9635 3.59784-6.31592 4.52686-.80463.55194-2.69415 1.85022-2.744 4.057-2.04767 1.50439-5.00354 4.39111-5.97705 6.36053a3.83757 3.83757 0 0 0 -.41309 2.6698c-.9306 1.5943-1.88269 2.75385-3.41187 3.24231a14.2675 14.2675 0 0 0 -2.16.9505c-.37592.19147-6.06787 2.51843-7.061 2.93164 0 0-2.75854 1.1449-3.89032 1.80627a69.60607 69.60607 0 0 0 -6.06006 3.89191 5.29444 5.29444 0 0 0 -2.17153 3.84884c-.00293.67017-.02441 1.34424-.0459 2.0163-.08392 2.67767-.17084 5.42956.79486 8.04175a4.15846 4.15846 0 0 0 -1.2528 1.24066c-1.25378 2.00946.27441 3.717.85052 4.3598 0 0 3.52606 3.80206 3.86591 5.242a3.93771 3.93771 0 0 0 .89545 1.61279c.05078.06158.10254.12213.14746.18268a9.26948 9.26948 0 0 1 2.02716 3.98377 8.19384 8.19384 0 0 0 1.44617 3.20221 7.05316 7.05316 0 0 1 1.40619 5.01831l-.01367.10547c-.02539.19537-.05957.46405-.05859.47968a3.78006 3.78006 0 0 0 -.955 5.28 6.51283 6.51283 0 0 0 4.84241 3.19543c.5722.07422 1.14832.13379 1.72351.1944a28.73765 28.73765 0 0 1 3.52606.5119c3.79071.87817 5.57379-1.15668 6.29834-2.451a4.33763 4.33763 0 0 1 1.98418-1.79159 6.48884 6.48884 0 0 1 3.076-.63793c4.611.45819 8.47589-1.269 11.81451-5.28693a6.02657 6.02657 0 0 1 2.01544-.89282l.55957-.18268c1.34558-.45428 9.57935-2.23022 12.40625-2.71283.11914.03027 1.86218.60858 1.86218.60858 1.10535.32727 2.15021.636 3.17651 1.00232a4.56312 4.56312 0 0 1 1.18054.5451 15.14583 15.14583 0 0 1 3.48022 5.10614 3.83455 3.83455 0 0 0 2.7146 2.61707 4.008 4.008 0 0 0 3.71753-1.30121c.35736-.33893 1.06824-1.054 1.92169-1.92444.083 2.7265.26855 3.21686.39355 3.55l.04688.12408a5.73851 5.73851 0 0 0 2.17267 3.1153l-.01465.04785a4.91787 4.91787 0 0 0 1.44617 5.86719l.13867.14557a6.28488 6.28488 0 0 0 1.11414.88794c.1416.09479.35547.23743.38574.26184a6.17522 6.17522 0 0 0 4.941 2.78607c1.05945.06152 2.117.14166 3.17456.22174 1.43445.10944 2.91675.22174 4.39026.28625a1.43972 1.43972 0 0 1 1.26947.59686c1.24207 1.54639 2.4646 2.31323 3.79462 2.31323a5.87382 5.87382 0 0 0 3.49091-1.48486l.1084-.082a6.774 6.774 0 0 0 .9267-.81372c1.18842-1.30023 2.03107-1.48 2.94019-1.35693a9.6818 9.6818 0 0 0 2.34357-.03125c.27539-.02832.55078-.05664.82318-.06836a3.9273 3.9273 0 0 0 4.069-3.7464c.11523-.87231.21387-1.7486.292-2.6239a2.69259 2.69259 0 0 1 .96771-1.99091 8.15488 8.15488 0 0 0 2.45581-3.16315 52.82165 52.82165 0 0 1 4.07294-6.845 30.81154 30.81154 0 0 0 4.38837-9.9281 54.9019 54.9019 0 0 0 1.1991-9.06647c.07227-.95734.14453-1.91467.2334-2.86615a10.80549 10.80549 0 0 0 -2.75177-8.0437z"/><path d="m106.29889 109.88538a3.65942 3.65942 0 0 0 -3.65692-.212 3.14016 3.14016 0 0 1 -3.27338-.4671c-1.86914-1.23767-4.55994-1.55377-6.24152.13886-1.39532 1.40448-1.19366 3.16577-.68744 4.90887a42.04572 42.04572 0 0 1 1.12195 4.51709 10.71815 10.71815 0 0 0 3.09448 5.8515 4.83654 4.83654 0 0 0 6.96436-.21c2.4256-2.81934 4.62756-5.917 4.36-9.47.05758-1.6596-.07814-3.92502-1.68153-5.05722z"/></svg>
