<svg width="1459" height="920" viewBox="0 0 1459 920" fill="none" xmlns="http://www.w3.org/2000/svg">
<path d="M808.6 738.21C808.49 738.44 808.3 738.87 808.27 738.86C807.85 738.72 807.44 738.51
807.04 738.33C807.15 738.1 807.33 737.67 807.37 737.68C807.79 737.82 808.2 738.02 808.6
738.21Z" fill="black"/>
<path d="M808.98 30.4399C814.32 40.2799 821.36 48.5899 823.34 57.9699C826.66 73.6799 831.77
87.6099 843.22 99.1299C844.93 100.85 844.73 104.83 844.79 107.77C845 117.77 849.25 122.29
861.48 117.81C862.53 137.28 863.17 155.37 864.56 173.41C865.87 190.46 874.33 196.82 891.43
192.6C899.68 190.56 906.24 187.75 911.7 197.35C912.59 198.91 923.46 196.98 923.48
196.52C923.78 183.54 934.8 183.24 942.65 178.23C955.02 170.33 966.62 160.75 976.97
150.31C986.48 140.71 994.59 135.49 1005.98 149.53C1022.78 122.05 1042.33 131.87 1062.86
143.17C1066.76 145.32 1074.24 143.04 1079.12 140.76C1083.81 138.57 1087.26 133.73 1094.65
126.94C1094.65 137.12 1095.91 144.19 1094.39 150.59C1091.03 164.8 1097.05 173.45 1109.21
178.53C1119.83 182.97 1129.13 184.18 1137.58 171.85C1143.62 163.03 1153.31 159.98 1166.05
166.6C1177.77 172.69 1188.41 177.03 1193.96 190.43C1195.66 194.54 1204.61 196.04 1210.5
197.96C1225.2 202.76 1226.84 207.51 1215.7 217.59C1207.97 224.58 1206.52 232.28 1212.43
239.96C1218.36 247.67 1217.03 253.71 1213.2 261.71C1210.12 268.14 1210.12 276.05 1208.81
283.32C1208.64 284.29 1208.48 286.07 1208.81 286.2C1227.12 293.33 1218.53 316.83 1233.31
326.71C1223.44 321.87 1214.59 319.21 1210.11 333.3C1209.28 335.9 1204.05 338.29 1200.62
338.65C1187.84 340.03 1183.49 347.42 1187.63 358.75C1190.12 365.55 1188.69 373.67 1190.37
380.88C1193.73 395.31 1197.97 409.54 1201.94 423.83C1203.3 428.71 1205.08 433.47 1206.38
438.36C1206.88 440.23 1205.78 443.38 1206.78 444.13C1222.82 456.14 1214.66 476.03 1222.24
490.51C1225.29 496.34 1231.26 500.59 1235.65 505.77C1240.03 510.94 1244.33 516.21 1248.23
521.74C1254.81 531.08 1262.32 536.08 1274.74 532.87C1280.35 531.42 1287.17 533.96 1293.29
535.34C1302.4 537.39 1311.37 540.03 1320.96 540.75C1327.91 544.76 1330.94 557.13 1343.92
550.27C1345.03 549.68 1350.38 554.74 1352.04 558.04C1356.78 567.48 1360.12 577.63 1364.97
587C1369.3 595.36 1368.63 601.71 1361.51 608.16C1356.82 612.41 1353.34 617.98 1349.3
622.94C1347.17 625.56 1345.43 628.72 1342.8 630.68C1327.34 642.19 1327.27 642.1 1328.62
654.09C1319.49 669.24 1312.69 680.52 1307.17 689.68C1293.24 684.17 1279.59 678.23 1265.57
673.35C1248.51 667.41 1238.68 671.83 1228.76 689.45C1226.32 686.79 1223.87 684.63 1222.06
682.03C1212.52 668.4 1194.67 667.96 1185.29 681.96C1176.7 694.78 1165.6 696.55 1151.57
693.61C1144.19 692.06 1136.11 692.81 1128.5 693.74C1122.16 694.52 1115.92 698.87 1109.83
698.49C1094.18 697.49 1085.2 703.04 1080.33 718.51C1077.44 727.7 1071.05 730.65 1061.07
722.24C1050.85 713.62 1040.46 706.72 1035.32 693.12C1031.75 683.68 1022.3 679.59 1011.64
684.45C999.95 689.78 993.87 685.7 988.85 674.14C983.77 662.46 975.66 652.13 969.17
641.03C967.22 637.69 964.09 632.99 965.12 630.3C970.33 616.76 958.52 611.78 952.38
604.87C946.72 598.5 925.33 609.74 924.82 619.53C924.03 634.44 923.98 649.51 925.3
664.36C925.75 669.36 930.55 674.76 934.69 678.52C950.57 692.93 952.74 703.64 943.5
722.34C939.55 730.34 934.96 738.81 934.1 747.4C931.96 768.96 917.33 778.39 900.8 787.9C888.63
794.9 877.61 804.08 866.78 813.14C859.11 819.55 852.85 828.26 841.18 821.9C828.81 815.15 821.98
805.72 828.35 791.3C832.01 783.03 829.73 777.82 821.62 774.97C810.04 770.91 799.03 755.93
784.42 777.41C780.24 755.81 760.39 745.02 764.6 723.09C765.15 720.22 757.47 712.66 753.69
712.73C746.08 712.86 736.26 715.01 741.97 725.36C726.97 725.36 711.61 727.61 697.27
724.74C682.32 721.75 676.22 728.87 672.8 739.86C669.02 752.01 663.38 758.35 649.82
760.92C631.56 764.38 623.12 780.56 624.55 800.85C624.76 803.88 623.61 808.47 621.49
809.8C619.36 811.15 614.34 810.45 612.14 808.71C603.98 802.23 597.07 794.04 588.55
788.14C573.09 777.44 558.65 761.08 536.66 772.24C529.73 775.76 523.88 781.42 517.33
786.24C502.56 779.13 500.01 780.3 496.01 796.42C488.61 826.3 463.46 834.51 439.07
815.37C432.85 810.49 425.06 807.62 418.82 802.75C410.91 796.58 404.19 788.91 396.3
782.7C392.26 779.52 387.01 777.1 381.97 776.15C369.06 773.71 355.99 771.61 342.9 770.73C336.61
770.31 327.21 770.71 324.22 774.59C311.93 790.54 298.63 806.63 298.89 828.68C298.9 829.68
298.79 830.68 298.86 831.67C299.6 841.94 311.85 855.71 291.15 859.6C280.39 861.62 269.35 862.6
258.4 862.96C241.05 863.52 222.55 849.73 206.57 867.48C205.46 868.71 202.94 869.06 201.05
869.12C191.43 869.44 161.99 848.53 160.04 838.79C157.07 823.95 146.79 818.77 134.05
819.37C113.88 820.32 104.12 802.95 88.6898 795.77C87.3898 795.16 87.2198 790.32 87.7898
787.73C101.91 724.35 114.95 660.68 131.01 597.79C138.49 568.51 151.87 540.73 162.58
512.27C164.57 512.07 166.56 511.87 168.54 511.67C174.72 518.03 181.63 523.83 186.95
530.84C201.29 549.77 227.96 551.13 244.06 533.52C249.93 527.11 252.58 520.97 245.45
514.21C238.27 507.41 241.34 502.21 245.63 494.83C258.47 472.75 282.03 468.34 302.36
458.77C305.14 457.46 310.56 462.91 315.04 463.79C320.74 464.92 329.1 467.21 332.2
464.43C347.09 451.05 363.47 439.14 365.72 415.57C367.67 395.15 376.3 375.42 379.11 355C380.77
342.98 376.87 330.18 375.51 318.12C382.14 319.28 390.99 320.83 399.83 322.37C400.46 321.11
401.09 319.84 401.72 318.58C395.53 312.73 389.34 306.89 381.91 299.87C388.67 297.4 395.93
296.32 401.06 292.43C405.98 288.7 410.74 282.37 411.63 276.58C412.17 273.06 405.87 265.66
401.57 264.68C367.85 256.96 376.95 227.98 395.4 209.91C396.35 210.13 397.41 210.17 398.23
210.64C405.73 214.95 406.95 229.67 419.93 224.59C431.84 219.93 443.45 200.41 442.72
187.9C442.37 181.95 442.27 175.92 441.14 170.1C438.87 158.37 439.87 147.6 451.77 142.07C464.55
136.14 467.11 148.98 472.97 155.41C474.29 156.86 475.43 158.47 477.34 160.88C475.6 162.1 473.79
162.82 472.82 164.16C470.92 166.8 469.48 169.77 467.85 172.6C471.31 173.19 475.87 175.49 478.03
174.08C490.04 166.3 503.41 159.25 512.35 148.62C517.53 142.47 516.59 129.97 515.94
120.49C515.39 112.42 511.33 104.59 508.58 95.8699C521.87 91.0099 531.98 93.7799 537.71
105.98C543.26 117.79 551.15 123.92 564.54 122.8C567.75 122.53 571.6 123.83 574.4 125.59C585.33
132.49 594.74 134.11 604.55 122.75C606.76 120.2 617.06 121.03 620.61 123.96C629.25 131.09
633.81 129.27 639.76 120.95C644.92 113.74 651.48 107.29 658.32 101.57C668.35 93.1799 674.5
83.7399 675.74 70.0999C677.01 56.1799 690.41 52.7699 704.66 61.2199C710.44 64.6499 717.8
70.8199 722.63 69.4399C737.07 65.2999 751.68 59.6499 764.14 51.4299C772.02 46.2399 777.07
39.4699 788.46 40.7999C794.14 41.4699 800.67 34.8699 808.96 30.3999L808.98 30.4399Z"
fill="black"/>
</svg>