<svg id="Layer_1" xmlns="http://www.w3.org/2000/svg" viewBox="0 0 1137.05 1122.28"><defs><style>.cls-1{fill:#fff;}</style></defs><g id="rmwllr"><g><path d="M628.26,715.34c-.11,.23-.3,.66-.33,.65-.42-.14-.83-.35-1.23-.53,.11-.23,.29-.66,.33-.65,.42,.14,.83,.34,1.23,.53Z"/><path d="M3.13,1119.71c-.78,.86-1.55,1.71-2.33,2.57-.27-.36-.54-.72-.81-1.07,1.11-.43,2.21-.86,3.33-1.29,0,0-.2-.21-.2-.21Z"/><path class="cls-1" d="M592.44,932.55c-1.07,1.26-1.76,2.67-2.31,2.62-1.12-.11-2.17-1.01-3.24-1.58,.6-1.02,1.07-2.71,1.85-2.87,.91-.19,2.1,.97,3.71,1.84Z"/><path class="cls-1" d="M37.26,1073.94c-.76-1.5-1.16-2.31-1.57-3.11,.83-.37,1.66-1,2.51-1.02,.45,0,1.41,1.21,1.28,1.56-.28,.78-1.11,1.36-2.22,2.57Z"/></g></g><g id="qdmf2q"><g>
<path d="M473.64,264.3c6.35,5.67,12.3,11.89,19.14,16.89,9.22,6.75,11.18,15.57,9.9,22.02,3.29,4.5,4.69,6.56,6.25,8.49,1.6,1.98,3.16,4.09,5.1,5.7,3.73,3.09,7.73,5.88,12.12,9.16v-18.19c7.59,7.56,14.71,12.24,15.25,23.46,.31,6.5,6.85,12.7,11.29,20.23,10.58-10.64,7.32-22.11,6.79-31.8-.55-9.96-5.59-19.68-8.37-28.55,6.38-1.1,12.4-2.14,21.39-3.69,2.95,2.63,7.96,7.64,13.55,11.87,3.4,2.57,1.43,4.59,1.58,7.36,.3,5.49,2.7,12.3,6.66,15.89,12.16,11.06,12.89,12.05,5.29,26.24-1.73,3.22-3.11,6.63-4.46,9.56-6.2,.66-7.27-13.44-16.34-1.81,2.59,1.05,5.49,2.23,8.39,3.4-.79,1.17-1.58,2.34-2.37,3.52-3.5-1.28-6.99-2.56-12.23-4.48-1.58,10.16-3.35,21.52-5.12,32.87,.36-.07,.73-.14,1.09-.2,.33,5.35,2.11,11.14,.65,15.95-2.38,7.85-4.29,17.36-15.73,17.82-1.08,.04-2.87,1.01-3.06,1.84-3.06,13.04-12.29,8.83-21.25,8.31,1.58,1.19,3.06,2.56,4.77,3.54,2.08,1.19,4.63,1.71,6.46,3.17,1.94,1.54,4.18,3.67,4.57,5.86,.26,1.45-2.11,4.18-3.93,5.08-10.81,5.34-13.49,16.02-17.24,25.88-1.8,4.73-1.3,10.61-3.82,14.76-8.63,14.2-3.23,29-2.31,43.39,.31,4.88,6.12,9.41,9.66,14.44,4.91-5.46,9.43-7.86,13.69-.38,4.75,8.34,9.82,16.52,14.23,25.04,3.87,7.47,8.66,4.5,10.68,.05,4.51-9.9,10.15-7.57,17.6-4.21,5.82,2.62,12.45,3.49,18.74,5.02,6.79,1.65,15.03,.21,18.41,8.93,.22,.58,1.06,1.41,1.49,1.34,17.29-2.71,34.11,12.69,52.03,.33,10.14-7,18.45-1.16,23.05,10.24,6.31,15.63,11.58,32.41,27.06,42.54,10.37,6.79,18.07,18.37,30.97,17.93,2.66-5.1,7.73-10.37,6.64-13.46-6.49-18.45-8.72-39.4-25.62-52.54-6.06-4.71-4.75-7.17-1.56-13.27,6.45-12.34,10.72-25.84,15.52-38.99,.46-1.25-1.36-3.71-2.64-5.15-6.2-6.98-12.19-14.22-19.01-20.55-5.88-5.46-12.32-10.7-19.37-14.41-7.64-4.02-8.9-9.44-6.07-16.25,5.6-13.47,3.37-23.83-10.38-30.55-.84-.41-1.94-1.59-1.88-2.34,.85-10.93-10.09-15.84-12.55-24.88-1-3.68-1.44-8.77,.4-11.56,1.46-2.23,6.74-2,10.34-2.77,5.49-1.16,11.8-.89,16.32-3.62,10.94-6.62,33.18-6.52,43.7,1.52,8.06,6.16,17.78,5.6,27.08-2.7,2.04,6.81,5.27,12.89,5.32,18.99,.05,6.67,4.17,10.2,8.16,11.88,8.25,3.48,7.41,8.06,3,15.7,6.53-3.38,11.58-8.01,16.62-8.01,4.64,0,9.28,4.98,13.82,7.7,2.5-5.57,5.11-10.34,6.81-15.41,4.5-13.42,2.43-19.44-9.32-27.54,1.73-.77,3.04-1.36,4.16-1.86-1.5-5.9-3.01-11.83-4.4-17.28,14.8,7.5,28.68,14.53,42.56,21.56,.3-.73,.61-1.46,.91-2.19,2.24,4.34,4.48,8.67,6.91,13.39,6.36-2.03,12.96-4.12,15.4,5.5,.27,1.05,2.74,2.16,4.21,2.19,7.94,.17,11.13,3.64,10.45,11.84-.18,2.14,3.51,5.98,6.06,6.67,5.77,1.56,12.2,.84,17.88,2.6,3.99,1.24,7.19,5.04,9.99,5.15,11.61-3.9,23.22-7.8,35.63-11.98v11.46c8.99-1.7,17.48-4.6,25.9-4.39,4.65,.12,9.56,5,13.66,8.54,5.08,4.39,9.59,9.48,14.02,14.55,1.19,1.36,1.72,3.75,1.66,5.63-.07,1.97-.75,4.27-1.96,5.79-14.04,17.61-20.43,37.62-17.95,57.44-5.41,4.2-8.55,6.92-11.97,9.21-4.12,2.77-8.47,5.22-12.75,7.76-2.63,1.56-5.53,2.76-7.96,4.58-12.83,9.65-25.84,19.1-38.08,29.46-2.84,2.4-2.83,8.11-4.26,12.25-2.24,6.48-5.18,12.78-6.77,19.41-2.62,10.95-4.7,22.05-6.42,33.19-1.21,7.85-1.43,15.86-.67,24.03,.94-5.06,2.31-10.08,2.72-15.18,1.09-13.63,6.18-25.47,14.75-35.98,6.58-8.06,12.91-16.32,19.56-24.33,5.44-6.55,16.32-8.12,21.25-3.36,6.81,6.58,2.7,20.42-6.83,23.68-3.68,1.26-7.08,3.33-10.61,5.04,.29,.92,.58,1.84,.87,2.76,3.8,1.14,7.6,2.28,10.64,3.19,3.61-3.4,6.88-6.48,11.07-10.43,4.59,20.18,16.89,27.8,37.36,27,4.71-3.19,11.79-8.04,18.94-12.79,7.14-4.74,6.75-4.61,4.83-14.69-1.32-6.95-1.53-14.16-1.66-21.27-.03-1.75,2.19-3.54,3.66-5.74,4.31,7.02,7.92,12.9,11.76,19.14,1.48-.53,4.13-1.48,6.78-2.42,.8,.66,1.59,1.32,2.39,1.99-4.39,7.15-8.79,14.29-13.55,22.05,2.63,.47,5.1,.92,10.38,1.86-12.74,10.01-20.07,21.8-27.5,33.92-7.96,12.99-8.83,26.56-12.24,40.53-11.09,.96-23.22-12.15-20.41-24.14,2.94-12.55,12.82-19.75,24.05-25.68-.82-.91-1.63-1.82-2.45-2.73-5.56,3.25-11.13,6.49-16.97,9.9,.19-2.22,.39-4.46,.58-6.72-.58,.08-1.49,0-1.57,.24-1.6,4.39-1.89,10.09-4.89,12.96-6.15,5.87-13.86,10.07-20.71,15.25-6.17,4.66-9.22,1.45-11.91-3.98-3.22-6.52-6.24-13.19-10.08-19.33-4.19-6.71-9.85-9.85-18.54-7.19-8.49,2.59-12.19,7.27-11.16,15.89,1.01,8.44,1.19,17.09,3.3,25.25,3.69,14.25,.76,20.13-12.89,26.87-13.83,6.83-27.19,14.68-40.38,22.7-3.27,1.98-5.15,6.3-7.56,9.62-3.89,5.36-8.05,10.57-11.39,16.25-2.47,4.2-3.82,9.06-5.74,13.8-16.23-2.72-26.56,4.84-35.24,28.02,5.47-2.27,9.54-3.97,14.4-5.99,1.61,2.35,3.5,5.1,5.47,7.98-13.33,5.24-18.9,11.06-15.32,18.66-16.61-6.17-21.93,9.13-32.45,15.05,.44,1.7,.98,3.77,2,7.66-5.58-.8-9.83-1.42-14.09-2.03-.09-.83-.17-1.67-.26-2.5,2.58-1.76,5.15-3.51,7.73-5.27-.99-.19-1.99-.39-2.98-.58,.93-7.66,1.88-15.33,2.8-22.99,.45-3.78,1.27-7.59,1.18-11.36-.12-4.71-2.22-9.66-1.31-14.06,1.74-8.36,1.05-15-8.69-18.81,.69-.72,1.39-1.45,2.08-2.17,8.31,3.06,16.62,6.12,25.45,9.38,1.41-3.39,2.52-6.05,3.35-8.05-5.91-5.33-10.59-11.9-16.92-14.58-5.66-2.4-13.13-.5-19.65-.5,1.43,4.64,2.33,7.58,3.7,12.04-6.31-.99-10.83-1.7-15.34-2.41-.02-.92-.04-1.84-.06-2.76,2.44-1.07,4.88-2.14,7.33-3.21-.07-1.15-.14-2.3-.21-3.45-13.87,.87-27.75,1.73-40.22,2.51-5.32-7.34-9.77-13.48-14.22-19.62-.9,.4-1.8,.79-2.7,1.19,.98-2.41,1.96-4.81,3.16-7.76-2.18,0-4.3-.58-5.9,.1-8.9,3.75-15.53,2.56-21.32-6.23-2.04-3.1-8.28-4.09-12.79-4.76-5.33-.79-10.87-.19-13.99,1.93-2.7,3.91-5.21,7.97-8.15,11.69-3.14,3.97-6.7,7.61-11.58,13.08-10.39,.92-23.37,3.13-36.27,2.76-6.31-.18-12.48-5.18-19.15-8.2-.73,2.07-1.7,4.8-2.81,7.95-5.99-1.31-11.53-2.51-18.99-4.14,2.86-3.49,5.32-6.49,7.01-8.57-2.81-4.74-5.67-9.55-8.52-14.36-.85,0-1.7,0-2.55,0-.25,3.5,.66,7.76-1.02,10.33-2.86,4.38-6.87,10.2-11.24,11.05-24.47,4.72-49.08,9.38-73.86,11.74-79.36,7.57-158.78,6.07-238.03-1.89-24.46-2.46-48.7-7.07-73-11-6.51-1.05-13.27-2.4-12.15-12.11,.17-1.52-4.48-3.59-6.84-5.36-2.07-6.26-4.2-12.75-7.26-22.01-.47-.18-3.86-1.48-8.17-3.14-4.24,11.25,2.9,18.74,8.9,23.62,8.14,6.63,3.45,16.26,8.6,22.88-2.75,1.19-5.57,3.42-8.22,3.23-2.15-.16-4.34-3.01-6.08-5.04-6.85-7.96-13.89-15.81-20.05-24.29-1.75-2.42-.73-6.85-1-10.63-15.88-9.44-23.31-26.08-13.79-32.96,3.25,3.39,6.37,7.08,9.95,10.25,3.27,2.9,7.04,5.24,10.59,7.83l2.9-3.06c-2.82-2.56-5.9-4.89-8.38-7.74-2.86-3.28-7.09-6.87-7.39-10.6-1.03-12.56-.61-25.24-.71-37.87-.08-10.12,.11-20.33-10.85-25.41,.35,3.48,.78,7.68,1.21,11.88-8.92-10.24-8.75-22.69-2.48-33.17,4.71-7.86,8.06-16.52,12.27-24.7,3.11-6.03,2.44-11.54-2.16-16.19-12.03-12.17-12.21-27.45-13.37-43.2-1-13.63-5.02-27.12-8.57-40.45-2.44-9.14-8.81-6.45-14.9-3.46-5.34,2.62-10.92,4.77-17.56,5.68,12.58-13.71-7.68-25.46-.85-35.69-6-3.44-11.33-6.5-17.13-9.83,35.07-61.18,70.14-122.35,105.45-183.93,8.73,4.41,14.8,11.56,17.92,21.56,3.41,10.92,11.96,17.08,19.38,14.1,7.77-3.13,15.37-6.69,22.96-10.24,6.97-3.25,20.32-1.56,22.77,3.05-12.69,3.39-28.94-.97-37.25,18.54,4.25-1.66,7.03-1.86,7.69-3.14,3.97-7.75,9.83-9.15,18.14-8.13,9.18,1.13,18.23-.5,22.71-10.65,.84-1.91,1.86-3.75,2.8-5.63,1.15,.42,2.29,.85,3.44,1.27,3.13,8.44,6.27,16.89,10.18,27.41,4.56-5.81,8.06-10.27,11.57-14.73,.76,.47,1.51,.93,2.27,1.4-1.65,5.54-3.3,11.09-4.95,16.63,.98,.5,1.95,1,2.93,1.49,2.54-2.8,5.09-5.59,8.2-9.01,6.9,2.24,13.45,2.82,20.02,11.08,6.07,7.63,13.84,20.02,29.62,17.84,4.98-.69,11.43,9.31,19.02,16.02-8.03,1.45-12.21,2.2-16.5,2.97,2.92,10.24,28.48,14.6,39.89,7.81,5.86,4.31,11.67,8.58,17.6,12.94,.55,3.52,1.17,7.48,1.79,11.43,1.03,.28,2.07,.56,3.1,.84,1.15-2.71,3.91-5.99,3.18-8.05-5.19-14.73-2.06-16.69,11.57-26.5,.96-.69,2.11-1.11,5.77-3-11.59-3.23-18.24,13.68-28.29,1.54,8.53-3.13,16.87-6.23,25.25-9.18,.8-.28,2.71,.24,2.8,.67,1.65,7.57,8.57,9.42,13.9,12.91,1.83,1.2,4.01,1.94,6.11,2.65,2.92,.98,6.44,1.01,8.78,2.71,9.94,7.24,19.2,10.09,27.97-1.68,.53-.71,3.12,.11,4.31,.19-.33-4.08-.66-8.01-1.11-13.63-2.02-1.27-6.04-3.59-9.78-6.3-1.14-.83-2.48-3.11-2.09-4.05,2.82-6.82,6.05-13.48,9.48-20.89,5.15,4.42,10.99,8.51,15.69,13.65,9.27,10.13,7.78,14.07-7.88,17.61,4.42,1.99,7.11,3.2,9.86,4.43-3.36,14.91-2.89,15.89,12.67,23.39-2.24-3.18-3.75-4.79-4.65-6.69-2.59-5.49-6.33-10.49,2.53-15.15,4.24-2.23,6.56-8.71,8.86-13.67,.67-1.44-1.52-4.48-2.84-6.5-1.48-2.24-3.47-4.13-5.92-6.97,3.97-1.31,6.28-2.08,10.48-3.47-8.12-2.69-14.54-4.13-20.29-6.96-3.66-1.8-8.2-5.16-9.08-8.65-3.63-14.34,.59-27.24,9.92-38.54l-.28-.24Z 10.21,2.61-1.53,8.87-2.14,9.43-1.06,5.11,9.89,9.33,20.23,14.66,32.38,1.78-3.16,3.8-6.73,6.15-10.91,.57,.27,2.95,2.41,4.66,1.96,1.86-.48,4.03-3.22,4.37-5.25,.54-3.24-.32-6.71-.57-9.73-4.7,1.27-11.68,5.51-16.53,3.78-4.32-1.54-6.27-9.7-9.41-15.19,26.49-8.04,29.27-8.06,32.34,10.12,6.18-1.37,12.98-4.96,18.29-3.41,4.49,1.31,7.26,8.56,11.9,14.64,5.82-1.03,14.6-2.59,24.18-4.29,.22,4.76,.41,8.72,.63,13.35,4.45-1.48,8.24-3.41,12.22-3.91,7.3-.91,14.96-2.32,21.98-.97,5.41,1.05,9.57,6.2,4.88,13.3,3.37-.72,6.37-1.85,9.36-1.85,2.12,0,4.24,1.53,6.36,2.38-.88,1.96-1.77,3.92-2.65,5.88-1.87,4.16-3.74,8.33-6.37,14.18,13.34-2.02,24.7-5.28,35.91-4.85,6.23,.24,12.21,6.65,19.98,11.28,4.67-1.18,11.99-3.2,19.4-4.76,1.36-.29,4.35,1.06,4.49,1.96,1.11,7.53,1.62,15.14,2.53,22.7,.57,4.68,1.54,9.3,2.79,16.66-7.17-1.99-13.95-2.08-18.22-5.4-10.25-7.97-20.56-4.64-31.33-4.09,3.81,6.42,6.98,11.77,10.49,17.69,21.34-5.15,53.28,16.74,55,40.18h-36.74c12.3,10.92,31.6,2.06,44.32,19.38-8.39,2.34-15.15,4.9-22.14,6-6.79,1.07-13.85,.31-20.72,1.04-2.81,.3-5.43,2.4-8.73,3.96-.98-10.99-19.93,1.08-20.89-11.26-5.53-2.42-10.15-5.14-15.14-6.49-10.04-2.71-20.29-4.68-30.45-6.95-.27,1.17-.54,2.34-.81,3.51,4.72,.67,9.45,1.34,14.34,2.04-6.91,6.29-12.41,12.46-19.08,16.82-2.91,1.9-10.19,1.79-12.08-.38-4.16-4.75-7.19-11.14-8.73-17.35-1.68-6.78,5.15-6.23,9.33-8.31,7.65-3.81,14.68-8.86,21.97-13.39-1.3-.64-2.6-1.29-3.9-1.93-1.07-5.48-3.89-11.31-2.86-16.36,2.48-12.16,1.74-22.75-8.89-30.46-3.4-2.47-7.97-4.44-12.07-4.57-6.54-.21-11.62-.53-10.2-12.26-4.08,4.49-6.12,7.16-8.61,9.3-1.31,1.12-3.49,1.91-5.12,1.7-.97-.13-2.28-2.45-2.37-3.86-.89-12.81-4.39-15.15-16.86-11-.96,.32-2.03,.33-3.01,.48q-6.73-12.59-16.72-10.72c3.61,2.8,6.27,4.87,9.16,7.12-.55,.8-1.24,2.32-1.6,2.24-9.35-1.88-14.86,4.12-20.63,9.74-1.36,1.32-3.23,3.33-4.65,3.17-9.97-1.15-19,2.57-28.41,4.53-8.37,1.74-21.06-10.41-18.97-17.7-1.44-.71-2.87-1.81-4.46-2.15-23.71-4.97-23.26-21.29-17.95-39.75,2.39-8.29,6.94-15.88,15.87-19.15,2.42-.89,5.15-.94,7.74-1.37,.25,2.68,.5,5.36,.74,8.04-6.98,7.64-4.38,25.03,4.24,32.85,3.45,3.13,5.6,7.71,9.62,13.47-.72,0,1.54,0,7.48,0-4.24-5.68-6.85-9.36-9.66-12.89-1.43-1.79-4.13-3.03-4.68-4.97-2.71-9.48-4.89-19.11-7.26-28.68Z"/>

<path d="M519.82,131.38c8.93,1.96,15.47,3.39,22,4.82-5.4,6.07-6.48,16.73-17.97,13.53-1.88-.52-4.58,2.81-7.14,3.66-8.65,2.89-17.34,5.69-26.15,7.98-2.17,.56-5.64-.2-7.14-1.72-1.49-1.51-1.98-4.83-1.64-7.17,1.03-6.91,2.7-13.73,4.24-21.21,3.2,1.68,8.26,4.34,13.33,7,.69-.86,1.39-1.73,2.08-2.59-3.44-5.15-6.88-10.3-10.41-15.59-2.19,.62-4.4,1.25-7.12,2.02-.92-3.63-1.73-6.82-3.03-11.9-2.2,2.8-4.83,4.82-4.49,5.91,3.24,10.26-5.12,10.55-10.78,12.06-2.2,.59-6.95-1.87-7.78-4.01-1.86-4.82-2-10.3-3.32-18.42-14.3-9.29-9.32-30.09-17.65-45.42,.81-.77,1.62-1.53,2.42-2.3,3.23,2.29,8.45,4,9.33,6.98,3.17,10.71,10.48,11.86,17.07,10.69,5.64,6.23,11.11,10.72,14.43,16.45,2.49,4.3,2.22,10.19,3.35,16.24,3.57-1.3,8.09-2.96,12.92-4.72-5.1-11.23-18.95-16.33-19.2-31.86,4.75,1.27,8.15,2.18,10.83,2.9,3.5-8.25,6.95-16.37,10.16-23.94-8.15,4.98-16.14,13.42-24.71,14.07-8.03,.61-16.68-7.03-25.05-11.04-.26-1.27-.52-2.54-.78-3.8,4.33-2.67,8.67-5.33,14.31-8.81v-8.28c4.29,.46,8.15,.87,12.54,1.34,.76-6.41-4.56-16.39,9.12-15.13,1.9,.17,3.98-7.49,6.84-10.78,5.14-5.92,25.9-10.44,32.82-7.33,5.15,2.31,8.34,5.76,5.87,12.33-2.36,6.27-3.79,12.9-4.08,20.03,1.67-3.36,3.35-6.73,6.12-12.29,1.08,3.98,2.2,5.97,2.02,7.83-.91,9.47-4.79,19.62-2.51,28.16,2.04,7.64-.25,10.57-3.47,16.21-2.62,4.58-6.4,13.75,4.6,16.78,1.21,.33,2.01,2.56,2.79,4.01,5.35,9.91-1.13,28.95-14.79,37.31Z"/>
<path d="M338.68,251.43c5.16,0,11.04-1.71,13.29,.41,3.12,2.94,3.51,8.77,5.29,13.99h9.91c-.2-4.04-.41-8.15-.61-12.26,.67-.57,1.34-1.13,2.01-1.7,4.42,6.87,8.83,13.73,14.39,22.38-.78-6.59-2.27-11.76-1.7-16.68,.42-3.64,3.52-6.96,5.43-10.43,2.42,2.3,6.15,4.18,7.03,6.96,3.91,12.34,5.19,25.87,11.04,37.1,3.74,7.18,13.75,11.13,21,16.45,2.42,1.77,5.01,3.31,7.52,4.96-2.25,2.1-4.35,4.42-6.8,6.26-3.13,2.34-6.54,4.28-9.84,6.39,.43,.92,.85,1.83,1.28,2.75,2.73-.26,5.45-.52,8.01-.76,1.84,4.85,3.49,9.19,5.46,14.37-11.14-6.76-30.39,3.37-34.35-19.58-4.88,3.14-9.34,6.66-14.32,9.1-9.13,4.46-18.27,9.39-27.97,12.12-14.17,3.99-17.28,1.48-22.82-11.88-.85-2.04-4.46-3.01-6.88-4.32-4.3-2.33-9.45-3.72-12.82-6.97-5.31-5.12-2.83-12.75,4.48-13.67,5.23-.66,10.87,.65,16.14,1.88,6.99,1.64,12.73,.41,18.82-4.92-7.93-5.56-14.4-9.08-23.77-7.33-8.45,1.58-16.8-1.33-23.31-9.17,4.58-2.64,8.59-4.94,14.55-8.37-4.05-1.16-7.21-1.15-7.82-2.4-2.13-4.32-6.02-11.75-4.53-13.22,7.69-7.58,16.76-13.8,25.58-20.18,1.66-1.2,4.33-.99,7.62-1.66-.58,4.69-1.01,8.26-1.28,10.39Z"/>
<path d="M1137.05,550.18c-4.76,.22-9.49,.43-15.5,.71,.35-.84-.38,.9-1.78,4.22-2.45-3.94-4.06-6.86-6.01-9.54-1.65-2.27-3.7-4.24-5.58-6.35-.88,2.52-2.33,4.99-2.52,7.57-.38,5.05,.57,10.26-.29,15.19-.49,2.82-3.47,5.21-5.33,7.8-1.03-.58-2.06-1.17-3.09-1.75,.26-5.89,.52-11.77,.78-17.66-.69-.31-1.39-.62-2.08-.93-1.52,4.14-3.05,8.28-5.28,14.34-2.18-4.34-3.52-7.01-4.86-9.68-.75,14.19-11.26,18.81-21.29,24.59-4.31,2.48-6.83,8.05-10.01,12.02-13.43-3.22-11.52-11.84-7.22-22.46-4.11,2.14-6.69,3.48-10.07,5.24,3.48-16.13,.22-30.15-5.43-44.14-3.71-9.18-7.71-19.05-7.76-28.63-.04-7,6.15-14.03,9.56-21.05,.92,.35,1.85,.69,2.77,1.04-.57,3.68-1.13,7.37-1.73,11.22,4.09-1.19,7.71-3.62,7.07,5.41-.58,8.24,3.96,16.84,6.08,24.71,3.84-3.4,6.65-5.88,10.81-9.55,.34,4.78,.53,7.34,.85,11.86,10.59-5.57,20.15-10.59,28.49-14.98,4.7,6.12,8.12,10.58,11.71,15.26,2.42-4.54,4.62-8.65,6.81-12.77l2.07,.28c.33,7.04,.65,14.07,.98,21.11l2.96,.5c1.33-4.45,2.67-8.89,4-13.34,.79-.04,1.59-.08,2.38-.12,.53,3.63,1.06,7.26,1.69,11.57,.44-2.98,.81-5.5,1.26-8.53,4.92,8.49,9.45,16.32,15.54,26.84Z"/>
<path d="M273.18,275.7c-2.89-6.43-6.1-12.09-7.87-18.18-.85-2.91,.39-6.92,1.79-9.91,5.58-11.94,11.6-
23.67,17.46-35.48-.74-.39-1.49-.78-2.23-1.16,6.2-1.58,12.4-3.17,18.6-4.75-.35,.85-.69,1.69-
1.04,2.54,8.19,3.04,16.81,5.29,24.42,9.42,4.53,2.46,8.26,7.44,10.68,12.15,.77,1.5-3.22,7.49-6.05,8.46-
14.57,4.97-23.68,15.98-32.09,27.66-3.82,5.32-7.3,8.2-14.3,6.52-2.83-.68-6.42,1.79-9.38,2.74Z"/>
<path d="M480.28,172.7c3.6,2.4,7.06,4.7,12.22,8.14,10.36-5.82,21.96-12.45,33.68-18.87,5.98-
3.28,14.41,.02,16.27,6.53,1.36,4.78,1.84,9.81,2.7,14.63-14.6,5.34-27.93,10.41-41.42,15.04-5.29,1.82-
10.9,3.44-16.42,3.62-3.14,.1-7.94-2.1-9.25-4.66-2.9-5.68-5.78-12.31-5.57-18.45,.41-12.14-5.33-10.28-
13.03-7.92-2.79,.86-6.71,.61-9.18-.78-2.56-1.44-6.08-5.76-5.46-7.28,1.27-3.07,4.73-5.89,7.94-
7.25,1.71-.72,4.74,1.98,7.28,2.83,2.15,.72,4.44,1.37,6.69,1.41,9.32,.17,15.27,6.02,13.54,13Z"/>
<path d="M363.75,201.93c-13.38-5.28-26.38,2-35.3-8.09,6.16-8.19,11.98-15.91,17.61-
23.39,10.05,8.65,18.25,15.71,26.45,22.76,.8-.26,1.6-.51,2.4-.77-.62-5.43-.37-11.16-2.07-16.22-2.59-
7.7,2.24-7.88,7.73-9.36,2.28,5.29,4.4,10.21,6.52,15.14l2.21-1.75c2.4,2.58,7.22,5.8,6.74,7.62-
1.59,6.01,1.97,15.06-9.16,16.69-7.47,1.09-14.64,4.37-21.87,6.89-4.46,1.55-8.66,4.19-13.21,4.99-
2.11,.37-4.79-2.49-7.21-3.89,1.64-2.1,2.86-4.99,5.01-6.12,3.47-1.83,7.55-2.5,14.15-4.5Z"/>
<path d="M576.84,377.3c18.14,6.71,37.73,6.72,52.85,19.28,2.52,2.1,7.61,1.1,13.27,1.73-5.87,9.79-
13.8,9.73-20.46,7.43-7.59-2.62-11.03-2.14-13.88,6.03-2.35,6.73-7.24,12.56-10.92,18.66-5.09-2.93-
9.27-5.34-14.24-8.2-2.03-13.81-4.33-29.38-6.62-44.93Z"/>
<path d="M443.56,279.95c-8.04-6.58-
17.39-13.63-25.93-21.54-2.88-2.67-3.74-7.52-5.52-11.38,.73-.83,1.46-1.65,2.19-
2.48,4.9,2.21,9.8,4.42,16.53,7.46-2.08-9.51-17.2-18.66-.16-27.38,3.57,8.19,9.95,7.73,18.85,3.15-
1.43,7.31-2.52,12.92-3.9,19.95,3.85-.71,6.58-1.2,9.89-1.81,1,5.05,3,10.35,2.75,15.55-.18,3.64-2.97,7.5-
5.43,10.59-2.33,2.93-5.76,4.99-9.27,7.9Z"/><path d="M473.92,264.54c-2.88-5.11-5.4-10.48-8.72-
15.29-6.45-9.35-1.68-19.06-.18-28.14,.39-2.38,10.39-3.91,16.11-4.41,3.39-.3,7.02,2.16,10.57,3.39-
1.5,7.66-3.03,15.48-4.57,23.3-.39-.22-.78-.44-1.17-.66-1.87,3.82-3.55,7.75-5.65,11.44-2,3.5-4.44,6.75-
6.68,10.12,0,0,.29,.25,.29,.25Z"/><path d="M300.88,164.31c13.83-7.36,27.66-14.72,41.1-
21.87,9.43,10.05,1.58,15.26-2.96,20.48-1.55,1.78-5.79,1.23-9.54,1.87-3.03,2.25-6.83,7.23-11.13,7.72-
5.31,.6-11.05-2.53-16.6-4.05-.29-1.39-.58-2.77-.87-4.16Z"/><path d="M428.13,169.75c3.37-.76,6.23-
1.41,9.66-2.19,.97,5.84,2.11,11.19,2.67,16.6,.57,5.42,2.36,11.88,.12,15.99-1.36,2.5-9.33,1.4-
14.81,1.96-.44-5.24-.74-8.85-1.14-13.68-3.97,1.72-7.17,3.11-10.58,4.59,1.31-6.26,2.52-12.01,3.93-
18.72,2.78,2.27,5.03,4.1,8.84,7.21,.48-4.33,.86-7.7,1.31-11.77Z"/><path d="M408.11,123.26c-3.71-
2.7-6.98-4.61-9.62-7.17-1.47-1.42-1.88-3.93-2.77-5.95,2.1-.61,5.5-2.35,6.11-
1.65,8.1,9.22,23.16,10.18,27.53,24.22,1.79,5.76,2.25,8.79-1.15,9.79-10.68-4.62-19.31-8.36-28.3-
12.26,1.46-1.24,3.89-3.3,8.21-6.98Z"/><path d="M68.61,620.72c-3.32,3.51-7.21,7.63-
10.03,10.61,2.17,10.08,4.16,19.32,6.15,28.56-11.58-14.98-15.98-31.38-12.47-49.28l2.83-
1.18c2.1,2.47,4.01,5.14,6.37,7.33,1.51,1.4,3.69,2.09,7.16,3.95Z"/><path d="M961.23,584.57c12.58-
2.66,25.16-5.32,37.87-8,1.36,13.46-8.84,16.37-37.25,11.85-.21-1.28-.41-2.57-.62-3.85Z"/><path
d="M650.76,307.74c-2.84,2.36-4.92,4.09-8.55,7.1-3.31-2.68-7.96-5.07-10.29-8.87-1.42-2.31-.32-
9.11,1.5-9.97,10.93-5.15,12.9,4.59,17.34,11.73Z"/><path
d="M354.3,133.58c1.49,2.45,2.99,4.9,4.73,7.76,4.78-.74,9.74-1.51,15.65-2.43-.88,3.68-1.28,6.66-
2.34,9.38-.99,2.56-2.3,6.4-4.16,6.85-2.23,.54-6.21-1.2-7.62-3.21-3.7-5.28-6.42-11.25-9.53-16.94,1.09-
.47,2.18-.94,3.27-1.41Z"/><path d="M1030.35,633.28c.96,16.41-8.73,19.54-19.82,19.63-4.17,.04-
8.37-3.28-12.22-7.09,16.15,10.56,21.24-8.18,32.04-12.54Z"/><path
d="M459.08,184.3c3.53,5.62,7.07,11.23,10.6,16.85-.58,1.18-1.16,2.37-1.75,3.55-5.17-1.58-12.34-1.69-
14.88-5.18-2.15-2.96,1.06-9.81,1.9-14.94,1.38-.1,2.75-.19,4.13-.29Z"/><path d="M440.07,139.97c-
2.19-6.71-4.38-13.43-6.97-21.38,9.11,.18,14.61,3.41,15.45,10.67,.44,3.78-2.7,7.97-4.22,11.98-1.42-
.42-2.83-.84-4.25-1.27Z"/><path d="M636.93,423.34c-4.38,10.4-7.34,17.42-10.29,24.44-1.25-.21-
2.49-.43-3.74-.64,.86-5.68,.84-11.73,2.95-16.9,1.11-2.71,5.97-3.88,11.08-6.9Z"/><path
d="M404.26,234c-.71,7.82-1.25,13.9-1.99,22.07-4.72-6.7-8.02-11.39-11.46-16.26,3.82-1.65,7.29-
3.15,13.45-5.81Z"/><path d="M361.3,131.79c3.17-8.49,10.63-5.75,16.16-6.21,1.86-
.16,4.14,4.64,6.23,7.17-.7,.59-1.39,1.19-2.09,1.78-6.41-.87-12.82-1.73-20.31-2.74Z"/><path
d="M665.44,427.5v15.79c-10.75-6.78-10.91-8.11,0-15.79Z"/><path class="cls-1"
d="M527.83,216.32c2.37,9.58,4.55,19.21,7.26,28.68,.55,1.94,3.25,3.18,4.68,4.97,2.81,3.52,5.43,7.21,9
.66,12.89-5.94,0-8.2,0-7.48,0-4.02-5.76-6.17-10.34-9.62-13.47-8.62-7.83-11.22-25.21-4.24-32.85,0,0-
.26-.21-.26-.21Z"/></g></g></svg>