<svg id="Layer_1" viewBox="0 0 128 128" xmlns="http://www.w3.org/2000/svg" data-name="Layer 1"><path d="m111.8999 55.90137a5.52351 5.52351 0 0 0 -3.09766-4.48145 13.19314 13.19314 0 0 1 -2.35156-1.709c-1.14795-1.04-1.14795-1.04-.68408-2.165a11.04335 11.04335 0 0 0 .78271-2.53125 5.89488 5.89488 0 0 0 -1.69336-4.87109c-.10107-.124-.23145-.28223-.33643-.4209a4.03122 4.03122 0 0 0 .62988-2.918c-.36768-2.06445-2.29541-3.4834-4.07324-4.65137l-.43555-.28516c-.26025-.16992-.54834-.35742-.80469-.5332 2.68115-2.125 2.58887-8.64844 1.19092-12.10449-1.45605-3.59766-3.96338-3.64941-4.97656-3.499-.98781.14453-1.14258.08691-1.88965-1.85352a8.62684 8.62684 0 0 0 -1.80127-3.17871 4.79916 4.79916 0 0 0 -4.35254-1.2207c-.12012.01465-.26611.0332-.38818.04395l-.00293-.00781c-1.57617-3.793-3.91016-3.22559-6.16748-2.67285-.42187.10254-.8999.21973-1.44678.335a7.95574 7.95574 0 0 0 -4.627 3.36719c-.93066 1.17969-1.26465 1.501-1.78369 1.47266a3.58944 3.58944 0 0 0 -2.8418.97168c-1.16016 1.15625-1.09082 2.79785-1.03516 4.11719a11.98379 11.98379 0 0 1 .00537 1.32715 5.7711 5.7711 0 0 1 -1.834-.89844c1.25635-1.80957 2.32764-4.873 1.62158-7.05762a3.68094 3.68094 0 0 0 -3.15275-2.57331 4.59563 4.59563 0 0 0 -4.15625 1.376 8.10314 8.10314 0 0 0 -3.79248-1.06738 5.64807 5.64807 0 0 0 .24951-3.35059 3.879 3.879 0 0 0 -2.68164-2.73047c-2.10937-.6709-5.04443-.18945-6.7666.207-2.50732-2.71388-6.3457-2.60058-8.42187-2.0205a1.99865 1.99865 0 0 0 -1.39648 1.4248 6.60621 6.60621 0 0 0 3.14551 7.50488c-.07764.17773-.16895.36816-.23779.51074-.44971.93848-1.06543 2.22363-.35937 3.50684a2.80107 2.80107 0 0 0 2.27783 1.39648c.21826.02539.48828.10645.5332.34668.02344.125-.00439.30371-.26953.44434a4.46011 4.46011 0 0 0 -2.57324 3.19629 11.58036 11.58036 0 0 1 -1.2627 2.92969 2.35817 2.35817 0 0 1 -.4751.624 1.43393 1.43393 0 0 1 -.28418-.18066 6.37557 6.37557 0 0 0 -4.1582-1.292 21.16981 21.16981 0 0 1 -3.55029-.22754c-5.897-.81641-7.72412 3.23926-8.70654 5.417a2.856 2.856 0 0 0 .03125 2.63672c.78516 1.41406 2.48291 1.64063 3.84717 1.82227.0127.001.02539.00293.03857.00488a12.07539 12.07539 0 0 0 -.43066 3.64746c-.00537.57324-.01025 1.123-.07031 1.68945a3.87769 3.87769 0 0 0 -4.23486 2.502c-1.11768 2.67676-.57666 4.33887.07373 5.2627a4.25678 4.25678 0 0 0 3.9751 1.667l.0293-.001a2.64851 2.64851 0 0 1 -.80713 1.65137 14.82891 14.82891 0 0 0 -1.70508 2.47949 9.134 9.134 0 0 1 -.84082 1.30469 2.16047 2.16047 0 0 1 -.92578-.33008c-3.31543-1.71973-5.08887.0498-5.55371.63281a5.2387 5.2387 0 0 0 .45459 6.43359c1.16895 1.374 1.58008 2.72266.02295 5.2002-1.58154 2.51758-1.32715 3.95215-.93115 5.20605.12744.40332.12744.40332.0376.63379a3.24248 3.24248 0 0 0 .6167 3.92969 4.21218 4.21218 0 0 1 1.03175 1.85937 10.26544 10.26544 0 0 0 1.44238 2.87012c-4.20361 3.61914-1.08594 8.39551.08984 10.19629a2.45564 2.45564 0 0 1 .48584 2.2959 2.9618 2.9618 0 0 0 1.65039 3.68848c.76025.35254.77881.43945.92236 1.12012a5.08635 5.08635 0 0 0 1.26074 2.64648c1.02734 1.0918 3.75879 3.99316 7.19531 1.98242.9248-.541 1.79248-.66113 3.26416.415a9.458 9.458 0 0 0 4.53174 1.51758 21.284 21.284 0 0 0 -.938 1.99512 20.27982 20.27982 0 0 1 -2.61279 4.67578 8.92292 8.92292 0 0 0 -1.78223 6.39453 12.064 12.064 0 0 1 -.25391 3.3877c-1.01465 4.25586.32324 5.94629 1.21094 6.5752a3.1467 3.1467 0 0 0 3.502.03516 8.79114 8.79114 0 0 1 1.50342.06641c1.59668.15234 4.27148.40527 5.31836-1.89062.67676-1.48437.791-1.5459 2.03564-1.13281a4.26124 4.26124 0 0 0 3.18359-.19141 2.88269 2.88269 0 0 1 2.4126.03027 13.58624 13.58624 0 0 0 4.50684.4834 10.51715 10.51715 0 0 1 1.562.042c.00342.02148.00684.0459.00977.07324a7.76951 7.76951 0 0 0 3.12158 5.62891 5.30136 5.30136 0 0 0 2.99414.94238 5.235 5.235 0 0 0 1.35889-.18066c2.55322-.68262 2.8667-3.19922 3.03467-4.55078.0293-.23535.06787-.54395.11328-.78809a10.34331 10.34331 0 0 0 2.95945 1.76563 9.119 9.119 0 0 0 7.19775-.29687 8.69449 8.69449 0 0 1 1.21631-.40137 5.10458 5.10458 0 0 0 2.47021-1.29 1.37627 1.37627 0 0 1 1.49707-.4209 6.65826 6.65826 0 0 0 4.36133-.66113l4.92188 3.2373a1.99937 1.99937 0 0 0 3.00635-1.06934l1.54443-4.8916a1.99975 1.99975 0 0 0 -.56836-2.08789l-1.38037-1.24512.31445-.47949a2.0003 2.0003 0 0 0 -.24023-2.49316l-2.99072-3.06738a4.58164 4.58164 0 0 1 2.51074-1.21191 6.5869 6.5869 0 0 0 5.478-5.23437l2.519-3.76953a2.0002 2.0002 0 0 0 -.85791-2.94238 29.35714 29.35714 0 0 1 -5.23682-2.92578 9.0162 9.0162 0 0 1 -1.06689-1.07422 9.46474 9.46474 0 0 0 -5.938-3.39355 4.76637 4.76637 0 0 1 -3.15918-2.0791l2.68364-3.57233a2.00038 2.00038 0 0 0 -.12549-2.55371l-3.292-3.58789a7.49461 7.49461 0 0 0 2.74268-3.2334 5.19646 5.19646 0 0 1 1.10254-1.60156 3.94668 3.94668 0 0 1 2.0332-.77051c1.18066-.2168 3.14844-.5791 3.7915-2.89648a7.09511 7.09511 0 0 1 1.9751-.47168 6.92793 6.92793 0 0 0 2.73-.78613c1.81689-1.15332 1.10547-3.25781.80176-4.15625-.01953-.05762-.0415-.124-.06494-.19336a6.75338 6.75338 0 0 1 2.98877 2.5918 2.00015 2.00015 0 0 0 3.228.15039c.43653-.54298 4.24513-5.42579 3.4961-9.46485z"/></svg>
