<svg id="Layer_1" enable-background="new 0 0 283.465 283.465" height="512" viewBox="0 0 283.465 283.465" width="512" xmlns="http://www.w3.org/2000/svg"><g id="Layer_1_31_" clip-rule="evenodd" fill-rule="evenodd"><path d="m95.445 276.524s7.605-1.449 15.937-3.26c8.33-1.811 15.21 1.449 25.714 1.449s-13.4-12.676 7.968-14.126c21.368-1.448 27.887-4.347 47.445-4.708 19.558-.362 32.102 2.253 37.171-1.368s19.326-19.638 15.706-20.363-26.438 7.243-21.73-3.622c4.709-10.864 17.747-19.557 17.747-21.73s9.419-8.332 2.9-17.749c-6.519-9.415-19.556-6.882-21.368-6.519-1.811.363-14.125 6.157-11.952-2.897 2.174-9.055 1.45-19.92-2.534-23.543-3.984-3.621-6.882-20.645-13.401-23.904-6.52-3.259-13.763-10.14-14.125-15.935s-10.141-23.544-14.125-25.715c-3.984-2.173-12.676-3.983-12.676-3.983s-3.253-3.353 1.998-14.038 11.589-19.557 12.314-21.912c.724-2.355 6.518-14.669-3.622-15.755-10.141-1.086-19.739-.724-22.456.362-2.715 1.086-9.778 4.346-9.778 4.346s-3.803-5.432 1.45-11.952c5.251-6.52 10.686-4.71 13.583-13.04 2.896-8.331 2.896-9.417 2.896-9.417s-5.432 1.449-13.943 1.087-12.677-2.355-15.937-.544c-3.258 1.811-7.062 8.15-8.691 10.322-1.63 2.173-3.984 11.047-6.338 15.031-2.355 3.984 0 17.203-2.717 16.117-2.716-1.087-9.235-16.117-14.306-12.315-5.07 3.804-5.975 6.881-3.44 9.054s11.409 11.59 12.314 14.669c.905 3.078-4.076 11.68-4.076 16.568 0 4.889 10.034 6.521 9.277 9.845-.499 2.187-1.78 9.608-1.575 15.881.192 5.945 1.721 10.861 6.517 9.311 3.078-.995 7.514 2.173 7.605 3.26s-.995 13.941.453 14.847c1.448.905 19.013-5.07 20.282-3.983 1.268 1.087-.363 6.882 3.803 13.942 4.165 7.063 8.876 7.064 10.505 11.591 1.631 4.527-2.353 14.306-2.353 16.478 0 2.174 4.709 6.34-2.174 6.158-6.881-.181-16.841-5.434-20.462-4.708-3.623.723-6.34 7.604-4.528 9.054 1.811 1.448 10.502 1.446 7.063 14.304-3.44 12.859-4.888 14.487-10.865 18.109-5.976 3.622-14.668 14.126-10.684 15.755 3.984 1.63 10.504-2.535 17.566 2.716 7.063 5.251 23.178 7.424 23.178 7.424s-21.166 4.238-24.041 7.605c-2.875 3.368-5.093 12.226-13.06 15.304-7.969 3.083-18.312 10.96-14.435 16.497z"/><path d="m77.53 116.237s11.226 3.802 12.857 9.235c1.63 5.433 6.7 17.022 6.7 19.739s-1.811 3.622-8.149 9.598-13.764.362-18.471-2.354c-4.708-2.716-6.699 3.803-13.943 5.251-7.244 1.449-18.11-.543-19.015-5.976s-1.992-9.236 5.433-14.849c7.425-5.614 10.141-16.48 12.495-19.92s12.133-2.715 14.85-2.535c2.714.18 7.243 1.811 7.243 1.811z"/></g></svg>
