<svg version="1.1" id="Layer_1" xmlns="http://www.w3.org/2000/svg" xmlns:xlink="http://www.w3.org/1999/xlink" x="0px" y="0px"
	 viewBox="0 0 283.5 283.5" style="enable-background:new 0 0 283.5 283.5;" xml:space="preserve">
<style type="text/css">
	.st0{fill-rule:evenodd;clip-rule:evenodd;}
</style>
<g id="Layer_1_13_">
	<path class="st0" d="M200.3,6.9c0.8,3.9,8.3,12.5,2.7,16.4c-5.6,3.9-10.8,5.6-15.2,5.6s-4.9-1.9-17.4-4.6
		c-12.5-2.7-21.4-12.1-31.6-3.5c-10.1,8.6-41.8,14-55.8,16S59.7,48.6,58.6,49.6S46.6,37,44,47.3c-2.5,10.3,0.5,13.2-1.7,14.3
		c-1.2,0.7-9.6,7-19.2,15.2c-2.5,2.2,1.3,5.9-0.2,8.9c-3.3,6.1-10.2,12.2-8.4,17.1c6.1,16.2,13.8,18.1,15.5,23.1
		c1.7,5.1,3,12.5,0,16.5c-3,4-6.7,18.2-0.7,16.5c6.1-1.7,14.5-15.5,19.2-11.1c4.7,4.4,8.1,11.1,15.9,8.1s14.2-9.1,22.3-4.1
		c8.1,5.1,23.6,7.8,22.6,11.5c-1,3.7-3.7,7.1-8.8,5.4s-11.8-6.4-18.6-6.4c-6.8,0-25,3.7-27.3,5.7c-2.4,2-15.5,5.4-11.1,8.8
		s9.6,0,13.5,12.5c3.9,12.5-4.7,4.1-1.7,13.5c3,9.4,6.4,13.3,8.8,15.7c2.4,2.4,4.7,4,5.7-4.4c1-8.4,7.4-7.4,8.9-2.2
		c1.5,5.2,5.3,8.9,5.1,14.2c-0.2,5.3,2.7,9,4,7.4c1.3-1.6,1.8-11.2,3.8-12.8c2-1.6,6.5-0.8,8.8,4c2.3,4.8,6.2,8.7,6.2,8.7
		s6.5,1.3,4.8-3.2s-2.6-10.5-3.5-13.8c-1.8-6.7-14.1-23.1-9.3-23.9c6.1-1,9.9,5.4,12.5,10.1s8.5,7.6,9.4,7.1
		c0.8-0.5,6.5-6.3,7.8-7.9s6.7-6.9-1.3-8.2c-8.1-1.3-13.6-6.6-13.6-6.6s1.9-13.5,8.4-10.3c6.4,3.2,10.3,1,13.8,6.9
		c3.5,5.9,8.2,6.7,10.4,5.8c2.2-0.8-6.5-20.5-5.7-24.9s6.9,2.5,9.8,5.4c2.9,2.9,25.1,19.9,28,23.6c2.9,3.7,6-9.7,1.8-15
		s-8.4-8.6-13.5-12.8c-5.1-4.2-16.1-12.4-16.1-12.4s-0.5-16.5-9.3-16.4c-8.8,0.2-17.9-2.7-20.9-6.2c-3-3.5-3.9-12.1-3.9-12.1
		s-6.1-5.9-11-15.9c-4.9-10-7.1-9.1-9.3-16.5c-2.2-7.4-1.3-27.5,3.9-26.7c5.2,0.8,7.4,14.3,10.7,18.5c3.2,4.2,8.7,0.1,15.6,3.9
		c6.9,3.9,12.5,9.1,15.2,7.7c4-2-1.2-9.6,0.9-12.1c4.4-5.2,9.9-4.6,4-8.8s-12.4-3.4-14.1-8.2c-1.7-4.8-3.6-11.1,1.5-8.6
		c5.7,2.8,16.1-2.4,18.2-1.1c2.3,1.5,5.7,15.4,11.5,18.6c2.1,1.2,8.6-0.2,10-5.2c2-7.3,2.6-25.7,7.5-22c8.3,6.3,13.2,15.7,24.8,9.4
		c7.4-4,6.4-6.6,10.1-13.5c3.7-6.9,7.6-5.9,7.8-13.7C223.6,16.8,219.2,10.1,200.3,6.9L200.3,6.9z"/>
	<path class="st0" d="M115.5,244.8c0,0,10.6-2.6,16.1,2.4c5.6,5.1,8.3-10.6,12-2.2c3.7,8.4,4.2,14.8,12.6,13.3
		c8.4-1.5,21.2-0.9,25.5,0.5c6.7,2.1,21.6,4.4,25.3,5.2c4.6,1,3.9,9.6,0,11s-12-2.9-16.7-2c-4.7,0.8-18.4,3.4-20.2,3.4
		s-14,0.8-16.7-0.8c-2.7-1.7-3.2-6.1-7.1-7.4c-3.9-1.3-21.4-3-23.5-4.4C120.7,262.3,108.8,256.7,115.5,244.8L115.5,244.8z"/>
	<path class="st0" d="M267.6,230.4c-4.7,2.9-9.8,8.6-10.3,15.2s-0.2,12.3,6.4,10c6.6-2.4,10.1-16.4,11.8-18.7
		C277.2,234.5,273.8,228.4,267.6,230.4L267.6,230.4z"/>
	<path class="st0" d="M238.7,179.1c-2.2-1-10-7.9-13.2-4.2c-5.9,6.8-18.2-1-19.6,1.3c-1,1.7-14,14.4-10.1,13.9s13-1.8,15.5-1.7
		c2.5,0.2,2.5,7.4,8.4,3.7c5.9-3.7,11-5.8,12.7-5.6C234.2,186.7,242.6,185.9,238.7,179.1L238.7,179.1z"/>
	<path class="st0" d="M192.3,113.6c1.8-5.6,2.6-4.7,10.6-9.1c7.9-4.4,13.2,6.3,14.7,9c1.5,2.7,12.8,13.7,6.1,15
		c-6.8,1.3-12.8-3.6-15.4-4.5c-2.5-0.8-8.6,0-11.6-1.4S192.3,113.6,192.3,113.6z"/>
	<path class="st0" d="M201.6,139.5c4.7,3.9,8.6,7.1,8.6,11.3s0.2,10.6-3.4,12.3c-3.5,1.7-10.6-3.2-9.4-7.3c1.2-4-3.7-5.7-3.5-9.6
		C194,142.3,201.6,139.5,201.6,139.5L201.6,139.5z"/>
	<path class="st0" d="M8,174.3c2.5,4.4,4.2,5.1,6.1,6.4c13.2,9.6,15.7-9.3,13.3-9.3c-3,0-9-7.7-10.5-7.7
		C15.3,163.7,5.4,167.2,8,174.3L8,174.3z"/>
</g>
</svg>
