<svg width="1262" height="1651" viewBox="0 0 1262 1651" fill="none" xmlns="http://www.w3.org/2000/svg">
<path d="M86.6799 1429.23C84.9499 1423.8 85.5099 1419.32 90.7899 1415.78C93.1599 1414.19
94.7299 1411.31 96.4299 1408.85C99.8599 1403.88 103.16 1399.22 109.91 1397.93C114.13 1397.12
116.46 1391.2 114.3 1386.42C109.78 1376.41 113.48 1369.22 120.01 1363.84C121.37 1352.18 122.61
1341.58 123.93 1330.25C126.74 1331.32 128.89 1332.13 131.63 1333.17C132.41 1325.97 133.31
1319.12 126.73 1313.93C123.81 1311.62 124.44 1308.72 125.62 1305.25C126.93 1304.97 128.47
1304.7 129.97 1304.31C135.63 1302.84 136.81 1300.64 135.21 1294.9C134.71 1293.08 134.1 1291.19
134.15 1289.35C134.27 1284.41 136.57 1282.69 141.47 1283.55C142.81 1283.79 144.2 1284.57
145.43 1284.36C146.82 1284.11 148.31 1283.24 149.21 1282.17C149.52 1281.81 148.2 1280.03
147.57 1278.93C147.46 1278.73 147.04 1278.71 146.88 1278.52C145.6 1276.99 143.27 1275.4 143.31
1273.9C143.41 1270.78 146.32 1270.65 148.92 1270.76C149.95 1270.81 151 1270.61 153.04
1270.43C152.07 1268.29 151.67 1266.5 150.63 1265.25C146.94 1260.83 145.28 1256.56 149.69
1251.51C150.84 1250.19 150.9 1247.96 151.63 1246.22C152.25 1244.74 152.79 1242.95 153.94
1242.01C159.4 1237.54 165.05 1233.32 170.64 1229.01C172.53 1227.55 174.57 1226.23 176.29
1224.59C180.56 1220.5 184.01 1218.32 189.99 1222.49C190.62 1222.93 191.51 1222.97 192.76
1223.34C195.43 1220.25 198.18 1217.06 201.18 1213.58C200.67 1209.04 197.07 1204.33 202.52
1199.58C206.76 1195.89 210.17 1192.48 215.74 1196.23C220.96 1188.46 220.87 1187.49 216.75
1181.05C215.73 1179.45 215.49 1177.06 215.64 1175.09C215.8 1172.97 216.86 1170.93 217.51
1168.85C219.38 1162.87 221.97 1157.4 221.86 1150.52C221.76 1144.13 225.69 1137.67 227.92
1131.03C230.61 1130.61 232.94 1130.25 235.36 1129.88C235.65 1129.07 236.19 1128.3 236.14
1127.58C235.93 1124.87 235.71 1122.13 235.14 1119.47C234.11 1114.65 235.59 1110.65 237.56
1106.22C239.85 1101.09 243.47 1096.44 243.33 1090.08C243.19 1083.61 248.02 1077.18 254.03
1073.51C253.01 1066.92 251.97 1060.15 250.81 1052.65C256.69 1049.42 259.16 1039.87 269.02
1040.82C271.5 1035.76 272.92 1031.09 267.81 1026.77C265.05 1024.43 266.27 1021.84 267.98
1019.53C268.59 1018.71 269.71 1018.26 270.61 1017.65C278.15 1012.54 278.38 1010.76 272.51
1003.76C272.19 1003.37 272.09 1002.79 271.72 1001.88C275.2 997.96 279.12 995.28 285.03
996.41C286.52 996.69 289.13 995.69 289.75 994.51C290.34 993.38 289.52 990.63 288.4
989.66C284.02 985.88 284.41 981.28 286.31 976.97C288.59 971.8 289.18 965.34 296.68
963.54C299.08 962.96 300.69 958.92 302.56 956.38C304.94 953.14 303.01 950.02 301.86
947.1C300.55 943.79 301.03 940.89 302.02 937.62C304.82 928.33 310.39 920.69 316.46
913.48C318.63 910.9 319.41 908.74 319.21 905.52C318.88 900.39 319.12 895.22 319.12
890.54C329.59 885.16 332.03 873.73 325.44 865.02C324.34 863.56 322.98 861.79 322.92
860.13C322.68 853.32 322.79 846.49 323.06 839.68C323.12 838.26 324.08 836.14 325.21
835.65C329.04 833.96 330.35 831.27 330.35 827.28C330.35 822.88 329.22 819.16 325.46
816.65C320.24 813.17 317.38 807.97 314.84 802.5C312.24 796.91 313.91 793.85 319.99
792.67C323.12 792.06 326.15 791.02 329.25 790.23C336.15 788.47 341.41 792.14 346.41
795.89C348.25 797.27 349.13 799.94 350.67 802.36C360.17 795.6 368.78 792.88 378.96
795.37C379.27 795.88 380.12 796.7 380.3 797.65C380.84 800.53 382.54 802.36 385.31
801.83C387.47 801.41 390.68 800.18 391.2 798.58C392.91 793.31 396.7 791.11 401.17
788.6C406.57 785.53 412.04 781.67 408.49 773.73C408.11 772.88 408.4 771.51 408.79
770.55C412.37 761.82 416.04 753.13 420.15 743.32C419.78 742.33 418.95 740.13 418.04
737.7C419.12 736.89 419.86 735.94 420.8 735.69C431.79 732.79 433.96 726.82 427.06
717.29C428.71 712.08 430.46 707.96 437.95 708.09C442.93 708.18 447.63 703.86 453.37
704.17C454.41 704.23 456.32 701.07 456.62 699.21C457.22 695.48 457.13 691.61 457.05
687.81C456.98 684.04 454.65 682.2 451.18 680.93C444.47 678.45 444.29 677.22 448.86
671.38C452.58 666.63 452.82 658.95 448.46 655.16C444.73 651.92 445.18 648.94 447.78
646.08C450.78 642.78 452.41 639.67 450.91 635.09C450.4 633.53 451.44 631.4 451.97 629.59C453.5
624.36 455.16 619.17 456.71 613.94C458.16 609.02 458.55 603.39 466.46 602.83C463.98 599.17
462.39 596.83 460.79 594.48C464.93 583.67 461.9 573.24 458.35 563.16C456.13 556.87 452.32
551.13 449.07 545.23C446.48 540.53 446.84 538.2 450.21 533.52C451.68 531.47 452.93 528.68
452.92 526.24C452.85 513.99 452.47 501.74 451.87 489.5C451.69 485.89 452.3 483 455.3
480.92C460.85 477.07 462.17 471.63 462.08 465.21C461.89 452.15 462.08 439.18 465.05
426.22C466.09 421.68 467.81 419.13 471.34 417C470.55 411.95 464.13 407.92 468.84 402.65C471.98
399.13 475.82 396.23 479.94 392.51C479.85 392.3 479.37 391.1 478.78 389.96C475.42 383.53 477.33
377.44 484.43 376.25C489.88 375.34 491.72 372.45 492.74 368.17C500.65 368.81 503.28 370.59
505.23 377.64C506.29 381.45 507.89 383.49 512.02 382.66C513.9 377.2 515.78 371.76 517.93
365.54C520.62 366.22 523.12 366.85 525.71 367.5C528.92 364.94 532.24 362.28 536.24
359.09C533.9 357.72 532.08 356.77 530.37 355.63C525.62 352.48 525.64 348.42 530.48
345.44C532.49 344.21 534.73 343.36 537.52 342.03C531.13 334.91 533.51 328.91 538.7
323.06C539.87 321.74 540.32 319.76 541.02 318.05C542.14 315.3 543.23 312.53 544.26
309.74C545.98 305.1 548.86 302.38 554.63 304.02C555.4 299.06 558.17 296.21 562.3 294.11C570.29
290.05 578.1 285.63 585.88 281.16C589.77 278.93 593.45 278.45 597.45  280.77C599.07 281.71
600.88 282.57 602.7 282.86C606.9 283.54 609.49 281.45 609.98 277.19C610.16 275.59 610.08 273.9
609.8 272.31C608.66 265.77 606.08 258.78 617.95 256.81C611.78 251.06 602.19 249.8 605.41
240.51C602.96 238.55 600.51 237.16 598.86 235.12C596.31 231.99 598.2 227.86 602.15
228.39C614.24 230.03 624.95 224.28 636.34 222.91C646.65 221.67 655.65 217.11 665.45
214.78C670.45 213.59 674.85 213.33 679.69 215.52C685.42 218.12 688.47 216.17 689.09
209.89C689.82 202.55 692.34 196.33 698.19 191.5C701.76 188.56 704.7 184.86 708.29
181.95C710.95 179.79 714.17 178.29 717.2 176.6C718.37 175.94 720 175.87 720.91 174.99C724.61
171.41 729.03 169.81 734.02 168.95C737.7 168.32 740.52 166.57 740.18 161.79C740.05 159.99
741.45 157.68 742.82 156.24C745.8 153.11 749.21 150.4 752.97 147.04C747.99 142.12 749.05 136.15
749.76 129.9C750.5 123.43 750.03 116.82 750.05 110.28C750.06 106.42 750.13 103.14 754.53
100.79C758.96 98.43 758.65 93.17 754.09 90.37C751.03 88.48 750.15 86.32 750.01 83.1C749.87
79.85 749.44 76.58 748.88 73.37C748.28 69.92 748.86 67.3 751.52 64.55C755.58 60.35 754.94 55.34
749.77 53.28C742.53 50.4 741.9 43.74 738.52 38.17C742.74 35.36 746.55 36.18 749.85 37.9C755.96
41.07 761.89 44.22 765.15 51.34C766.38 54.04 771.89 54.81 775.48 56.37C775.86 56.53 776.51 55.92
777.02 55.95C787.81 56.7 798.64 57.18 809.35 58.53C811.34 58.78 812.9 62.51 814.47 64.41C816.04
57.6 821.13 54.29 828.64 56.76C831.77 57.79 833.88 57.67 836.89 56.68C843.14 54.64 847.51 56.55
852.78 62.61C856.46 59.61 860.4 57.59 865.7 57.68C871.09 57.78 874.08 60.66 877.05 64.06C885.37
58.63 894.19 56.86 904.39 57.31C905.36 56.02 906.79 54.14 908.27 52.18C909.13 52.34 910.27 52.21
910.62 52.67C912.71 55.42 914.86 58.17 916.52 61.18C920.24 67.93 926.42 70.76 933.61
68.26C935.19 67.71 936.48 66.01 937.62 64.62C941 60.48 946.08 59.92 950.23 63.38C956.5 68.62
959.44 68.29 965.24 62.68C966.97 61.01 969.95 59.61 972.24 59.76C980.49 60.31 986.05 56.08
991.53 50.81C996.91 45.63 1000.5 40.11 998.98 32.21C998.52 29.84 998.89 27.31 998.94
24.86C999.02 21.11 998.25 17.14 1002.07 14.41C1002.75 13.92 1003.06 12.48 1003.02
11.49C1002.82 6.74 1005.61 6.04 1009.39 6.56C1010.71 6.74 1012.03 7.02 1013.63 7.31C1015.42
4.85 1017.13 2.49 1018.76 0.239998C1029.15 2.54 1032.72 7.22 1033.58 17.8C1037.23 22.45 1040.11
25.91 1042.75 29.55C1047.84 36.57 1052.59 43.86 1057.92 50.69C1059.66 52.92 1062.84 53.97
1065.25 55.72C1069.07 58.51 1072.8 61.43 1077.83 65.25C1085.79 63.88 1095.67 63.19 1105.63
65.56C1107.58 66.02 1110.24 64.5 1112.27 63.36C1116.54 60.96 1120.93 59.24 1125.69
58.74C1127.25 62.74 1124.22 63.41 1122.59 65C1118.91 68.58 1119.02 69.54 1122.4 73.68C1123.51
75.04 1124.65 76.81 1124.77 78.46C1125.02 81.83 1121.5 84.03 1119.48 81.71C1115.32 76.93
1109.12 77.5 1104.24 74.72C1100.43 72.55 1095.84 72.79 1091.47 75.82C1092.24 80.58 1090.79
84.14 1086.64 87.47C1084.17 89.46 1083.27 94.14 1082.83 97.76C1082.22 102.87 1082.61 108.1
1082.71 113.28C1082.94 124.64 1079.77 134.11 1069.24 140.22C1061.29 144.83 1054.42 151.41
1044.79 152.84C1043.64 153.01 1042.54 154.27 1041.64 155.23C1040.34 156.61 1039.3 158.24
1038.03 159.67C1033.48 164.8 1029.18 170.55 1020.91 166.62C1016.81 174.56 1022.66 178.86
1026.23 183.48C1030.47 188.96 1035.5 193.82 1041.14 200C1046.23 197.96 1052.83 195.68 1059.1
192.72C1067.45 188.78 1076.26 190.8 1084.85 190.19C1086.3 190.09 1087.91 192.18 1089.77
193.49C1091.96 192.54 1094.35 191.5 1097.08 190.31C1098.73 192.71 1100.19 194.83 1101.95
197.4C1102.99 196.22 1103.98 195.56 1104.26 194.68C1105.62 190.39 1108.43 190.57 1112.05
191.49C1118.28 193.07 1122.62 195.84 1124.51 202.72C1126.13 208.65 1129.59 214.07 1132.14
219.75C1133.45 222.68 1134.56 225.69 1136.05 229.38C1142.21 229.94 1147.18 233.05 1147.6
240.88C1149.62 240.45 1150.63 240.29 1151.61 240.01C1156.7 238.52 1158.44 238.88 1159.67
243.44C1160.82 247.71 1162.97 249.75 1167.13 250.95C1169.52 251.64 1171.46 254.04 1173.47
255.82C1176.4 258.41 1179.34 260.68 1183.67 259.74C1184.93 259.47 1187.03 259.31 1187.57
260.01C1192.11 265.91 1201.37 267.47 1202.9 276.41C1200.82 278.22 1198.85 279.94 1196.92
281.62C1205.81 293.93 1201.77 297.46 1192.64 301.47C1193.19 303.1 1193.55 304.9 1194.38
306.44C1197.91 312.97 1195.66 316.94 1188.07 317.44C1187.29 317.49 1186.53 317.81 1185.24
318.13V337.13C1190.25 335.91 1193.71 336.78 1195.44 341.63C1196.44 344.45 1196.34 346.56
1194.94 349.28C1191.7 355.55 1192.92 357.96 1199.69 358.31C1205.02 358.58 1208.28 360.16
1209.76 365.72C1210.78 369.56 1212.79 373.33 1215.17 376.53C1216.8 378.72 1219.83 379.87
1222.74 381.82C1221.78 384.5 1220.73 387.44 1219.68 390.39C1222.59 392.47 1224.13 390.37
1225.41 388.91C1229.21 384.6 1234.14 384.86 1239.05 385.35C1243.22 385.76 1244.54 387.85
1244.27 391.99C1244.09 394.75 1244.24 397.54 1244.24 401.37C1241.53 406.97 1238.27 413.71
1235.01 420.46C1233.23 424.14 1231.61 427.75 1227.34 429.6C1225.84 430.25 1224.3 433.12
1224.44 434.83C1225 441.59 1225.69 448.38 1232.27 452.83C1234.82 454.55 1236.66 457.5 1238.42
460.15C1241.64 464.98 1241.23 469.81 1236.77 473.8C1241.39 478.32 1245.17 474.19 1249.56
474.3C1252.39 477.06 1255.66 479.94 1258.54 483.16C1261.99 487.02 1262.28 497.41 1259.11
501.47C1255.6 505.95 1252.2 510.72 1245.08 508.68C1243.61 508.26 1241.61 509.65 1239.54
510.31C1239.81 512.27 1239.74 513.94 1240.3 515.36C1241.9 519.42 1240.46 522.8 1238.4
526.16C1236.3 529.6 1233.66 532.86 1232.33 536.58C1230.11 542.77 1225.78 544.59 1218.76
543.6C1220.53 546.86 1221.75 549.11 1223 551.42C1219.55 556.27 1216.65 551.43 1213.66
551.32C1213.25 551.67 1212.48 552.05 1212.51 552.32C1214.28 565.19 1203.81 569.49 1195.92
575.15C1192.8 577.39 1189.93 579.37 1187.56 582.5C1182.32 589.44 1176.89 596.29 1170.96
602.64C1167.73 606.11 1163.32 608.48 1158.98 611.68C1165.82 620.57 1163.2 628.18 1157.38
635.65C1155.77 637.72 1155.07 640.5 1153.74 643.42C1150.79 643.78 1147.6 643.51 1145.24
647.22C1143.09 650.59 1131.29 650.12 1126.76 646.62C1123.52 644.11 1120.48 642.75 1116.49
643.05C1111.4 643.43 1107.95 640.83 1105.38 634.85C1101.56 646.75 1090.32 647.37 1083.36
653.6C1081.09 655.63 1079.33 657.15 1078.19 660.22C1076.07 665.89 1072.67 670.97 1065.34
670.37C1065.42 678.22 1060.35 683.42 1056.12 688.43C1051.06 694.4 1044.54 699.16 1038.49
704.26C1037.12 705.42 1035.03 705.68 1033.44 706.63C1031.94 707.53 1029.92 708.53 1029.41
709.95C1027.48 715.35 1023.84 717.79 1017.72 717.3C1017.57 720.18 1017.43 722.7 1017.27
725.84C1013.94 725.57 1011.07 725.34 1008.31 725.12C1008.1 729.01 1009.06 733.51 1007.35
736.43C1005.66 739.31 1001.24 740.59 997.62 742.83C998.06 744.05 998.46 745.27 998.92
746.46C1000.79 751.37 1000.32 752.22 995.01 753.38C987.62 755 984.27 759.9 987.72
766.41C990.39 771.45 988.25 774.65 986.31 778.45C983.36 784.25 983.33 784.24 976.71
785.7C974.02 794.06 975.5 797.29 982.9 800.32C985.3 801.31 987.54 802.94 989.52 804.65C993.01
807.68 996.34 810.91 999.55 814.23C1001.39 816.13 1002.89 818.37 1004.51 820.49C1005.3 821.52
1006.12 823.58 1006.77 823.52C1012.14 823.03 1012.08 827.88 1013.92 830.85C1021.4 831.63
1030.67 826.89 1034.13 838.4C1043.76 831.48 1052.17 834.81 1060.43 840.13C1067.56 844.72
1067.86 846.6 1062.09 853.97C1062.99 854.77 1063.96 855.56 1064.85 856.43C1068.38 859.9
1068.56 863.17 1064.72 865.88C1061.8 867.95 1058.9 869.59 1057.71 873.36C1057.33 874.58
1055.42 875.68 1053.99 876.14C1045.86 878.75 1037.71 877.84 1030.08 874.59C1027.7 873.58
1026.46 869.9 1023.63 865.96C1020.39 864.25 1018.12 869.06 1013.86 871.23C1007.79 868.31
1001.06 865.4 994.66 861.89C989.69 859.17 985.31 855.35 980.31 852.69C976.8 850.82 972.75
849.65 968.81 848.97C965.58 848.42 963.5 847.4 961.7 844.48C957.76 838.06 953.43 837.92 949.44
844.26C946.53 848.89 941.49 851.07 937.76 850.02C930.25 847.91 924.67 850.86 917.81
854.2C920.89 856.28 923.59 858.1 926.12 859.81C925.96 860.62 925.99 861.01 925.83
861.13C924.59 862.1 908.24 868.66 907.06 868.68C902.43 868.77 897.61 869.52 895.69
863.38C895.34 862.26 893.11 861.72 891.76 860.91C890.42 860.11 888.24 859.56 887.87
858.44C885.16 850.02 876.91 850.79 870.89 847.93C870.08 847.55 868.52 847.78 867.81
848.35C864.26 851.2 860.85 850.06 857.05 848.85C852.61 847.43 850.96 848.93 851.49
853.75C851.9 857.44 852.46 861.15 848.85 863.3C844.32 865.99 840.21 870.15 834.08
868.79C831.17 868.14 828.22 867.46 825.27 867.37C823.57 867.32 820.96 867.9 820.27
869.09C816.9 874.84 812.5 873.87 807.33 870.92C807.75 874.04 808.06 876.32 808.44 879.13C803.6
880.86 799.05 882.54 794.46 884.11C790.62 885.42 787.45 887.38 786.97 891.81C786.43 896.72
784.45 900.07 777.34 899.3C779.28 903.33 780.59 906.03 782.16 909.27C781.88 916.87 771.54
916.49 770.03 923.57C766.37 922.84 763.29 922.23 759.33 921.44V933.17H750.92C749.77 935.83
748.89 938.99 747.17 941.6C743.94 946.49 741.31 951.82 735.3 954.51C730.17 956.81 730.09 962.2
730.37 967.47C727.54 968.33 725 969.11 721.98 970.03C721.77 971.36 721.25 972.92 721.34
974.45C721.57 978.48 720.28 981.86 717.93 985.09C715.86 987.94 714.4 991.22 712.42
994.13C709.94 997.77 709.09 1001.19 711.41 1005.41C713.3 1008.85 712.8 1012.48 708.94
1014.58C702.47 1018.09 700.51 1023.35 702.69 1029.97C699.57 1030.83 695.97 1030.77 694.47
1032.52C692.82 1034.44 692.62 1038.02 692.61 1040.87C692.58 1048.03 692.77 1048.03 686.13
1051.05C682.08 1052.89 681.18 1056.94 684.92 1060.09C691.98 1066.04 699.3 1071.72 709.05
1072.94C715.24 1073.71 721.55 1074.53 726.79 1078.48C728.94 1080.1 731.01 1081.84 733.08
1083.56C734.12 1084.42 735.11 1086.17 736.07 1086.14C742.94 1085.9 746.58 1091.85 752.08
1094.16C753.04 1094.56 754.37 1095.21 754.61 1096.02C756.27 1101.71 760.3 1102.27 765.43
1102.12C768.42 1102.03 771.46 1103.66 776.29 1105.03C772.7 1108.23 770.51 1110.19 767.96
1112.47C772.12 1115.97 776.86 1115.75 781.31 1116.4C787.31 1117.28 788.21 1118.38 787.59
1124.29C786.21 1137.52 779.54 1146.97 767.46 1152.57C766.72 1152.91 765.96 1153.24 765.31
1153.71C761.343 1156.53 757.077 1157.29 752.51 1155.99C746.41 1158.66 747.02 1168.21 738.59
1169.23C732.76 1158.26 722.4 1162.81 713.39 1162.5C710.82 1162.41 710.8 1163 706.63
1170.36C702.22 1169.53 697.12 1165.16 692.87 1171.94C696.9 1178.25 696.7 1184.45 689.59
1189.24C692.81 1195.23 695.7 1200.44 698.43 1205.74C701.41 1211.53 700.93 1216.06 696.05
1220.3C693.52 1222.5 691.9 1224.39 692.62 1227.83C692.83 1228.85 692.96 1230.5 692.39
1230.97C688.19 1234.49 688.43 1241.3 684.96 1243.95C678.76 1248.68 674.77 1256.79 665.66
1257.69C663.46 1257.91 660.69 1259.47 659.51 1261.29C657.1 1265.01 655.26 1268.78 649.87
1268.12C649.37 1268.06 648.46 1269.04 648.2 1269.72C646.12 1275.13 640.99 1277.01 636.59
1279.53C634.19 1280.9 631.1 1281.1 628.31 1281.75C627.05 1282.04 624.96 1281.7 624.58
1282.38C621.8 1287.4 617.65 1285.17 613.07 1284.17C614.4 1292.08 610.23 1296.22 604.2
1299.13C603.71 1299.37 603.01 1299.59 602.84 1299.99C599.79 1307.15 593.8 1307.26 587.26
1305.89C586.1 1308.54 585.13 1310.74 584.04 1313.23C585.7 1315.37 587.32 1317.45 589.37
1320.1C585.26 1328.33 581.75 1336.97 576.83 1344.72C572.87 1350.95 567.2 1356.09 562.02
1362.02C559.39 1360.9 556.72 1359.76 552.93 1358.15C552.93 1360.52 553.07 1362.2 552.89
1363.84C552.7 1365.57 552.77 1367.81 551.73 1368.85C549.72 1370.87 547.82 1369.31 546.29
1367.5C545.98 1367.13 545.35 1367.03 544.36 1366.58C543.7 1367.57 542.93 1368.6 542.31
1369.71C538.8 1375.98 537.35 1376.51 531.03 1372.54C525.37 1368.98 519.96 1371.82 514.45
1372.6C513.98 1372.67 513.32 1373.15 513.2 1373.57C510.28 1383.51 498.2 1383.55 493.44
1391.69C492.85 1392.7 489.05 1392.26 486.87 1391.83C482.27 1390.92 480.27 1391.49 478.37
1395.67C477.02 1398.64 475.62 1401.75 475.19 1404.92C474.5 1410.08 473.9 1414.65 467.18
1415.05C466.18 1415.11 464.98 1417.3 464.47 1418.72C463.65 1420.99 462.79 1422.47 459.95
1422.49C458.76 1422.49 456.87 1423.92 456.51 1425.07C454.99 1429.96 450.96 1430.56 446.93
1431.46C441.39 1432.69 435.69 1433.52 430.39 1435.43C425.1 1437.33 421.41 1441.61 419.35
1446.86C418.78 1448.32 419.3 1450.47 419.9 1452.08C421.32 1455.84 421.41 1455.79 418.16
1460.41C416.53 1459.09 414.56 1458.06 413.39 1456.45C407.81 1448.82 402.05 1441.27 397.23
1433.17C395.73 1430.65 397 1426.5 397 1422.5C392.8 1421.08 386.1 1426.27 383.22 1416.3C376.93
1425.94 371.97 1433.53 366.5 1441.92C365.41 1441.74 363.21 1441.39 360.19 1440.91C361.33
1442.41 361.82 1443.43 362.62 1444.05C366.44 1447.04 365.61 1450.4 362.87 1453.19C358.05
1458.1 354.91 1463.5 355.54 1470.6C349.57 1481.72 351.22 1493.94 350.43 1505.81C350.38 1506.51
349.69 1507.17 348.85 1508.62C346.59 1506.43 344.6 1504.5 342.09 1502.07C341.45 1509.62 341.13
1516.21 347.1 1521.85C351.1 1525.63 349.94 1532.34 345.54 1536.05C339.61 1541.05 339.43
1542.59 344.29 1549.18C347.17 1553.09 345.59 1556.97 344.29 1560.82C342.66 1565.66 338.69
1566.14 334.39 1565.7C332.73 1569.91 337.07 1571.34 338.24 1574.73C337.53 1576.38 337.15
1578.79 335.76 1580.23C331.82 1584.32 328.7 1588.52 327.66 1594.42C327.32 1596.34 324.1
1598.32 321.79 1599.24C312.47 1602.97 310.91 1607.79 316.84 1615.6C317.29 1616.2 317.37
1617.08 317.68 1618C313.64 1621.91 310.2 1619.07 307.84 1617.73C302.99 1619.27 299.05 1620.41
295.18 1621.77C289.79 1623.66 284.41 1625.62 279.11 1627.74C275.32 1629.26 271.77 1631.47
267.91 1632.72C263.68 1634.09 259.22 1634.72 253.6 1635.94C250.31 1642.35 242.79 1642.37 235.5
1642.43C231.19 1642.47 226.87 1641.64 222.13 1641.16C220.47 1647.04 216.38 1649.7 210.81
1650.21C209.54 1650.33 207.48 1650.41 207.07 1649.73C204.45 1645.43 203.36 1651.08 200.74
1650.21C196.55 1646.59 191.75 1642.66 187.21 1638.45C184.11 1635.57 184.13 1632.65 186.75
1629.21C187.55 1628.17 188.44 1627.2 189.79 1625.6C187.68 1623.54 185.97 1621.51 183.9
1619.94C179.58 1616.66 175.11 1613.59 170.63 1610.54C169.58 1609.83 168.25 1609.24 167.01
1609.14C158.88 1608.46 158.88 1608.51 159.15 1599.26C155.15 1599.26 151.15 1599.26 147.15
1599.26C143.9 1599.26 141.68 1600.37 140.02 1603.57C138.92 1605.7 136.46 1607.61 134.17
1608.55C128.37 1610.91 122.31 1612.61 116.39 1614.69C113.15 1615.83 110.64 1615.28 108.48
1612.48C103.8 1606.4 97.27 1605.14 90.13 1605.86C86.07 1606.27 82.01 1606.82 77.99
1607.54C73.31 1608.37 72.63 1609.49 73.33 1614.22C74.49 1622.01 73.28 1623.23 65.33
1622.55C60.44 1622.13 55.34 1622.6 50.69 1621.34C43.06 1619.28 35.51 1619.15 27.79
1619.8C24.63 1620.07 22.03 1619.29 20.59 1615.81C19 1611.95 16.44 1612.34 13.5 1614.79C8.33996
1619.1 7.90995 1619.04 5.23995 1615.61C-0.660046 1608.06 -0.770042 1607.09 3.96996
1603.07C5.20996 1602.02 7.66995 1601.09 7.66995 1600.11C7.66995 1592.64 14.61 1589.36 17.11
1583.65C19.51 1578.16 23.61 1575.99 28.6 1574.19C31.6 1573.11 34.53 1571.76 37.36
1570.29C42.17 1567.79 46.77 1564.88 51.66 1562.55C58.98 1559.05 59.4 1557.52 53.95
1551.44C53.25 1550.66 52.63 1549.82 51.55 1548.48C58.72 1544.22 63 1536.73 71.7299
1534.94C76.01 1534.06 77.78 1528.99 75.36 1524.97C73.23 1521.42 72.08 1518.55 74.06
1514.47C75.92 1510.62 78.67 1508.6 82.58 1507.58C83.28 1507.4 83.83 1506.66 84.8 1505.91C83.72
1503.53 82.65 1501.2 81.42 1498.49C83.19 1497.52 84.5 1496.6 85.95 1496.04C88.7 1494.98 89.94
1492.86 89.31 1490.24C87.04 1480.85 90.2499 1471.86 91.2299 1462.75C91.8999 1456.52 92.22
1450.89 87.83 1445.83C85.09 1442.67 84.71 1439.18 86.39 1435.16C87.12 1433.4 86.46 1431.06
86.42 1428.98L86.6199 1429.19L86.6799 1429.23ZM675.78 1241.86C674.17 1240.99 672.98 1239.84
672.07 1240.02C671.29 1240.18 670.83 1241.88 670.22 1242.89C671.3 1243.46 672.34 1244.36
673.46 1244.47C674.01 1244.52 674.71 1243.11 675.77 1241.85L675.78 1241.86ZM120.61
1383.26C121.72 1382.05 122.54 1381.47 122.83 1380.69C122.96 1380.34 122 1379.12 121.55
1379.13C120.71 1379.15 119.88 1379.77 119.04 1380.15C119.45 1380.96 119.85 1381.76 120.61
1383.26Z" fill="black"/>
<path d="M711.6 1024.66C711.49 1024.89 711.3 1025.32 711.27 1025.31C710.85 1025.17 710.44
1024.96 710.04 1024.78C710.15 1024.55 710.33 1024.12 710.37 1024.13C710.79 1024.27 711.2
1024.47 711.6 1024.66Z" fill="black"/>
<path d="M86.4701 1429.02C85.6901 1429.88 84.9201 1430.73 84.1401 1431.59C83.8701 1431.23
83.6001 1430.87 83.3301 1430.52C84.4401 1430.09 85.5401 1429.66 86.6601 1429.23L86.4601
1429.02H86.4701Z" fill="black"/>
<path d="M675.78 1241.86C674.71 1243.12 674.02 1244.53 673.47 1244.48C672.35 1244.37 671.3
1243.47 670.23 1242.9C670.83 1241.88 671.3 1240.19 672.08 1240.03C672.99 1239.84 674.18 1241
675.79 1241.87L675.78 1241.86Z" fill="white"/>
<path d="M120.6 1383.26C119.84 1381.76 119.44 1380.95 119.03 1380.15C119.86 1379.78 120.69
1379.15 121.54 1379.13C121.99 1379.13 122.95 1380.34 122.82 1380.69C122.54 1381.47 121.71
1382.05 120.6 1383.26Z" fill="white"/>
</svg>