<?xml version="1.0" encoding="utf-8"?>
<!-- Generator: Adobe Illustrator 27.8.0, SVG Export Plug-In . SVG Version: 6.00 Build 0)  -->
<svg version="1.1" id="Layer_1" xmlns="http://www.w3.org/2000/svg" xmlns:xlink="http://www.w3.org/1999/xlink" x="0px" y="0px"
	 viewBox="0 0 512 512" style="enable-background:new 0 0 512 512;" xml:space="preserve">
<path d="M456.8,310.7c-4.5-3.4-17.6-10-29.1-15.9c-6.2-3.1-13.1-6.7-14.3-7.5c-10-8.4-26-44.5-20.6-56c0.7-1.7,2.8-2.6,6.2-3.8
	c3.5-1.3,7.4-2.8,10.2-7.1c1.8-4.1,1.5-8.4,1.2-12.3c-0.2-3.2-0.4-6.3,0.6-8.6c0.4-1,0.4-2.1,0-3.1c-0.4-1-1.2-1.8-2.2-2.2
	c-14.8-6.3-21.5-13.5-20.3-21.9c1-1.8,8.9-4,12.3-5c6.6-1.8,10.9-3.1,11.3-7.1c0.2-1.6-0.4-4-3.9-5.7
	c-35.8-17.9-44.5-22.1-48.5-22.1c-2.7,0-4,1.7-4.4,2.4c-1.6,2.8,0,5.5,2.5,9.4c3,4.9,7.6,12.4,6,18.9c-0.9,3.7-3.7,6.8-8.3,9.9
	c-1-0.4-2.9-3.6-4.1-5.5c-2.4-3.9-4.9-7.9-8.3-9.3c-3.5-2.1-8.6-1.9-13.4-1.1c-4.3,0.8-7.7,0.7-11,1.3c-2.6,0.5-5,0.9-7,0.6
	c-0.1-0.5-0.1-1.1-0.1-1.6c-0.1-1.9-0.2-4.3-1.4-6.6c-2.5-4.9-9-5.5-13.7-5.5c-2.9,0-6,0.2-8.9,0.5c-0.1,0-0.1,0-0.2,0
	c1.4-0.9,3.6-1.8,5.6-2.8c5.9-2.7,10.6-4.8,11.1-9c0.1-1.2,0-3.4-2.9-5.7c-2.6-1.6-5.8-1.8-8.6-2.1c-1.4-0.1-3.5-0.3-4.5-0.7
	c0.7-1,2-2.5,2.9-3.6c3.3-3.8,7.4-8.5,6.5-13.9c-0.5-3.1-2.7-5.8-6.3-7.9c-7.1-4.1-16.2-5.8-25.8-7.7c-14.6-2.8-29.7-5.7-36.2-17.2
	c-0.4-0.6-2.1-5-2.1-29.7v-1.8c0-1.3-0.6-2.6-1.7-3.3c-1.1-0.8-2.4-1-3.7-0.6c-2,0.7-3.5,2.3-4.6,3.6c-1.5-1.6-2.7-4-3.9-6.6
	c-1.7-3.6-3.5-7.2-7-10.1c-3.1-2.1-6.7-2.9-10.1-3.7c-3.3-0.8-6.5-1.5-8.7-3.3c-0.2-0.2-0.5-0.4-0.8-0.5c-2.9-1.4-5-4.6-7.2-7.9
	c-1-1.6-2.1-3.2-3.2-4.6c-0.8-1-2-1.5-3.2-1.5c-1.3,0-3.2-0.9-5-1.8c-2.5-1.3-5.4-2.7-8.6-2.7c-0.9,0-1,0-13.9,3.8
	c-4.3,1.3-10.1,3-11.8,3.4c-2.3-0.2-2.9-0.7-3-0.7c-0.1-0.1-0.1-0.6-0.1-0.9c-0.4-4.9-3.9-5.3-4.9-5.3c-2.2,0-4.7,1.3-12.7,6.5
	c-6.5,3.5-11,8.9-15.4,14c-2.9,3.4-5.7,6.6-8.8,9c-2.6,2-4.2,1.4-6.2,0.2c-2.4-1.4-5.9-2.7-8.9,0.3C62.3,44.2,62.2,44.2,56.8,44.2
	c-1.4,0-2.7,0.7-3.5,1.9c-0.7,1.2-0.8,2.7-0.2,4l1.8,3.2c10.9,15.4,10.9,15.4,9.8,23.9c-0.3,2.5-0.8,5.6-1.1,10c0,1.9,0.8,8,9.2,7.8
	c-0.7,1.3-1.1,2.7-1,4.1c0.2,2.5,1.6,4.2,3,5.5c-1.3,1-2.4,2.4-2.6,4.4c-0.2,1.5,0.2,3.8,3.2,6.1c5.1,3.4,11.1,6.2,17.6,8.1
	c-1.1,0.8-1.8,2-2.1,3.6c-0.2,3.1-1.1,5.6-1.9,8.1c-2,6.3-4.1,12.8,4.9,22.2c-0.9,0.9-2.9,1.3-4.5,1.7c-2.7,0.6-6.1,1.4-7.2,4.8
	c-1,3.3,1.1,6.3,3.4,8.7c1.1,1.2,2.7,1.6,4.2,1.2c3-0.9,5.9-2.1,8.7-3.3c4.1-1.7,8.1-3.4,12.3-3.8c-0.7,12-4.5,22.5-7.8,31.8
	c-3.7,10.2-7.1,19.8-5.6,29.3c0.9,5,2.6,14.3,10.5,14.3c1.5,0,3-0.3,4.4-0.7c2.9-0.7,6.1-1.1,9.3,0.3c3.1,1.4,5.1,4.6,7.5,8.4
	c2.6,4.1,5.5,8.7,11.1,11.7c1.9,0.6,4.2,0.2,6.7,0.5c0,0.2-0.1,0.5-0.2,0.8c-1.2,4.1-3.1,4.9-5.8,4.9c-3,0-6.9-1.3-10.3-2.4
	c-3.4-1.1-6.7-2.2-9.5-2.2c-3.5,0-5.4,1.6-6.4,3c-1.2,1.7-1,4,0.5,5.4c17.9,16.7,34.5,38.9,29.7,44.1c-0.9,0.9-1.2,2.2-1,3.5
	c0.2,1.3,1,2.3,2.1,2.9c5.8,3,9.2,4.9,11.8,6.3c7,3.8,8,4.4,32.8,14.8c2.6,0.8,3,3.2,3,10c0,5.9,0,13.9,7.5,16.8
	c8.2,3.2,11.5,6.9,15.1,10.8c2.3,2.5,4.7,5.1,8.2,7.5c-0.2,0.1-0.4,0.1-0.6,0.2c-4.3,1.4-8.3,2.8-8.9,6.5c-0.2,1.2-0.1,3.4,2.5,5.3
	c-0.6,0.2-1.3,0.5-1.8,0.6c-4,1.3-8.1,2.7-9.5,6.4c-0.3,0.8-0.3,1.7-0.1,2.5c1.8,6.7,3.1,11.8,3.8,15c-1,0.6-1.8,1.7-2.2,3.4
	c-0.3,1.2,0,2.5,0.8,3.5c1.1,1.4,3.1,1.4,4.6,1.7c0.3,0.1,0.6,0.2,0.9,0.2c3.6,1.2,5.2,5.7,7.3,12.3c1.8,5.6,3.6,11.4,8.1,13.9
	c2.6,1.7,6.1,1,8.2,0.2c0.7-0.3,1.5-0.6,2-0.6c7,2,12.1,4.6,15.4,7.9c10.4,11.2,8.9,23.1,6.2,35.4c-0.3,1.2,0,2.5,0.8,3.4
	c0.8,1,1.9,1.5,3.2,1.5h1.5c3.9,2.5,7.1,3.7,9.9,3.7c2.4,0,4.5-0.9,6.1-2.6c4-4.2,3.7-12.1,3.3-19.7c-0.1-2.9-0.3-7.2,0.1-8.7
	l3.5-2.2c8.6-5.6,17.5-11.4,26.3-12.1c0.9,0.2,3.4,2.1,4.8,3.2c3,2.3,5.6,4.3,8.4,4.3c2.4,0,4.3-1.4,5.4-4.2c0.8-3.2-0.3-6-1.2-8.1
	c-0.3-0.7-0.7-1.6-0.8-1.3c3.8-9.4,6.7-9.4,8.8-9.4c1.6,0,3.3,0.3,5.1,0.6c4.2,0.6,9.1,1.4,15.7,0.4c6.1-1.1,13.7-5.7,21.7-10.6
	c11.5-7,25.2-14.9,30.2-10.3c0.9,0.9,2.2,1.2,3.4,1c1.2-0.2,2.3-1,2.9-2.1c1.2-2.2,3.4-3.9,5.7-5.8c4.8-3.8,11.3-9,7.4-19
	c-1.3-5.2-5-7.7-8.5-9.9c-1.1-0.5-2.2-0.8-3.6-0.7c-0.1-1.7,0-3.5,0.2-5.4c0.1-1.6,0.2-3.2,0.2-5.5c-0.5-2.8-1.9-5.4-3.1-7.6
	c-1-1.8-2.4-4.3-1.9-5c1.2-2,3.1-5.2,5-8.3c0.2,0.4,0.5,0.8,0.9,1.2c3.4,3.8,8.8,3.1,18.9-4.9c2.1-2.1,8-12.3,12-21
	C461.6,319.2,459.9,313.9,456.8,310.7L456.8,310.7z"/>
</svg>
