<svg id="Layer_1" enable-background="new 0 0 65 65" height="65" viewBox="0 0 65 65" width="65" xmlns="http://www.w3.org/2000/svg"><path d="m57.04 39.194c-.551-.413-2.15-1.228-3.562-1.947-.752-.383-1.604-.817-1.744-.92-1.227-1.021-3.179-5.443-2.524-6.847.088-.203.343-.312.754-.466.424-.16.903-.34 1.242-.865.215-.498.182-1.032.152-1.504-.025-.395-.048-.768.071-1.046.053-.122.055-.26.005-.383-.049-.123-.146-.222-.268-.274-1.813-.776-2.623-1.654-2.479-2.679.117-.224 1.085-.495 1.498-.611.803-.225 1.332-.373 1.38-.874.02-.2-.049-.485-.482-.702-4.382-2.19-5.435-2.707-5.929-2.707-.335 0-.487.208-.537.297-.193.346.005.668.305 1.155.371.604.934 1.516.732 2.316-.112.448-.452.831-1.016 1.206-.118-.054-.357-.438-.5-.667-.296-.477-.604-.97-1.011-1.14-.432-.257-1.053-.233-1.643-.133-.527.092-.937.089-1.343.165-.313.059-.615.108-.854.07-.008-.058-.012-.137-.016-.197-.013-.231-.028-.52-.172-.808-.302-.604-1.098-.673-1.67-.673-.356 0-.739.03-1.091.059-.007 0-.014.001-.021.001.175-.107.437-.226.689-.341.726-.33 1.299-.59 1.362-1.105.018-.144.003-.42-.349-.696-.32-.192-.709-.226-1.052-.256-.17-.015-.43-.037-.552-.088.08-.123.239-.306.354-.437.403-.462.904-1.038.793-1.698-.065-.385-.325-.71-.77-.963-.863-.5-1.979-.713-3.158-.939-1.788-.342-3.637-.696-4.431-2.1-.043-.077-.262-.611-.262-3.625v-.221c0-.161-.077-.312-.208-.406s-.299-.121-.451-.068c-.25.083-.428.276-.562.439-.186-.197-.329-.495-.478-.806-.208-.435-.424-.884-.855-1.239-.382-.255-.813-.354-1.229-.45-.406-.094-.79-.182-1.058-.405-.029-.024-.062-.046-.096-.063-.353-.177-.609-.562-.88-.97-.124-.194-.252-.386-.39-.559-.095-.119-.239-.188-.391-.188-.159 0-.387-.114-.608-.224-.31-.155-.661-.33-1.057-.33-.109 0-.128 0-1.698.465-.528.157-1.235.366-1.442.418-.281-.024-.36-.087-.362-.087-.007-.017-.012-.071-.015-.107-.051-.602-.476-.648-.604-.648-.273 0-.569.153-1.554.796-.792.432-1.347 1.082-1.883 1.711-.356.417-.692.812-1.07 1.105-.313.243-.509.174-.757.029-.289-.17-.727-.324-1.088.038-1.39 1.603-1.403 1.603-2.065 1.603-.173 0-.334.09-.425.237s-.1.332-.022.486l.224.392c1.336 1.884 1.336 1.884 1.194 2.924-.042.305-.094.684-.139 1.228 0 .228.102.979 1.129.952-.091.162-.131.329-.12.499.021.302.194.516.37.673-.159.126-.297.299-.322.542-.019.185.026.46.387.746.623.416 1.36.752 2.148.993-.13.094-.224.242-.261.438-.029.375-.13.689-.228.994-.247.767-.502 1.56.593 2.72-.105.106-.351.164-.552.212-.332.079-.746.177-.875.59-.125.401.138.766.411 1.069.129.144.33.2.515.145.37-.111.717-.256 1.058-.4.505-.213.985-.416 1.501-.466-.088 1.471-.546 2.746-.955 3.885-.447 1.244-.869 2.418-.686 3.577.111.612.318 1.751 1.281 1.751.185 0 .365-.042.54-.083.353-.084.751-.133 1.131.031.373.166.623.563.913 1.025.313.498.667 1.063 1.351 1.432.229.077.514.028.817.064-.006.024-.015.057-.028.095-.15.499-.384.6-.714.6-.371 0-.844-.155-1.261-.292-.421-.139-.818-.269-1.164-.269-.43 0-.663.2-.783.369-.146.204-.117.484.066.655 2.189 2.043 4.22 4.761 3.636 5.395-.105.114-.152.271-.125.425s.124.286.262.357c.708.368 1.125.598 1.44.771.852.467.983.539 4.004 1.809.313.102.368.394.371 1.22.002.717.006 1.698.914 2.059 1.002.397 1.41.844 1.841 1.316.281.308.57.624 1.004.912-.028.009-.055.018-.079.026-.525.175-1.02.34-1.089.8-.021.144-.009.418.308.653-.079.028-.161.056-.225.076-.487.162-.991.329-1.162.779-.037.099-.042.205-.015.307.22.825.376 1.437.467 1.831-.119.077-.221.209-.269.413-.035.148 0 .305.095.424.132.168.374.172.563.203.037.013.075.022.111.028.436.146.639.693.895 1.501.217.688.442 1.399.986 1.699.316.211.74.128 1.001.025.089-.034.181-.07.249-.071.857.245 1.476.565 1.879.968 1.27 1.366 1.086 2.824.764 4.323-.031.147.006.302.101.419s.237.186.389.186h.183c.476.305.862.447 1.209.447.295 0 .555-.108.751-.313.488-.509.447-1.476.408-2.41-.015-.354-.037-.875.012-1.066l.425-.275c1.053-.688 2.143-1.398 3.21-1.483.113.021.421.259.586.387.364.281.679.524 1.027.524.29 0 .53-.169.663-.514.097-.389-.041-.733-.142-.985-.033-.081-.08-.191-.102-.165.468-1.146.817-1.146 1.071-1.146.192 0 .398.034.627.069.51.078 1.107.176 1.925.047.742-.139 1.67-.701 2.651-1.298 1.407-.854 3.081-1.821 3.687-1.265.112.104.268.149.418.127.151-.024.283-.117.357-.251.148-.266.414-.479.696-.705.582-.466 1.379-1.104.905-2.32-.157-.634-.615-.938-1.036-1.214-.129-.063-.266-.094-.438-.085-.009-.21.005-.429.021-.655.013-.196.025-.392.019-.67-.057-.344-.23-.655-.383-.931-.123-.221-.29-.522-.237-.611.148-.246.385-.637.617-1.012.029.052.063.102.105.148.41.46 1.073.378 2.311-.596.258-.257.973-1.505 1.472-2.566 1.063-2.261.862-2.909.472-3.292z"/></svg>
