<svg id="Layer_1" viewBox="0 0 128 128" xmlns="http://www.w3.org/2000/svg" data-name="Layer 1"><path d="m126.084 109.9492a13.02315 13.02315 0 0 0 -1.37449-2.59619c-.703-.8242-3.2911-1.67867-3.32069-1.68752-.357-.10748-.86436-1.02445-1.1187-1.29581l-.043-.04614c.00085-.82725-.59715-1.53775-.715-2.351-.1174-.80949-.166-1.62484-.30889-2.43348a10.792 10.792 0 0 0 -1.51484-4.59834c-.80425-1.05173-.678-2.761-1.44571-3.89994-.91446-1.35672-1.70053-2.25611-1.78565-3.99887a8.26081 8.26081 0 0 0 1.54554-2.94525 5.52216 5.52216 0 0 0 .164-1.93276c-.04644-.96006.19527-2.17488-.52911-2.97625-.36076-.399-.96846-.42351-1.10637-.94242a2.41007 2.41007 0 0 1 .33995-1.27146l.0537-.1123a4.14013 4.14013 0 0 0 .41689-1.23435 3.25988 3.25988 0 0 0 .50769-.68065 2.80012 2.80012 0 0 0 1.68613-3.20793 5.36079 5.36079 0 0 0 -3.0198-4.64638l-.02343-.0498c-.04589-.09668-.09178-.19335-.14157-.28808a4.47733 4.47733 0 0 0 -1.68222-1.81051l-.14843-.08977a2.98273 2.98273 0 0 1 -.53308-.36718 2.55212 2.55212 0 0 0 -2.08447-1.26853.28029.28029 0 0 1 -.16207-.12011 3.46093 3.46093 0 0 0 -.59654-3.1093 2.6344 2.6344 0 0 0 .29973-1.41147c-.01867-.26519.37857-.79924.46376-1.06309a7.7434 7.7434 0 0 1 .46181-1.02634 8.25593 8.25593 0 0 0 .865-2.28217 3.54594 3.54594 0 0 1 .37784-.88865 8.623 8.623 0 0 0 .5653-1.26364c.14938-.44726.50379-1.96675 1.14622-4.79872.124-.54882.2226-.98533.26947-1.18064a2.9004 2.9004 0 0 0 -1.13352-3.72159c-2.36175-1.72555-11.98352-9.51736-15.66033-12.5663.67886-1.455.10093-2.7782-.03326-4.25265a2.56327 2.56327 0 0 0 -1.56312-2.09662c-11.79607-6.88367-39.30915-22.93018-40.01601-23.25439a1.99788 1.99788 0 0 0 -.83379-.18261h-36.30494a1.99878 1.99878 0 0 0 -1.444.6162.63513.63513 0 0 1 -.72834.23535 2.27684 2.27684 0 0 0 -2.53166 1.17379 3.248 3.248 0 0 0 .55163 3.57218 3.93067 3.93067 0 0 0 2.29926 2.84858 2.50346 2.50346 0 0 0 .68051 1.3789c.25092.25488.35734.65916.11228 1.88863a3.89162 3.89162 0 0 0 .6229 3.0888 4.6782 4.6782 0 0 0 -.28338 1.14157c-.55993.15545-1.16727.37188-1.7181.56633a2.81892 2.81892 0 0 0 -1.75642 1.6777 30.17336 30.17336 0 0 0 -.81133 3.164c-.125.54882-.22944 1.01267-.28118 1.19626a3.347 3.347 0 0 0 2.06983 4.00871 2.38174 2.38174 0 0 0 1.22237.06152c.15426.14642.31432.29095.47413.43426-.45351-.39763-1.482 2.12837-1.469 2.1233-.04479.01752-.09159.03509-.14126.05261-1.31616.46471-2.08667 2.06447-2.46164 3.37114a2.492 2.492 0 0 0 -.79284 1.085 12.26618 12.26618 0 0 1 -.7926 1.30124c-.16421.3139-.30773 1.399-.50684 1.56973a.29245.29245 0 0 1 -.03875.02911c-.97511.573-1.31836 1.76284-2.26052 2.41126a2.35248 2.35248 0 0 0 -1.85918.91795c-1.72231-.05646-3.21623.13055-3.97343 1.90816a30.1886 30.1886 0 0 0 -1.10814 3.16887 8.20144 8.20144 0 0 0 -.08494 2.27534 7.342 7.342 0 0 0 .66 2.22261c.57018 1.6357 1.15988 3.32707 1.82379 4.9842a3.79618 3.79618 0 0 1 .1279 3.166 6.32182 6.32182 0 0 0 -.0371 7.19124 24.919 24.919 0 0 1 1.62462 2.77533 5.3985 5.3985 0 0 0 2.3266 2.26753 18.521 18.521 0 0 1 3.81063 2.791 4.02789 4.02789 0 0 1 1.09545 1.98335 27.97209 27.97209 0 0 0 2.38811 6.64438 31.99892 31.99892 0 0 1 1.66959 4.76314 15.48643 15.48643 0 0 0 3.03634 4.82258c1.11888 1.42477 3.76474 1.52731 5.22241 1.25876.162.07123.37186.17865.54656.27038.06352.03339.313 1.08329.42037 1.25046.35087.5465.88309.77842 1.33623 1.20078a2.7667 2.7667 0 0 0 2.46622.6992 2.68939 2.68939 0 0 0 .8416 1.14841 2.91334 2.91334 0 0 0 2.55732.46795 14.88542 14.88542 0 0 0 4.47527 1.95033 8.74075 8.74075 0 0 1 2.06122.72392 8.23165 8.23165 0 0 0 3.13183 1.32156 4.89092 4.89092 0 0 0 3.464 1.11521 3.07179 3.07179 0 0 0 1.97415 1.38278 2.81934 2.81934 0 0 0 1.41666-.08984c.43252.12207 1.09252.333 1.57385.48729 1.14329.3662 1.97512.62792 2.60486.76365a28.638 28.638 0 0 0 2.06885 3.59562 5.71791 5.71791 0 0 1 .79376 3.06048l.07713 1.50973c.0908 1.77047.18062 3.54.3095 5.30652a18.16708 18.16708 0 0 0 .45888 3.49791c.32243 1.18436 1.34954 1.854 1.80915 2.94531a2.44852 2.44852 0 0 0 2.56385 1.48043c.84258-.001 1.68418-.00684 2.52675-.01172 1.6871-.00977 3.37714-.02246 5.06522 0.001a20.33251 20.33251 0 0 0 3.10547-.251 6.23973 6.23973 0 0 0 2.41569-1.35739 14.62235 14.62235 0 0 0 1.51423.86808c.08012.04169.32408.89482.4543 1.06663a2.847 2.847 0 0 0 1.13981.8524 3.98752 3.98752 0 0 0 3.32179.04681l.05736-.001c.70674.00012 1.20455.56151 1.94022.56151a2.34263 2.34263 0 0 0 1.29694-.39867 8.31463 8.31463 0 0 0 1.52271-1.113c.64731.13574 1.53773.28124 2.82472.4785.6409.09881 1.27857.266 1.90989.36932a6.06893 6.06893 0 0 0 2.67485-.4135c1.55811-.467 3.24906-1.03141 4.11763-2.40693a3.4217 3.4217 0 0 0 .50977-1.48349.414.414 0 0 1 .07676-.248.38086.38086 0 0 1 .28436-.08459 7.561 7.561 0 0 1 3.95989 1.35776 3.0537 3.0537 0 0 0 3.53421-.90129c.41317-.41863.89829-.37035 1.44327-.57036a4.42968 4.42968 0 0 0 1.39811-.90275c.61784-.537 1.62047-.18847 2.32294-.06427a3.25172 3.25172 0 0 0 2.16038-.245c1.40128-.68126 2.39067-2.13521 3.99174-2.41456 1.28833-.22479 2.25051-1.13706 3.48551-1.47653a4.79426 4.79426 0 0 0 2.1353-1.40335c.214-.21453 1.19814-1.39816 1.522-1.414a2.67837 2.67837 0 0 0 2.36761-1.95894 2.31837 2.31837 0 0 0 -.73239-2.75716zm-8.49685-15.132.002.00293c-.01562-.01855-.0332-.03711-.04979-.05469.01849.0195.03704.03903.04778.05173zm-92.25475-2.81345a1.49461 1.49461 0 0 1 -.164.0459q.08787-.02344.164-.0498zm.12107-.04492-.001-.002a1.43546 1.43546 0 0 0 .13278-.06055c-.04489.02349-.08883.044-.13179.06255z"/></svg>
