<svg id="Layer_1" enable-background="new 0 0 283.465 283.465" height="512" viewBox="0 0 283.465 283.465" width="512" xmlns="http://www.w3.org/2000/svg"><g id="Layer_1_28_"><path clip-rule="evenodd" d="m102.089 196.437s3.152 7.567 2.522 23.332c-.63 15.766 1.893 26.486-2.522 34.053-4.414 7.567-3.784 22.702-3.784 22.702s17.026-10.72 21.44-9.459c4.415 1.261 10.72 11.351 21.44 8.198s20.811-11.351 20.811-11.351-10.09-5.044-3.784-18.918c6.306-13.873 20.81-25.854 22.071-30.269 1.261-4.414-16.396-12.613-15.135-20.18s16.396-19.548 16.396-19.548-19.548-21.441-21.44-27.747 13.872-11.981 13.872-11.981 12.613-15.135 11.352-19.549-6.937 3.783-6.307-11.351c.631-15.134 6.307-23.332 3.784-32.791s15.134-18.918 15.134-18.918l7.569-17.657-13.243-6.306s.947-13.243-2.837-13.243-17.657 0-19.234.631-4.729 4.414-8.513 6.621-8.829-3.784-16.08-2.207c-7.252 1.577-11.981 4.73-16.395 3.469-4.415-1.261 3.468-11.351 3.468-11.351s-11.351-7.252-13.243-5.361c-1.891 1.892-14.188 5.676-16.711 8.514s-.631 16.395.631 18.287c1.261 1.892 5.99 22.387 6.621 29.639s-1.577 26.485-3.153 30.269-5.045 25.856-9.774 33.738-5.045 17.657-10.09 21.756c-5.044 4.099-11.666 23.645-7.883 34.997 3.783 11.351 5.044 15.765 8.828 14.504 3.785-1.263 14.189-2.523 14.189-2.523z" fill-rule="evenodd"/></g></svg>
