<?xml version="1.0" encoding="utf-8"?>
<!-- Generator: Adobe Illustrator 27.8.0, SVG Export Plug-In . SVG Version: 6.00 Build 0)  -->
<svg version="1.1" id="Layer_1" xmlns="http://www.w3.org/2000/svg" xmlns:xlink="http://www.w3.org/1999/xlink" x="0px" y="0px"
	 viewBox="0 0 512 512" style="enable-background:new 0 0 512 512;" xml:space="preserve">
<path d="M499.3,176l-1.5-5.1c-1.1-3.6-3.8-6.5-7.3-7.8c-3.5-1.3-7.4-0.9-10.6,1.1l-4.1,2.5c-1.4,0.9-2.7,2.1-3.6,3.5l-16.6,25
	c-0.6-3.4-2.6-6.5-5.7-8.3l-6.7-4l-4.1-3.6l-7.9-47.5c-0.7-4.4-3.8-8-8.1-9.4l-14.5-4.8l-5.8-8.4c-1.7-2.5-4.4-4.3-7.4-4.9
	l-61.2-12.9L322,86.3c-0.5-0.2-1-0.4-1.6-0.5l-41.6-11.2c-0.5-0.1-0.9-0.2-1.4-0.3l-36.7-5.4L223.5,46c-2.5-3.3-6.5-5-10.5-4.8
	c-1.4,0.1-2.8,0.5-4,1c-1-0.7-2.1-1.2-3.3-1.6L192,36.6c-0.9-0.3-1.8-0.4-2.7-0.5l1.7-2.8l4.6-4.6c2.4-2.4,3.7-5.8,3.5-9.2
	c-0.2-3.4-1.9-6.6-4.6-8.7l-9.6-7.6c-3.3-2.6-7.8-3.3-11.8-1.8l-10.6,4.1c-0.8,0.3-1.6,0.7-2.3,1.2l-13.8,9.1l-35.4,15.3l-11.3,2.3
	l-9.8-1.7l-2.9-2c-5.1-3.6-12-2.7-16,2L58.7,45.9c-1.7,2-2.7,4.4-2.9,7l-1,14.2c0,0.4,0,0.8,0,1.1l0.9,36.5l-4.2,5l-25.2,18.4
	c-2,1.5-3.5,3.5-4.3,5.9l-9.1,27.4c-1.4,4.1-0.4,8.6,2.4,11.8l10.7,12l2.3,9.1l-5.7,11.8c-0.7,1.5-1.2,3.2-1.2,4.9l-0.5,19.3
	c0,0.4,0,0.8,0,1.2l2.5,33c0.2,2.6,1.2,5.1,3,7l14.7,16.7c2.3,2.6,5.6,4.1,9,4.1h10.4L68,302c1.5,2,3.7,3.4,6.1,4.1l13.2,3.9
	l16.8,23.9c0.9,1.3,2,2.4,3.3,3.2l34,21.8l7,8.4l2.7,30.7c0,0.6,0.2,1.2,0.3,1.8l4.1,16.7c0.5,2.1,1.5,3.9,3,5.5l8.2,8.6l-6.4,9.2
	c-1.6,2.3-2.3,5.1-2.1,7.8l1.5,18.2c0.2,1.9,0.8,3.7,1.8,5.4l11.7,18.8c1.2,1.9,2.8,3.4,4.8,4.4l13.2,6.6c1.2,0.6,2.4,1,3.7,1.2
	l8.2,1.1l0.8,1.7c2,4.2,6.2,7,10.9,7h64.4c0.2,0,0.5,0,0.7,0l89.4-5.1l80.6-9.1c5.8-0.7,10.3-5.4,10.7-11.2l1-15.2
	c0.1-1.6-0.1-3.3-0.7-4.8l-7.6-21.4l-2.9-29.5c-0.1-1.3-0.5-2.6-1-3.8l-3.6-7.9l3.8-11.8l3.6-13.2l6.8-11.9c1.4-2.4,1.9-5.3,1.4-8.1
	l-5.6-32.7l1.2-4.2l8.1-10.3c1.5-1.9,2.4-4.2,2.6-6.6l1-13.7c0.2-2.5-0.4-5-1.8-7.2l-1.5-2.4l1.9-8.4c0.1-0.3,0.1-0.6,0.2-0.9
	l2.3-14.5l13.1-27.8l14.7-34.5c0.5-1.2,0.8-2.4,0.9-3.7l1-11.7C499.9,179,499.7,177.5,499.3,176L499.3,176z"/>
</svg>
