<svg id="Layer_1" enable-background="new 0 0 65 65" height="65" viewBox="0 0 65 65" width="65" xmlns="http://www.w3.org/2000/svg"><path d="m62.804 22.5-.189-.632c-.134-.448-.47-.808-.908-.973s-.927-.117-1.324.132l-.506.316c-.18.113-.334.263-.452.439l-2.073 3.111c-.07-.42-.318-.805-.708-1.039l-.832-.5-.507-.443-.986-5.911c-.091-.548-.478-1.001-1.005-1.177l-1.803-.601-.726-1.043c-.218-.314-.548-.533-.921-.612l-7.629-1.612-1.51-.639c-.063-.027-.129-.049-.195-.067l-5.179-1.39c-.057-.015-.113-.027-.172-.036l-4.57-.668-2.156-2.857c-.307-.406-.805-.628-1.307-.592-.176.013-.346.057-.503.127-.125-.085-.265-.151-.413-.195l-1.706-.506c-.11-.033-.224-.053-.337-.06l.213-.345.57-.57c.303-.303.462-.721.437-1.148-.025-.428-.232-.824-.568-1.089l-1.2-.947c-.415-.327-.971-.412-1.464-.224l-1.326.506c-.101.038-.197.087-.287.146l-1.724 1.129-4.415 1.909-1.402.29-1.222-.211-.357-.25c-.633-.443-1.497-.333-1.998.253l-1.517 1.769c-.209.244-.334.549-.357.87l-.127 1.768c-.003.048-.004.095-.003.143l.112 4.548-.528.627-3.139 2.294c-.251.184-.439.441-.538.737l-1.137 3.411c-.17.51-.054 1.072.304 1.473l1.333 1.492.284 1.134-.711 1.469c-.093.191-.144.401-.149.614l-.063 2.4c-.001.052 0 .103.004.155l.316 4.105c.025.324.154.631.369.875l1.832 2.085c.284.324.694.51 1.125.51h1.292l.939 1.196c.193.245.458.425.757.513l1.646.483 2.099 2.981c.111.158.252.294.415.398l4.231 2.721.876 1.042.338 3.826c.006.075.019.148.037.222l.505 2.084c.062.256.19.492.373.683l1.021 1.068-.792 1.149c-.197.285-.289.631-.26.977l.189 2.273c.02.236.095.465.221.667l1.453 2.338c.146.235.355.426.604.55l1.642.82c.146.073.303.122.464.144l1.024.143.097.207c.247.528.776.866 1.359.866h8.022c.028 0 .058-.001.086-.003l11.137-.64 10.044-1.137c.721-.081 1.279-.667 1.328-1.391l.126-1.895c.014-.204-.016-.409-.084-.603l-.949-2.668-.359-3.671c-.017-.166-.061-.327-.13-.479l-.452-.986.471-1.464.454-1.647.853-1.478c.176-.305.238-.663.178-1.01l-.701-4.079.146-.525 1.012-1.278c.186-.235.297-.521.319-.819l.127-1.705c.023-.314-.053-.629-.219-.897l-.184-.298.241-1.041c.008-.035.015-.07.021-.106l.282-1.808 1.637-3.458 1.832-4.295c.062-.146.101-.3.114-.458l.127-1.453c.015-.187-.005-.378-.059-.559z"/></svg>
