<svg width="1186" height="920" viewBox="0 0 1186 920" fill="none"
xmlns="http://www.w3.org/2000/svg">
<path d="M667.4 738.21C667.29 738.44 667.1 738.87 667.07 738.86C666.65 738.72 666.24 738.51
665.84 738.33C665.95 738.1 666.13 737.67 666.17 737.68C666.59 737.82 667 738.02 667.4 738.21Z"
fill="black"/>
<path d="M290.59 482.48C288.34 483.05 286.09 483.62 283.7 484.22C283.49 488.23 283.31 491.85
283.12 495.45C272.11 500.53 266.96 491.51 260.12 486.61C258.39 485.37 255.73 483.66 254.27
484.21C252.39 484.92 249.82 487.95 250.11 489.53C251.92 499.69 247.25 502.59 238.05
501.94C234.78 501.71 231.41 502.74 227.89 503.22C226.41 495.18 225.06 487.9 223.72
480.62C223.01 480.69 222.3 480.76 221.6 480.84C221.98 486.17 221.88 491.59 222.85
496.81C224.17 503.87 223.51 508.83 213.28 508.32C209.41 502.2 205.09 495.36 199.88
487.12C199.84 487.13 195.71 487.77 195.7 488.42C195.68 492.89 195.61 497.76 197.36
501.7C198.95 505.27 202.82 507.83 206.57 511.76C200.71 516.79 195.1 521.6 190.25 525.77C182.02
519.48 174.44 513.69 166.86 507.91L167.32 507.79C165.03 505.39 162.96 501.34 160.4
500.99C157.05 500.54 153.2 503.32 151.63 497.23C156.8 491.08 162.22 484.63 167.64
478.18C167.14 477.63 166.64 477.09 166.13 476.54C160.84 481.11 155.55 485.69 150.07
490.43C147.77 487.88 145.19 485.02 142.41 481.95C146.15 477.71 149.82 473.99 152.89
469.83C153.92 468.43 153.45 465.92 153.66 463.92C151.92 464.29 149.85 464.2 148.51
465.14C146.19 466.78 143.76 468.74 142.37 471.15C138.26 478.27 132.12 473.73 127 473.78C125.95
473.79 124.85 468.63 123.38 464.85C120.84 468.36 118.63 471.4 117.45 473.02C128.52 493.2 139.29
512.34 149.54 531.76C154.5 541.15 149.48 548.4 138.83 548.34C133.51 548.31 128.19 548.34 122.16
548.34C124.56 551.46 127.9 553.85 128.1 556.48C128.55 562.31 129.29 568.34 120.77 571.1C111.38
574.15 102.85 579.8 93.7404 583.86C87.7804 586.51 84.9404 590.09 87.3604 595.89C82.4704 599.32
75.4704 601.7 73.9904 605.98C72.5004 610.3 76.4804 616.51 78.3904 623.03C75.3204 621.06
73.1104 618.59 70.7604 618.44C68.3104 618.28 65.7104 620.36 63.1804 621.45C58.9304 612.03
61.1404 605.56 69.3904 599.75C73.2504 597.03 76.7304 593.24 79.2204 589.22C83.6404 582.09
79.5604 575.07 71.0104 574C64.1704 573.147 58.627 575.18 54.3804 580.1C55.4804 574.57 55.1804
569.87 62.4304 570.46C76.4304 571.6 77.3504 570.08 71.4104 557.36C70.8904 556.24 69.9304
555.33 68.3204 553.18C72.1804 554.09 74.7904 554.71 78.3404 555.54C80.9104 548.46 83.5304
541.22 86.1504 533.99C86.6304 534.15 87.1204 534.32 87.6004 534.48C87.6004 533.96 87.8204
533.26 87.5704 532.96C76.5504 520.18 79.5904 507.66 85.7904 493.37C94.6604 472.96 100.9 451.41
108.43 430.4C111.91 420.69 115.78 411.11 117.73 401.51C117.26 397.49 115.86 393.25 116.72
389.53C117.16 387.62 121.64 386.64 124.69 385.03C131.67 373.48 139.25 361.06 146.67
348.54C148.71 345.1 149.34 339.68 152.22 338.11C158.91 334.46 161.68 328.58 164.72
322.47C169.16 313.54 174.25 304.9 178.06 295.72C179.76 291.63 178.87 286.52 179.4 281.9C180.22
274.79 178.78 267.15 184.09 261.02C184.74 260.27 185.04 258.44 185.54 258.42C198.99 257.96
197.95 246.12 201.47 238.04C202.94 234.68 203.63 230.87 204.09 227.2C204.81 221.5 212.04 214.36
217.72 213.18C222.33 212.23 228.55 211.44 230.78 208.28C235.21 202 242.16 204.94 246.63
201.86C256.04 195.4 265.2 188.3 273.33 180.31C283.82 169.99 295.61 163.19 310.33 162.43C312.41
162.32 314.67 165.69 317.48 167.97C327.14 163.54 329.34 163.99 338.56 173.27C339.86 174.57
341.03 176.19 342.61 176.99C347.34 179.38 347.37 182.47 346.85 187.58C346.19 194.06 348.53
200.83 349.44 207.5C349.81 210.2 349.82 212.95 350.01 216H357.68C346.23 226.54 336.32 236.39
325.6 245.27C318.42 251.22 308.58 250.32 301.63 244.23C297.24 240.38 295.25 243.3 292.22
247.64C294.82 246.64 296.35 246.05 298.44 245.25C299.14 248.8 299.81 252.2 300.56 256C306.31
254.96 311.77 250.71 316.86 256.32C318.07 257.66 321.34 258.69 321.21 259.44C319.96 266.73
318.19 273.93 316.5 281.48C316.41 281.47 318.22 281.75 322.55 282.41C317.17 287.23 313.22
290.76 309.27 294.29C309.64 294.85 310 295.4 310.37 295.96C315.11 292.56 321.3 290.08 324.18
285.51C327.03 280.99 326.55 274.36 327.76 267.35C340.19 274.41 340.1 285.76 342.23
295.89C348.21 285.25 346.75 276.83 338.11 268.71C333.93 264.78 330.5 260.04 325.8
254.57C335.04 248.96 343.48 245.01 350.4 239.24C356.01 234.57 359.44 227.39 364.47
221.91C371.88 213.84 371.59 206.59 364.2 198.72C362.07 196.45 361.51 192.71 359.13
187.03C364.58 188.44 368.26 188.54 370.88 190.26C376.03 193.64 380.27 194.24 386.57
192.12C392.66 190.07 399.99 191.67 406.79 191.67C409.94 186.82 409.41 178.64 418.23
180.02C418.4 180.05 418.69 179.86 418.8 179.7C435.34 154.99 464.12 146.22 486.02 128.43C498.47
118.31 515.04 119.69 530.36 119.37C533.39 119.31 536.48 121.41 540.17 122.74C536.37 126.31
533.43 129.06 530.49 131.82C535.91 130.93 541.71 123.25 545.04 135.21C547.71 131.17 549.95
127.79 552.39 124.11C557.24 126.76 561.79 129.25 566.64 131.9C565.32 135.31 564.14 138.35
562.96 141.38C563.42 141.72 563.87 142.06 564.33 142.4C565.5 140.76 566.33 138.56 567.92
137.63C570.23 136.26 574.01 134.26 575.55 135.19C585.14 140.98 594.39 147.38 603.51
153.91C605.67 155.46 606.9 158.29 608.51 160.46C602.05 166.607 596.964 165.81 593.25
158.07C593.74 163.43 594.14 167.75 594.57 172.51C599.67 171.05 604.06 169.4 608.6
168.68C610.38 168.4 613.8 169.79 614.2 171.11C615.25 174.59 615.95 178.67 615.07 182.08C614.38
184.79 611.15 186.84 609.02 189.22C609.52 189.43 610.08 189.89 610.36 189.76C613.44 188.36
618.52 184.98 619.18 185.7C623.68 190.6 628.74 195.92 630.48 202.01C631.38 205.19 625.91 210.2
623.27 214.36C622.06 216.27 620.72 218.09 619.22 220.27C625.21 224.08 629.86 227.33 636.96
222.63C642.17 219.18 652.94 224.03 657.55 229.63C661.6 234.53 666.11 239.06 669.87
243.15C683.21 235.71 691.63 250.53 703.55 246C703.44 255.12 697.87 259.21 692.79 262.48C685.49
267.17 681.1 272.62 680.94 281.6C680.89 284.44 678.46 287.25 676.96 290.41C685.5 290.68 687.35
285.44 687.48 278.67C687.59 273.09 687.83 268.11 696.08 269.91C697.59 270.24 700.7 266.47
701.96 264.02C705.53 257.1 708.39 249.83 711.81 242.83C712.8 240.79 714.36 238.19 716.24
237.56C724.92 234.63 733.81 232.3 742.6 229.76C744.43 239.18 744.52 248.17 748.04
255.51C751.75 263.24 758.74 269.4 764.64 276.68C759.11 286.47 753.34 296.69 747.58
306.9C747.84 307.04 748.09 307.18 748.35 307.31C752.34 302.27 756.26 297.18 760.35
292.23C761.67 290.64 763.35 289.29 765.05 288.11C779.64 278.01 786.99 272.73 797.22
292.4C803.97 305.37 817.05 310.25 829.15 316.15C838.1 320.52 847.61 320.07 857.23
318.61C859.88 318.21 862.8 319.59 866.62 320.35V314.14C871.79 311.23 876.9 308.36 882.58
305.16C880.07 299.49 884.37 296.65 889.95 295.08C893.45 294.1 897.35 293.05 900.8 293.64C909.1
295.06 917.42 294.46 925.88 296.9C940.44 301.09 945.9 311.18 950 323.93C951.66 329.11 955.36
333.63 958.13 338.46C958.72 338.01 959.3 337.56 959.89 337.11C958.22 339.48 956.54 341.86
954.52 344.73C959.84 347.23 963.82 351.92 968.95 345.74C969.5 345.07 972.72 346.04 974.31
346.94C977.28 348.63 979.72 351.49 982.84 352.65C987.15 354.26 992.34 353.84 996.34
355.88C1007.42 361.54 1018.08 368.02 1028.51 374.86C1010.26 372.17 1009.65 372.4 1008.38
383.33C1010.7 384.18 1013.17 384.97 1015.54 386C1017.69 386.93 1019.72 388.13 1021.88
389.26C1020.95 394.9 1018.18 394.67 1014.08 392.69C1011.36 391.38 1008.16 391.04 1005.17
390.27C1004.92 390.95 1004.67 391.62 1004.42 392.3C1005.98 393.56 1007.55 394.82 1010.14
396.91C1006.57 396.63 1004.33 396.46 1002.55 396.32C999.05 403.48 995.84 410.05 992.61
416.68C996.47 419.34 1000.82 422.33 1005.17 425.32C1004.87 425.85 1004.57 426.37 1004.28
426.9C1000.05 425.06 995.81 423.22 990.8 421.04C987.54 428.81 984.26 436.62 980.73
445.03H1013.81C1014.39 451.62 1014.95 458.02 1015.61 465.47C1013.01 465.74 1010.34 466.01
1007.3 466.32C1006.86 463 1006.5 460.22 1006.08 457.02H992.43C995.21 463.74 989.61 471.8
996.16 476.26C994.247 476.273 992.964 472.903 992.31 466.15C980.58 466.86 968.47 464.21 958.07
473.05C951.66 478.5 944.7 480.38 936.35 475.96C927.56 471.3 918.01 469.83 908.53
474.68C906.164 466.287 899.504 463.267 888.55 465.62C888.23 462.77 887.91 459.95 887.38
455.32C886.73 459.24 886.36 461.45 886.09 463.09C876.81 464.57 867.83 465.6 859.06
467.59C854.67 468.59 850.86 471.97 846.49 473.18C835.25 476.32 823.81 478.75 812.51
481.67C808.03 482.83 803.66 484.44 799.31 486.04C796.41 487.1 793.52 490.67 791.06
485.4C790.87 484.99 788.55 484.88 788.32 485.26C782.54 495.3 771.56 491.77 763.17
494.82C742.77 502.24 721.83 508.2 701.66 516.15C692.18 519.88 683.95 526.79 675.2
532.34C669.71 535.81 664.31 539.42 658.57 543.17C646.75 533.84 640.16 521.69 638.31
505.93C648.42 505.41 657.87 504.93 667.32 504.44C667.26 503.85 667.2 503.25 667.14
502.66C664.1 502.66 660.9 503.24 658.06 502.47C655.83 501.87 653.54 499.96 652.17 498C650.23
495.23 649.12 491.88 647.14 487.69C654.52 482.48 646.06 475.34 645.56 468.09C643.61 475.21
651.83 485.84 637.93 489.03C643.25 494.26 642.82 498.25 637 502.07C635.3 503.19 634.71 506.55
634.38 508.99C634.11 510.97 635.08 513.1 635.35 515.18C636.9 527.15 635.79 527.84 624.11
526.71C619.21 526.24 614.1 528.33 609.04 528.92C607.04 529.15 604.93 528.45 603 528.2C603.22
531.4 605.65 532.43 610.29 531.29C611.26 535.94 612.23 540.62 613.21 545.3C614.18 545.34 615.15
545.37 616.13 545.41C618.71 541.06 621.29 536.72 624.33 531.6C632.81 533.25 641.69 535.77
648.11 543.48C652.13 548.31 652.56 552.7 646.6 556.66C641.35 560.15 636.41 564.09 631.37
567.89C625.45 572.35 620.49 569.44 615.74 565.81C612.65 563.44 609.8 560.76 605.6
557.14V588.76C600.94 584.24 596.77 580.2 592.6 576.16C591.91 576.7 591.22 577.23 590.53
577.77C591.95 580.43 593.38 583.09 594.8 585.75C594.45 586.18 594.1 586.6 593.76 587.03C590.75
584.59 587.63 582.25 584.73 579.68C576.52 572.4 566.24 570.81 556.99 577.06C548.24 582.98
539.36 585.41 529.25 582.44C526.59 581.66 523.93 580.4 521.71 578.76C518.48 576.39 515.92
573.58 512.05 578.2C511.12 579.31 507.72 578.37 504.66 578.37C503.92 579.57 502.38 582.08
500.67 584.89C494.98 579.77 489.88 574.92 484.49 570.42C481.42 567.85 478.76 563.56 473.39
566.7C472.52 567.21 470.17 565.43 468.61 564.52C458.68 558.74 448.78 552.91 438.58
546.93C433.47 555.41 428.47 563.7 423.27 572.32C421.16 571.23 419.29 570.38 417.54
569.34C404.04 561.29 390.56 553.2 377.18 545.19C381.82 533.57 387.84 529.28 399.57
537.71C405.31 541.84 411.64 545.15 417.72 548.81C418.15 549.07 418.67 549.16 419.95
549.62C422.08 546.04 424.29 542.33 426.77 538.18C418.11 532.81 409.91 527.71 401.5
522.49C402.99 519.52 404.27 516.97 405.88 513.74C403.95 511.71 402.09 509.11 399.66
507.3C393.29 502.55 390.17 496.04 387.39 488.82C386.05 485.33 382.28 481.38 378.83
480.4C373.05 478.76 370.17 476.55 371.22 470.36C370.07 474.77 368.93 479.18 367.65 484.1C367.4
483.88 367.86 484.56 368.14 484.49C380.52 481.53 383.28 483.07 387.41 495.59C388.63 499.3
389.59 503.09 390.67 506.85C376.92 512.29 364.96 509.68 361.69 500.5C351.46 506.47 330.9 500.53
329.72 490.65H338.85C336.22 488.84 335.35 487.93 334.3 487.57C324.86 484.36 323.35 479.06
328.87 470.29C332.46 464.59 336.32 458.75 338.35 452.43C342.88 438.32 341.39 436.56 326.32
436.39C329.37 437.11 332.43 437.83 336.24 438.73C340.9 444.14 336.46 448.87 333.61
454.06C327.26 465.61 321.21 477.32 314.22 490.49H323.71C324.51 493.17 325.29 495.8 326.37
499.42C316.93 498.43 311.86 492.23 305.58 487.94C301.12 484.89 295.61 483.36 290.55
481.18C290.54 481.18 290.27 481.57 290.27 481.79C290.27 482.03 290.42 482.28 290.51
482.53V482.51L290.59 482.48ZM721.54 308.06C724.49 314.37 727.97 319.19 721.03 322.9C720.44
323.22 720.91 327.71 722.13 328.66C723.69 329.86 726.51 329.41 728.79 329.68C728.87 328.97
728.95 328.27 729.03 327.56C726.94 327.2 724.85 326.84 722.96 326.51C724.54 323.71 727.02
321.36 726.94 319.09C726.7 312.02 730.18 310.48 736.21 311.19C738.55 311.47 740.94 311.23
743.31 311.23C743.31 310.62 743.32 310.01 743.33 309.4C736.53 308.98 729.74 308.56 721.53
308.06H721.54ZM333.17 409.74C330.25 403.47 320.63 401.33 313.93 405.05C317.66 410.17 326.38
412.45 333.17 409.74Z" fill="black"/>
<path d="M1111.84 268.43C1117.55 266.88 1123.26 265.32 1130.35 263.39C1128.02 273.27 1125.85
282.52 1123.65 291.76C1123.53 292.25 1122.88 292.69 1122.91 293.12C1123.89 307.06 1113.32
309.66 1103.5 313.54C1090.1 318.83 1076.96 324.77 1063.74 330.49C1056.75 333.52 1054.67 331.95
1053.71 324.49C1053.21 320.64 1051.26 316.69 1049.04 313.4C1043.94 305.83 1038.28 298.63
1031.84 289.92C1037.16 291.05 1040.9 291.85 1044.64 292.65C1044.74 292.24 1044.84 291.84
1044.95 291.43C1043.26 290.86 1041.61 290.08 1039.88 289.75C1033.42 288.54 1027.8 287.36
1025.55 279.24C1024.56 275.65 1019 272.93 1015.05 270.61C1005.08 264.77 1004.5 262.35 1009.56
252.1C1011.01 249.16 1010.51 244.88 1009.91 241.39C1009.08 236.52 1006.99 231.88 1006.07
227.02C1005.27 222.77 1006.7 221.05 1011.81 222.23C1025.59 225.43 1034.72 220.55 1038.51
208.41C1042.8 209.7 1047.34 210.44 1051.29 212.38C1057.73 215.54 1061.81 214.38 1066.97
209.04C1069.11 206.83 1076.99 208.34 1081.24 210.33C1094.33 216.49 1109.26 219.72 1118.85
231.99C1123.96 238.52 1129.42 244.86 1133.7 251.9C1134.64 253.44 1132.04 259.03 1129.74
260.28C1124.13 263.33 1117.73 264.93 1111.64 267.12C1111.71 267.56 1111.77 268 1111.84
268.43Z" fill="black"/>
<path d="M290.59 482.5C292.5 484.3 294.28 486.27 296.35 487.86C301.46 491.79 306.71 495.54
311.91 499.37C311.47 500.27 311.03 501.18 310.59 502.08C304.24 502.44 297.9 502.79 290.98
503.18C290.98 506.19 290.96 509.05 290.98 511.92C291.03 518.94 296.22 523.51 302.8
522.34C315.72 520.04 318.3 522.81 323.86 534.54C326.84 540.82 334.25 545.17 340.1
549.86C344.83 553.65 350.2 556.64 355.37 560.03C349 568.39 341.5 570.94 333.43 568.51C326.197
566.33 321.27 566.853 318.65 570.08C320.81 573.11 324.71 576.25 324.18 578.24C322.49 584.67
312.55 590.75 308.82 588.54C302.74 584.95 296.78 581.12 291.05 577.01C289.34 575.78 288.56
573.27 287.62 571.78C285.23 571.94 282.48 571.48 280.36 572.43C278.15 573.41 276.55 575.74
273.82 578.28C282.13 583.28 289.17 587.52 298.68 593.25C283.45 600.15 270.32 606.1 256.22
612.5C252.7 600.69 249.57 590.19 246.49 579.85C241.74 578.32 236.18 576.52 229.1 574.24C226.92
576.31 223.24 579.79 218.62 584.16C222.56 587.09 225.7 589.41 228.58 591.55C221.22 605.04
214.55 617.25 207.6 629.97C198.97 631.36 187.02 624.77 182.87 616.27C180.03 610.45 176.35
605.04 173.13 599.39C172.53 598.33 172.44 596.99 171.97 595.84C171.04 593.56 170.62 590.57
168.91 589.2C163.22 584.6 163.04 579.82 164.73 572.91C166.62 565.16 172.28 562.24 177.66
558.55C191.95 548.75 206.54 539.37 220.71 529.4C230.69 522.39 241.56 522.19 254.33
523.41C245.63 534.57 237.58 544.9 229.11 555.76C231.41 557.87 234.23 560.45 237.73
563.67C240.65 560.15 243.38 556.86 246.37 553.26C247.98 554.99 249.35 556.47 250.75
557.97C254.95 550.23 259.11 542.56 263.28 534.89C264.28 535.05 265.28 535.22 266.29
535.38C268.54 539.35 270.66 543.4 273.07 547.26C275.35 550.9 277.94 554.35 280.92
558.63C284.11 555.75 286.31 553.77 289.61 550.79C279.42 548.88 280.02 542.18 279.3
535.29C278.89 531.32 275.02 527.72 272.61 523.79C276.34 517.24 282.2 517.43 290.62
521.04C290.62 507.28 290.62 494.89 290.62 482.49V482.5H290.59Z" fill="black"/>
<path d="M774.08 224.34C777.33 222.29 780.74 220.52 783.7 218.19C788.02 214.79 792.31 214.55
797.36 216.46C804.34 219.11 811.57 221.11 818.62 223.58C820.02 224.07 821.46 225.22 822.3
226.46C829.65 237.25 840.36 238.25 851.96 236.97C862.42 235.82 872.13 231.12 883.63
235.53C891.47 238.53 901.31 236.28 910.26 236.42C919.37 236.56 922.62 241.52 919.77 249.88C919
252.15 920.28 255.11 920.66 258.05C912.5 259.58 904.04 263.29 894.33 259.89C891.25 258.81
883.48 261.99 882.95 264.37C880.53 275.19 871.08 270.69 865.35 273.8C864.25 274.39 862.85
274.44 861.57 274.68C856.77 275.58 850.47 278.76 847.51 276.83C842.26 273.41 838.88 266.99
835.1 261.56C834.36 260.49 835.36 258.22 834.26 256.05C833.62 258.54 832.97 261.03 832.29
263.66C831.36 263.58 830.12 263.8 829.9 263.42C822.16 250.06 807.08 248.81 795.29
242.11C787.25 237.54 776.42 235.75 774.07 224.35L774.08 224.34Z" fill="black"/>
<path d="M397.94 686.66C400.17 691.76 402.39 696.87 404.8 702.37C405.03 702.31 406.34 701.54
406.87 701.9C417.3 709.04 427.04 702.91 436.98 700.52C443.66 698.91 446.76 701.59 447.04
708.51C447.41 717.71 448.07 726.67 436.44 729.97C435.18 730.33 433.64 732.75 433.7
734.16C433.96 740.87 429.38 743.96 424.71 746.93C419.71 750.1 414.84 750.06 410.46
745.53C408.27 743.27 406.07 741 403.69 738.95C399.26 735.14 398.7 731.51 402.97 726.99C405.04
724.79 406.03 721.58 406.06 717.93C403.39 719.36 400.71 720.78 395.52 723.55C395.52 715.46
395.36 709.06 395.57 702.68C395.74 697.41 396.35 692.15 396.76 686.88C397.16 686.81 397.55
686.73 397.95 686.66H397.94Z" fill="black"/>
<path d="M504.59 590.61C511.98 591.9 517.18 594.02 522.01 593.39C531.58 592.13 538.83 596.26
546.31 600.85C548.25 602.04 550.73 602.69 553.02 602.9C561.4 603.67 569.83 603.94 578.19
604.87C580.49 605.13 582.62 607.01 585.07 608.27C589.1 607.86 593.87 607.38 598.64
606.9C598.93 607.75 599.22 608.6 599.51 609.45C595.11 615.81 590.71 622.16 585.03
630.36C584.44 624.8 584.09 621.53 583.74 618.26L581.34 618.08C581 621.77 579.58 625.78 580.56
629.08C582.02 634 579.12 635.3 576.1 636.69C566.89 640.92 563.48 639.94 556.45 632.05C555.14
630.58 553.03 629.86 551.38 628.66C549.03 626.95 546.53 625.34 544.53 623.27C541.58 620.21
538.23 613.62 536.41 614.06C529.64 615.73 528.46 609.93 524.83 607.6C520.15 604.6 515.22 601.94
510.73 598.68C508.79 597.27 507.65 594.74 504.58 590.61H504.59Z" fill="black"/>
<path d="M341.27 716.74C319.85 719.54 300.3 720.44 280.53 714.56C288.85 703.19 299.28 696.69
312.63 695.19C314.01 695.04 316.35 695.57 316.82 696.5C320.12 702.97 324.87 702.76 331.95
698.25C329.85 701.96 328.88 703.67 327.72 705.71C331.93 709.13 336.07 712.5 341.27
716.73V716.74Z" fill="black"/>
<path d="M678.15 235.86C674.66 235.65 670.25 236.72 667.86 234.99C659.79 229.15 652.44 222.32
644.78 215.84C658.8 201.83 678.38 204.79 687.79 221.3C684.58 226.15 681.37 231.01 678.16
235.86H678.15Z" fill="black"/>
<path d="M234.57 603.31C235.08 608.17 234.81 613.28 236.25 617.85C239.9 629.43 234.21 634.48
224.49 638.62C222.16 639.61 222.01 645.7 220.65 650.11C223.63 650.81 225.42 651.23 228.13
651.87C219.47 660.23 211.46 667.97 203.44 675.7C211.7 664.3 223.13 654.93 212.91 641.3C216.02
637.29 218.81 634.95 219.94 631.97C223.6 622.4 226.64 612.59 229.92 602.87C231.47 603.01 233.02
603.16 234.57 603.3V603.31Z" fill="black"/>
<path d="M441.56 669.81C435.05 669.26 429.63 670.27 426.24 662.69C424.65 659.12 417.99 656.67
413.27 655.89C403.01 654.19 400.02 652.02 398.91 641.99C398.24 635.91 402.59 631.93 407.32
635.42C420.18 644.9 434.91 652.88 441.56 669.82V669.81Z" fill="black"/>
<path d="M678.15 235.86C681.36 231.01 684.57 226.15 687.78 221.3C694.73 224.88 702.02 227.94
708.48 232.26C711.94 234.58 709.78 241.8 705.88 243.4C700.87 245.46 682.53 240.48 678.15
235.86Z" fill="black"/>
<path d="M585.19 595.35C580.01 597.4 575.49 600.38 570.78 600.71C566.51 601.01 562.01 598.47
557.65 597.09C553.28 595.7 548.95 594.18 543.29 592.28C561.2 578.9 571.23 578.18 585.19
595.35Z" fill="black"/>
<path d="M987.21 226.48C992.9 231.91 998.81 237.55 1004.62 243.08C999.02 247.08 995.53 251.38
991.47 252.01C986.89 252.73 980.53 251.59 977.22 248.67C971.86 243.94 979.29 239.87 980.67
235.42C981.65 232.25 984.73 229.73 987.22 226.48H987.21Z" fill="black"/>
<path d="M74.8701 674.65C69.5201 676.94 65.9601 678.47 62.4001 679.99C65.6601 681.88 68.7701
684.17 72.2301 685.57C76.2901 687.22 80.6701 688.11 84.4901 690.96C75.0201 688.37 65.3901
686.25 56.2001 682.9C53.5201 681.92 52.1001 677.47 51.3901 673.57C53.1801 676.4 54.9601 679.24
57.0201 682.49C58.8001 680.57 59.4901 680.14 59.4401 679.83C57.4601 667.77 63.6501 662.18
74.6301 659.75C76.9901 659.23 78.8901 656.57 80.8801 654.99C83.5601 659.99 83.2401 659.75
78.7901 665.66C76.5301 668.67 75.6701 672.74 74.8801 674.63L74.8701 674.65Z" fill="black"/>
<path d="M356.77 782.43C355.5 787.93 354.85 792.72 353.16 797.11C352.53 798.75 349.36 800.57
347.56 800.37C341.64 799.73 336.7 797.25 334.45 790.89C333.56 788.38 331.32 786.35 329.36
783.64C332.46 779.96 336.13 778.26 342.14 780.57C346.81 782.36 352.33 781.94 356.78
782.43H356.77Z" fill="black"/>
<path d="M304.36 756.69C311.88 755.05 316.224 751.363 317.39 745.63C322.45 746.29 327.64
746.79 332.74 747.79C333.75 747.99 334.38 750.1 335.19 751.33C332.91 752.46 330.63 753.6 327.77
755.02C327.55 756.41 327.2 758.7 327 759.99C320.4 762.48 314.11 764.85 307.36 767.39C306.51
764.36 305.44 760.54 304.36 756.69Z" fill="black"/>
<path d="M369.04 640.58C372.27 641.72 375.31 642.14 377.4 643.78C378.46 644.61 378.59 648.97
377.81 649.42C373.58 651.83 369.04 654.62 364.38 655.07C361.4 655.36 358.05 651.86 354.87
650.05C356.57 648.15 357.97 645.77 360.05 644.45C362.79 642.71 366.06 641.81 369.05
640.57L369.04 640.58Z" fill="black"/>
<path d="M424.52 666.09C420 667.29 416.69 668.56 413.29 668.95C410.77 669.24 408.02 668.7
405.55 667.96C402.3 666.99 396.32 669.01 397.31 662.51C398.13 657.17 401.91 657.36 406.85
658.02C412.77 658.81 418.86 657.71 424.53 666.09H424.52Z" fill="black"/>
<path d="M63.9901 640.6C62.4001 635.64 67.6801 636.16 71.0501 635.48C76.0301 634.47 80.6501
633.5 81.4901 626.8C83.3601 631.05 86.8001 635.41 86.5001 639.5C86.3101 641.98 80.3201 644.02
78.7401 645.06C73.8301 643.58 69.6101 642.3 63.9901 640.61V640.6Z" fill="black"/>
<path d="M771.37 264.03C764.58 256.45 757.46 248.5 749.21 239.29C760.32 243.02 782.5 264.4
783.53 271.02C779.65 268.79 775.7 266.52 771.37 264.02V264.03Z" fill="black"/>
<path d="M474.17 701C481.14 708.45 487.9 715.68 494.97 723.24C480.09 723.15 469.73 712.2
474.17 701Z" fill="black"/>
<path d="M605.14 679V692.57C599.54 687.28 593.82 681.88 587.39 675.8C595.43 670.17 599.51
680.67 605.14 679Z" fill="black"/>
<path d="M263.05 502.26H253.62C253.05 497.26 252.5 492.37 251.9 487.08C262.36 489.76 265.77
494.79 263.06 502.26H263.05Z" fill="black"/>
<path d="M608.03 665.48C613.11 669.71 618.19 673.94 623.31 678.2C621.58 680.97 620.35 682.95
618.25 686.33C613.69 680.15 609.42 674.34 605.14 668.54C606.1 667.52 607.07 666.5 608.03
665.48Z" fill="black"/>
<path d="M623.14 166.04C628.68 174.24 634.22 182.44 639.76 190.63C638.82 191.26 637.87 191.9
636.93 192.53C626.76 187.63 626.12 176.15 621.59 167.35C622.11 166.91 622.63 166.47 623.15
166.03L623.14 166.04Z" fill="black"/>
<path d="M392.62 660.47C386.807 653.277 387.207 647.777 393.82 643.97C396.65 649.51 399.39
654.95 392.62 660.47Z" fill="black"/>
<path d="M818.98 259.47C825.26 265 831.53 270.54 837.81 276.07C837.12 276.83 836.44 277.6
835.75 278.36C829.41 272.83 823.07 267.31 816.73 261.78C817.48 261.01 818.23 260.24 818.98
259.46V259.47Z" fill="black"/>
<path d="M721.54 308.06C729.75 308.56 736.55 308.98 743.34 309.4C743.34 310.01 743.33 310.62
743.32 311.23C740.95 311.23 738.55 311.46 736.22 311.19C730.19 310.48 726.71 312.01 726.95
319.09C727.03 321.36 724.55 323.72 722.97 326.51C724.85 326.84 726.95 327.2 729.04
327.56C728.96 328.27 728.88 328.97 728.8 329.68C726.52 329.42 723.7 329.86 722.14
328.66C720.92 327.72 720.45 323.22 721.04 322.9C727.97 319.19 724.5 314.37 721.55
308.06H721.54Z" fill="white"/>
<path d="M333.17 409.74C326.38 412.45 317.66 410.17 313.93 405.05C320.63 401.33 330.25 403.47
333.17 409.74Z" fill="white"/>
</svg>