<?xml version="1.0" encoding="utf-8"?>
<!-- Generator: Adobe Illustrator 27.8.0, SVG Export Plug-In . SVG Version: 6.00 Build 0)  -->
<svg version="1.1" id="Layer_1" xmlns="http://www.w3.org/2000/svg" xmlns:xlink="http://www.w3.org/1999/xlink" x="0px" y="0px"
	 viewBox="0 0 512 512" style="enable-background:new 0 0 512 512;" xml:space="preserve">
<style type="text/css">
	.st0{fill:#FFFFFF;}
</style>
<g>
	<path d="M291.1,386.8c-0.1,0.1-0.1,0.3-0.2,0.3c-0.2-0.1-0.4-0.2-0.6-0.2c0.1-0.1,0.1-0.3,0.2-0.3
		C290.8,386.7,291,386.8,291.1,386.8z"/>
	<path d="M114,266.6c-1.1,0.3-2.1,0.5-3.2,0.8c-0.1,1.9-0.2,3.6-0.3,5.3c-5.2,2.4-7.6-1.9-10.8-4.2c-0.8-0.6-2.1-1.4-2.8-1.1
		c-0.9,0.3-2.1,1.8-2,2.5c0.9,4.8-1.3,6.1-5.7,5.8c-1.5-0.1-3.1,0.4-4.8,0.6c-0.7-3.8-1.3-7.2-2-10.6c-0.3,0-0.7,0.1-1,0.1
		c0.2,2.5,0.1,5.1,0.6,7.5c0.6,3.3,0.3,5.7-4.5,5.4c-1.8-2.9-3.9-6.1-6.3-10c0,0-2,0.3-2,0.6c0,2.1,0,4.4,0.8,6.2
		c0.7,1.7,2.6,2.9,4.3,4.7c-2.8,2.4-5.4,4.6-7.7,6.6c-3.9-3-7.4-5.7-11-8.4l0.2-0.1c-1.1-1.1-2-3-3.3-3.2c-1.6-0.2-3.4,1.1-4.1-1.8
		c2.4-2.9,5-5.9,7.5-9c-0.2-0.3-0.5-0.5-0.7-0.8c-2.5,2.1-5,4.3-7.6,6.5c-1.1-1.2-2.3-2.5-3.6-4c1.8-2,3.5-3.7,4.9-5.7
		c0.5-0.7,0.3-1.8,0.4-2.8c-0.8,0.2-1.8,0.1-2.4,0.6c-1.1,0.8-2.2,1.7-2.9,2.8c-1.9,3.3-4.8,1.2-7.2,1.2c-0.5,0-1-2.4-1.7-4.2
		c-1.2,1.7-2.2,3.1-2.8,3.8c5.2,9.5,10.3,18.5,15.1,27.6c2.3,4.4,0,7.8-5,7.8c-2.5,0-5,0-7.8,0c1.1,1.5,2.7,2.6,2.8,3.8
		c0.2,2.7,0.6,5.6-3.4,6.9c-4.4,1.4-8.4,4.1-12.7,6c-2.8,1.2-4.1,2.9-3,5.7c-2.3,1.6-5.6,2.7-6.3,4.7c-0.7,2,1.2,5,2.1,8
		c-1.4-0.9-2.5-2.1-3.6-2.2c-1.2-0.1-2.4,0.9-3.6,1.4c-2-4.4-1-7.5,2.9-10.2c1.8-1.3,3.5-3.1,4.6-5c2.1-3.4,0.2-6.7-3.9-7.2
		c-3.2-0.4-5.8,0.6-7.8,2.9c0.5-2.6,0.4-4.8,3.8-4.5c6.6,0.5,7-0.2,4.2-6.2c-0.2-0.5-0.7-1-1.5-2c1.8,0.4,3,0.7,4.7,1.1
		c1.2-3.3,2.4-6.7,3.7-10.1c0.2,0.1,0.5,0.2,0.7,0.2c0-0.2,0.1-0.6,0-0.7c-5.2-6-3.8-11.9-0.8-18.6c4.2-9.6,7.1-19.7,10.6-29.6
		c1.6-4.6,3.5-9.1,4.4-13.6c-0.2-1.9-0.9-3.9-0.5-5.6c0.2-0.9,2.3-1.4,3.7-2.1c3.3-5.4,6.8-11.3,10.3-17.2c1-1.6,1.3-4.2,2.6-4.9
		c3.1-1.7,4.4-4.5,5.9-7.4c2.1-4.2,4.5-8.3,6.3-12.6c0.8-1.9,0.4-4.3,0.6-6.5c0.4-3.3-0.3-6.9,2.2-9.8c0.3-0.4,0.4-1.2,0.7-1.2
		c6.3-0.2,5.8-5.8,7.5-9.6c0.7-1.6,1-3.4,1.2-5.1c0.3-2.7,3.7-6,6.4-6.6c2.2-0.4,5.1-0.8,6.1-2.3c2.1-3,5.3-1.6,7.5-3
		c4.4-3,8.7-6.4,12.6-10.1c4.9-4.9,10.5-8,17.4-8.4c1-0.1,2,1.5,3.4,2.6c4.5-2.1,5.6-1.9,9.9,2.5c0.6,0.6,1.2,1.4,1.9,1.7
		c2.2,1.1,2.2,2.6,2,5c-0.3,3,0.8,6.2,1.2,9.4c0.2,1.3,0.2,2.6,0.3,4h3.6c-5.4,5-10,9.6-15.1,13.8c-3.4,2.8-8,2.4-11.3-0.5
		c-2.1-1.8-3-0.4-4.4,1.6c1.2-0.5,1.9-0.7,2.9-1.1c0.3,1.7,0.6,3.3,1,5.1c2.7-0.5,5.3-2.5,7.7,0.2c0.6,0.6,2.1,1.1,2,1.5
		c-0.6,3.4-1.4,6.8-2.2,10.4c0,0,0.8,0.1,2.8,0.4c-2.5,2.3-4.4,3.9-6.2,5.6c0.2,0.3,0.3,0.5,0.5,0.8c2.2-1.6,5.1-2.8,6.5-4.9
		c1.3-2.1,1.1-5.2,1.7-8.5c5.8,3.3,5.8,8.7,6.8,13.4c2.8-5,2.1-9-1.9-12.8c-2-1.8-3.6-4.1-5.8-6.6c4.3-2.6,8.3-4.5,11.6-7.2
		c2.6-2.2,4.2-5.6,6.6-8.1c3.5-3.8,3.3-7.2-0.1-10.9c-1-1.1-1.3-2.8-2.4-5.5c2.6,0.7,4.3,0.7,5.5,1.5c2.4,1.6,4.4,1.9,7.4,0.9
		c2.9-1,6.3-0.2,9.5-0.2c1.5-2.3,1.2-6.1,5.4-5.5c0.1,0,0.2-0.1,0.3-0.2c7.8-11.6,21.3-15.7,31.6-24.1c5.9-4.8,13.6-4.1,20.8-4.3
		c1.4,0,2.9,1,4.6,1.6c-1.8,1.7-3.2,3-4.6,4.3c2.5-0.4,5.3-4,6.8,1.6c1.3-1.9,2.3-3.5,3.5-5.2c2.3,1.2,4.4,2.4,6.7,3.7
		c-0.6,1.6-1.2,3-1.7,4.5c0.2,0.2,0.4,0.3,0.6,0.5c0.6-0.8,0.9-1.8,1.7-2.2c1.1-0.6,2.9-1.6,3.6-1.1c4.5,2.7,8.9,5.7,13.1,8.8
		c1,0.7,1.6,2.1,2.4,3.1c-3,2.9-5.4,2.5-7.2-1.1c0.2,2.5,0.4,4.6,0.6,6.8c2.4-0.7,4.5-1.5,6.6-1.8c0.8-0.1,2.4,0.5,2.6,1.1
		c0.5,1.6,0.8,3.6,0.4,5.2c-0.3,1.3-1.8,2.2-2.8,3.4c0.2,0.1,0.5,0.3,0.6,0.3c1.4-0.7,3.8-2.2,4.1-1.9c2.1,2.3,4.5,4.8,5.3,7.7
		c0.4,1.5-2.1,3.9-3.4,5.8c-0.6,0.9-1.2,1.8-1.9,2.8c2.8,1.8,5,3.3,8.3,1.1c2.4-1.6,7.5,0.7,9.7,3.3c1.9,2.3,4,4.4,5.8,6.4
		c6.3-3.5,10.2,3.5,15.8,1.3c-0.1,4.3-2.7,6.2-5.1,7.7c-3.4,2.2-5.5,4.8-5.6,9c0,1.3-1.2,2.7-1.9,4.1c4,0.1,4.9-2.3,4.9-5.5
		c0.1-2.6,0.2-5,4-4.1c0.7,0.2,2.2-1.6,2.8-2.8c1.7-3.3,3-6.7,4.6-10c0.5-1,1.2-2.2,2.1-2.5c4.1-1.4,8.3-2.5,12.4-3.7
		c0.9,4.4,0.9,8.7,2.6,12.1c1.7,3.6,5,6.5,7.8,10c-2.6,4.6-5.3,9.4-8,14.2c0.1,0.1,0.2,0.1,0.4,0.2c1.9-2.4,3.7-4.8,5.6-7.1
		c0.6-0.7,1.4-1.4,2.2-1.9c6.9-4.7,10.3-7.2,15.1,2c3.2,6.1,9.3,8.4,15,11.2c4.2,2.1,8.7,1.8,13.2,1.2c1.2-0.2,2.6,0.5,4.4,0.8v-2.9
		c2.4-1.4,4.8-2.7,7.5-4.2c-1.2-2.7,0.8-4,3.5-4.7c1.6-0.5,3.5-1,5.1-0.7c3.9,0.7,7.8,0.4,11.8,1.5c6.8,2,9.4,6.7,11.3,12.7
		c0.8,2.4,2.5,4.6,3.8,6.8c0.3-0.2,0.6-0.4,0.8-0.6c-0.8,1.1-1.6,2.2-2.5,3.6c2.5,1.2,4.4,3.4,6.8,0.5c0.3-0.3,1.8,0.1,2.5,0.6
		c1.4,0.8,2.5,2.1,4,2.7c2,0.8,4.5,0.6,6.3,1.5c5.2,2.7,10.2,5.7,15.1,8.9c-8.6-1.3-8.9-1.2-9.5,4c1.1,0.4,2.3,0.8,3.4,1.3
		c1,0.4,2,1,3,1.5c-0.4,2.7-1.7,2.5-3.7,1.6c-1.3-0.6-2.8-0.8-4.2-1.1c-0.1,0.3-0.2,0.6-0.4,1c0.7,0.6,1.5,1.2,2.7,2.2
		c-1.7-0.1-2.7-0.2-3.6-0.3c-1.6,3.4-3.2,6.5-4.7,9.6c1.8,1.3,3.9,2.7,5.9,4.1c-0.1,0.2-0.3,0.5-0.4,0.7c-2-0.9-4-1.7-6.3-2.8
		c-1.5,3.7-3.1,7.3-4.7,11.3H454c0.3,3.1,0.5,6.1,0.8,9.6c-1.2,0.1-2.5,0.3-3.9,0.4c-0.2-1.6-0.4-2.9-0.6-4.4h-6.4
		c1.3,3.2-1.3,6.9,1.8,9c-0.9,0-1.5-1.6-1.8-4.8c-5.5,0.3-11.2-0.9-16.1,3.2c-3,2.6-6.3,3.4-10.2,1.4c-4.1-2.2-8.6-2.9-13.1-0.6
		c-1.1-3.9-4.2-5.4-9.4-4.3c-0.2-1.3-0.3-2.7-0.6-4.8c-0.3,1.8-0.5,2.9-0.6,3.7c-4.4,0.7-8.6,1.2-12.7,2.1c-2.1,0.5-3.9,2.1-5.9,2.6
		c-5.3,1.5-10.7,2.6-16,4c-2.1,0.5-4.2,1.3-6.2,2.1c-1.4,0.5-2.7,2.2-3.9-0.3c-0.1-0.2-1.2-0.2-1.3-0.1c-2.7,4.7-7.9,3.1-11.8,4.5
		c-9.6,3.5-19.4,6.3-28.9,10c-4.5,1.8-8.3,5-12.4,7.6c-2.6,1.6-5.1,3.3-7.8,5.1c-5.6-4.4-8.7-10.1-9.5-17.5
		c4.8-0.2,9.2-0.5,13.6-0.7c0-0.3-0.1-0.6-0.1-0.8c-1.4,0-2.9,0.3-4.3-0.1c-1-0.3-2.1-1.2-2.8-2.1c-0.9-1.3-1.4-2.9-2.4-4.8
		c3.5-2.4-0.5-5.8-0.7-9.2c-0.9,3.3,2.9,8.3-3.6,9.8c2.5,2.5,2.3,4.3-0.4,6.1c-0.8,0.5-1.1,2.1-1.2,3.3c-0.1,0.9,0.3,1.9,0.5,2.9
		c0.7,5.6,0.2,6-5.3,5.4c-2.3-0.2-4.7,0.8-7.1,1c-0.9,0.1-1.9-0.2-2.8-0.3c0.1,1.5,1.2,2,3.4,1.5c0.5,2.2,0.9,4.4,1.4,6.6
		c0.5,0,0.9,0,1.4,0.1c1.2-2,2.4-4.1,3.9-6.5c4,0.8,8.2,2,11.2,5.6c1.9,2.3,2.1,4.3-0.7,6.2c-2.5,1.6-4.8,3.5-7.2,5.3
		c-2.8,2.1-5.1,0.7-7.3-1c-1.5-1.1-2.8-2.4-4.8-4.1v14.9c-2.2-2.1-4.2-4-6.1-5.9c-0.3,0.3-0.6,0.5-1,0.8c0.7,1.3,1.3,2.5,2,3.8
		c-0.2,0.2-0.3,0.4-0.5,0.6c-1.4-1.1-2.9-2.2-4.2-3.5c-3.9-3.4-8.7-4.2-13-1.2c-4.1,2.8-8.3,3.9-13,2.5c-1.3-0.4-2.5-1-3.5-1.7
		c-1.5-1.1-2.7-2.4-4.5-0.3c-0.4,0.5-2,0.1-3.5,0.1c-0.3,0.6-1.1,1.7-1.9,3.1c-2.7-2.4-5.1-4.7-7.6-6.8c-1.4-1.2-2.7-3.2-5.2-1.7
		c-0.4,0.2-1.5-0.6-2.2-1c-4.7-2.7-9.3-5.5-14.1-8.3c-2.4,4-4.8,7.9-7.2,11.9c-1-0.5-1.9-0.9-2.7-1.4c-6.3-3.8-12.7-7.6-19-11.4
		c2.2-5.5,5-7.5,10.5-3.5c2.7,1.9,5.7,3.5,8.5,5.2c0.2,0.1,0.4,0.2,1,0.4c1-1.7,2-3.4,3.2-5.4c-4.1-2.5-7.9-4.9-11.9-7.4
		c0.7-1.4,1.3-2.6,2.1-4.1c-0.9-1-1.8-2.2-2.9-3c-3-2.2-4.5-5.3-5.8-8.7c-0.6-1.6-2.4-3.5-4-4c-2.7-0.8-4.1-1.8-3.6-4.7
		c-0.5,2.1-1.1,4.1-1.7,6.5c-0.1-0.1,0.1,0.2,0.2,0.2c5.8-1.4,7.1-0.7,9.1,5.2c0.6,1.7,1,3.5,1.5,5.3c-6.5,2.6-12.1,1.3-13.6-3
		c-4.8,2.8-14.5,0-15-4.6h4.3c-1.2-0.9-1.6-1.3-2.1-1.4c-4.4-1.5-5.1-4-2.6-8.1c1.7-2.7,3.5-5.4,4.5-8.4c2.1-6.6,1.4-7.5-5.7-7.5
		c1.4,0.3,2.9,0.7,4.7,1.1c2.2,2.5,0.1,4.8-1.2,7.2c-3,5.4-5.8,10.9-9.1,17.1h4.5c0.4,1.3,0.7,2.5,1.3,4.2c-4.4-0.5-6.8-3.4-9.8-5.4
		c-2.1-1.4-4.7-2.2-7.1-3.2c0,0-0.1,0.2-0.1,0.3C113.8,266.4,113.9,266.5,114,266.6L114,266.6L114,266.6z M316.6,184.6
		c1.4,3,3,5.2-0.2,7c-0.3,0.2-0.1,2.3,0.5,2.7c0.7,0.6,2.1,0.4,3.1,0.5c0-0.3,0.1-0.7,0.1-1c-1-0.2-2-0.3-2.9-0.5
		c0.7-1.3,1.9-2.4,1.9-3.5c-0.1-3.3,1.5-4,4.4-3.7c1.1,0.1,2.2,0,3.3,0c0-0.3,0-0.6,0-0.9C323.6,185.1,320.5,184.9,316.6,184.6
		L316.6,184.6z M134,232.4c-1.4-2.9-5.9-4-9-2.2C126.7,232.6,130.8,233.7,134,232.4z"/>
	<path d="M500.1,166c2.7-0.7,5.4-1.5,8.7-2.4c-1.1,4.6-2.1,9-3.1,13.3c-0.1,0.2-0.4,0.4-0.3,0.6c0.5,6.6-4.5,7.8-9.1,9.6
		c-6.3,2.5-12.5,5.3-18.7,8c-3.3,1.4-4.3,0.7-4.7-2.8c-0.2-1.8-1.2-3.7-2.2-5.2c-2.4-3.6-5.1-6.9-8.1-11c2.5,0.5,4.3,0.9,6,1.3
		c0-0.2,0.1-0.4,0.1-0.6c-0.8-0.3-1.6-0.6-2.4-0.8c-3-0.6-5.7-1.1-6.7-4.9c-0.5-1.7-3.1-3-4.9-4.1c-4.7-2.7-5-3.9-2.6-8.7
		c0.7-1.4,0.4-3.4,0.2-5c-0.4-2.3-1.4-4.5-1.8-6.8c-0.4-2,0.3-2.8,2.7-2.3c6.5,1.5,10.8-0.8,12.6-6.5c2,0.6,4.2,1,6,1.9
		c3,1.5,4.9,0.9,7.4-1.6c1-1,4.7-0.3,6.7,0.6c6.2,2.9,13.2,4.4,17.7,10.2c2.4,3.1,5,6.1,7,9.4c0.4,0.7-0.8,3.4-1.9,3.9
		c-2.6,1.4-5.6,2.2-8.5,3.2C500,165.6,500.1,165.8,500.1,166z"/>
	<path d="M114,266.6c0.9,0.8,1.7,1.8,2.7,2.5c2.4,1.8,4.9,3.6,7.3,5.4c-0.2,0.4-0.4,0.9-0.6,1.3c-3,0.2-6,0.3-9.2,0.5
		c0,1.4,0,2.8,0,4.1c0,3.3,2.5,5.4,5.6,4.9c6.1-1.1,7.3,0.2,9.9,5.7c1.4,3,4.9,5,7.6,7.2c2.2,1.8,4.7,3.2,7.2,4.8
		c-3,3.9-6.5,5.1-10.3,4c-3.4-1-5.7-0.8-6.9,0.7c1,1.4,2.8,2.9,2.6,3.8c-0.8,3-5.5,5.9-7.2,4.8c-2.9-1.7-5.7-3.5-8.4-5.4
		c-0.8-0.6-1.2-1.8-1.6-2.5c-1.1,0.1-2.4-0.1-3.4,0.3c-1,0.5-1.8,1.6-3.1,2.8c3.9,2.4,7.2,4.3,11.7,7c-7.2,3.2-13.3,6-20,9
		c-1.7-5.6-3.1-10.5-4.6-15.3c-2.2-0.7-4.8-1.6-8.2-2.6c-1,1-2.8,2.6-4.9,4.7c1.9,1.4,3.3,2.5,4.7,3.5c-3.5,6.3-6.6,12.1-9.9,18.1
		c-4.1,0.7-9.7-2.4-11.6-6.4c-1.3-2.7-3.1-5.3-4.6-7.9c-0.3-0.5-0.3-1.1-0.5-1.7c-0.4-1.1-0.6-2.5-1.4-3.1c-2.7-2.2-2.8-4.4-2-7.7
		c0.9-3.6,3.5-5,6.1-6.8c6.7-4.6,13.6-9,20.2-13.7c4.7-3.3,9.8-3.4,15.8-2.8c-4.1,5.2-7.9,10.1-11.9,15.2c1.1,1,2.4,2.2,4.1,3.7
		c1.4-1.7,2.7-3.2,4.1-4.9c0.8,0.8,1.4,1.5,2.1,2.2c2-3.6,3.9-7.2,5.9-10.9c0.5,0.1,0.9,0.2,1.4,0.2c1.1,1.9,2.1,3.8,3.2,5.6
		c1.1,1.7,2.3,3.3,3.7,5.3c1.5-1.4,2.5-2.3,4.1-3.7c-4.8-0.9-4.5-4-4.8-7.3c-0.2-1.9-2-3.6-3.1-5.4c1.8-3.1,4.5-3,8.5-1.3
		C114,278.3,114,272.5,114,266.6L114,266.6L114,266.6z"/>
	<path d="M341.3,145.3c1.5-1,3.1-1.8,4.5-2.9c2-1.6,4-1.7,6.4-0.8c3.3,1.2,6.7,2.2,10,3.3c0.7,0.2,1.3,0.8,1.7,1.4
		c3.5,5.1,8.5,5.5,13.9,4.9c4.9-0.5,9.5-2.8,14.9-0.7c3.7,1.4,8.3,0.4,12.5,0.4c4.3,0.1,5.8,2.4,4.5,6.3c-0.4,1.1,0.2,2.5,0.4,3.8
		c-3.8,0.7-7.8,2.5-12.4,0.9c-1.4-0.5-5.1,1-5.3,2.1c-1.1,5.1-5.6,3-8.3,4.4c-0.5,0.3-1.2,0.3-1.8,0.4c-2.3,0.4-5.2,1.9-6.6,1
		c-2.5-1.6-4.1-4.6-5.8-7.2c-0.3-0.5,0.1-1.6-0.4-2.6c-0.3,1.2-0.6,2.3-0.9,3.6c-0.4,0-1,0.1-1.1-0.1c-3.6-6.3-10.7-6.9-16.3-10
		C347.5,151.5,342.4,150.6,341.3,145.3L341.3,145.3z"/>
	<path d="M164.5,362.6c1,2.4,2.1,4.8,3.2,7.4c0.1,0,0.7-0.4,1-0.2c4.9,3.4,9.5,0.5,14.2-0.6c3.1-0.8,4.6,0.5,4.7,3.8
		c0.2,4.3,0.5,8.5-5,10.1c-0.6,0.2-1.3,1.3-1.3,2c0.1,3.2-2,4.6-4.2,6c-2.4,1.5-4.6,1.5-6.7-0.7c-1-1.1-2.1-2.1-3.2-3.1
		c-2.1-1.8-2.3-3.5-0.3-5.6c1-1,1.4-2.5,1.5-4.3c-1.3,0.7-2.5,1.3-5,2.6c0-3.8-0.1-6.8,0-9.8c0.1-2.5,0.4-5,0.6-7.4
		C164.1,362.7,164.3,362.6,164.5,362.6L164.5,362.6z"/>
	<path d="M214.6,317.5c3.5,0.6,5.9,1.6,8.2,1.3c4.5-0.6,7.9,1.3,11.4,3.5c0.9,0.6,2.1,0.9,3.2,1c3.9,0.4,7.9,0.5,11.8,0.9
		c1.1,0.1,2.1,1,3.2,1.6c1.9-0.2,4.1-0.4,6.4-0.6c0.1,0.4,0.3,0.8,0.4,1.2c-2.1,3-4.1,6-6.8,9.8c-0.3-2.6-0.4-4.2-0.6-5.7l-1.1-0.1
		c-0.2,1.7-0.8,3.6-0.4,5.2c0.7,2.3-0.7,2.9-2.1,3.6c-4.3,2-5.9,1.5-9.2-2.2c-0.6-0.7-1.6-1-2.4-1.6c-1.1-0.8-2.3-1.6-3.2-2.5
		c-1.4-1.4-3-4.5-3.8-4.3c-3.2,0.8-3.7-1.9-5.4-3c-2.2-1.4-4.5-2.7-6.6-4.2C216.6,320.6,216,319.4,214.6,317.5L214.6,317.5z"/>
	<path d="M137.8,376.8c-10.1,1.3-19.3,1.7-28.6-1c3.9-5.3,8.8-8.4,15.1-9.1c0.6-0.1,1.7,0.2,2,0.6c1.6,3,3.8,2.9,7.1,0.8
		c-1,1.7-1.4,2.5-2,3.5C133.4,373.2,135.4,374.8,137.8,376.8L137.8,376.8z"/>
	<path d="M296.2,150.7c-1.6-0.1-3.7,0.4-4.8-0.4c-3.8-2.7-7.2-6-10.9-9c6.6-6.6,15.8-5.2,20.2,2.6
		C299.2,146.1,297.7,148.4,296.2,150.7L296.2,150.7z"/>
	<path d="M87.7,323.4c0.2,2.3,0.1,4.7,0.8,6.8c1.7,5.4-1,7.8-5.5,9.8c-1.1,0.5-1.2,3.3-1.8,5.4c1.4,0.3,2.2,0.5,3.5,0.8
		c-4.1,3.9-7.8,7.6-11.6,11.2c3.9-5.4,9.3-9.8,4.5-16.2c1.5-1.9,2.8-3,3.3-4.4c1.7-4.5,3.1-9.1,4.7-13.7
		C86.2,323.3,86.9,323.4,87.7,323.4L87.7,323.4z"/>
	<path d="M185,354.7c-3.1-0.3-5.6,0.2-7.2-3.3c-0.7-1.7-3.9-2.8-6.1-3.2c-4.8-0.8-6.2-1.8-6.8-6.5c-0.3-2.9,1.7-4.7,4-3.1
		C174.9,343,181.8,346.7,185,354.7L185,354.7z"/>
	<path d="M296.2,150.7c1.5-2.3,3-4.6,4.5-6.8c3.3,1.7,6.7,3.1,9.7,5.2c1.6,1.1,0.6,4.5-1.2,5.2C306.9,155.2,298.3,152.9,296.2,150.7
		z"/>
	<path d="M252.5,319.7c-2.4,1-4.6,2.4-6.8,2.5c-2,0.1-4.1-1.1-6.2-1.7c-2.1-0.7-4.1-1.4-6.8-2.3C241.2,312,245.9,311.6,252.5,319.7z
		"/>
	<path d="M441.5,146.3c2.7,2.6,5.5,5.2,8.2,7.8c-2.6,1.9-4.3,3.9-6.2,4.2c-2.2,0.3-5.1-0.2-6.7-1.6c-2.5-2.2,1-4.1,1.6-6.2
		C438.9,149,440.3,147.8,441.5,146.3L441.5,146.3z"/>
	<path d="M12.6,357c-2.5,1.1-4.2,1.8-5.9,2.5c1.5,0.9,3,2,4.6,2.6c1.9,0.8,4,1.2,5.8,2.5c-4.5-1.2-9-2.2-13.3-3.8
		c-1.3-0.5-1.9-2.6-2.3-4.4c0.8,1.3,1.7,2.7,2.6,4.2c0.8-0.9,1.2-1.1,1.1-1.3c-0.9-5.7,2-8.3,7.1-9.4c1.1-0.2,2-1.5,2.9-2.2
		c1.3,2.4,1.1,2.2-1,5C13.4,354.2,13,356.1,12.6,357L12.6,357z"/>
	<path d="M145.1,407.6c-0.6,2.6-0.9,4.8-1.7,6.9c-0.3,0.8-1.8,1.6-2.6,1.5c-2.8-0.3-5.1-1.5-6.2-4.5c-0.4-1.2-1.5-2.1-2.4-3.4
		c1.5-1.7,3.2-2.5,6-1.4C140.4,407.6,143,407.4,145.1,407.6L145.1,407.6z"/>
	<path d="M120.5,395.5c3.5-0.8,5.6-2.5,6.1-5.2c2.4,0.3,4.8,0.5,7.2,1c0.5,0.1,0.8,1.1,1.2,1.7c-1.1,0.5-2.1,1.1-3.5,1.7
		c-0.1,0.7-0.3,1.7-0.4,2.3c-3.1,1.2-6.1,2.3-9.2,3.5C121.5,399.1,121,397.3,120.5,395.5z"/>
	<path d="M150.9,341c1.5,0.5,2.9,0.7,3.9,1.5c0.5,0.4,0.6,2.4,0.2,2.7c-2,1.1-4.1,2.4-6.3,2.7c-1.4,0.1-3-1.5-4.5-2.4
		c0.8-0.9,1.5-2,2.4-2.6C147.9,342,149.5,341.5,150.9,341L150.9,341z"/>
	<path d="M177,352.9c-2.1,0.6-3.7,1.2-5.3,1.3c-1.2,0.1-2.5-0.1-3.6-0.5c-1.5-0.5-4.3,0.5-3.9-2.6c0.4-2.5,2.2-2.4,4.5-2.1
		C171.4,349.5,174.3,349,177,352.9L177,352.9z"/>
	<path d="M7.5,341c-0.7-2.3,1.7-2.1,3.3-2.4c2.3-0.5,4.5-0.9,4.9-4.1c0.9,2,2.5,4,2.4,6c-0.1,1.2-2.9,2.1-3.6,2.6
		C12.1,342.4,10.1,341.8,7.5,341L7.5,341z"/>
	<path d="M340,163.9c-3.2-3.6-6.5-7.3-10.4-11.6c5.2,1.8,15.7,11.8,16.1,14.9C343.9,166.2,342.1,165.1,340,163.9L340,163.9z"/>
	<path d="M200.3,369.4c3.3,3.5,6.5,6.9,9.8,10.5C203.1,379.8,198.2,374.6,200.3,369.4z"/>
	<path d="M261.9,359v6.4c-2.6-2.5-5.3-5-8.3-7.9C257.3,354.9,259.2,359.8,261.9,359z"/>
	<path d="M101.1,275.9h-4.4c-0.3-2.4-0.5-4.6-0.8-7.1C100.7,270,102.3,272.4,101.1,275.9L101.1,275.9z"/>
	<path d="M263.2,352.7c2.4,2,4.8,4,7.2,6c-0.8,1.3-1.4,2.2-2.4,3.8c-2.1-2.9-4.2-5.6-6.2-8.4C262.3,353.6,262.8,353.1,263.2,352.7z"
		/>
	<path d="M270.3,117.9c2.6,3.9,5.2,7.7,7.8,11.6c-0.4,0.3-0.9,0.6-1.3,0.9c-4.8-2.3-5.1-7.7-7.2-11.8
		C269.9,118.3,270.1,118.1,270.3,117.9L270.3,117.9z"/>
	<path d="M162,350.3c-2.7-3.4-2.5-6,0.6-7.8C163.9,345.2,165.1,347.7,162,350.3z"/>
	<path d="M362.4,161.8c3,2.6,5.9,5.2,8.9,7.8c-0.3,0.4-0.6,0.7-1,1.1c-3-2.6-6-5.2-8.9-7.8C361.7,162.5,362.1,162.1,362.4,161.8
		L362.4,161.8z"/>
	<path class="st0" d="M316.6,184.6c3.9,0.2,7.1,0.4,10.2,0.6c0,0.3,0,0.6,0,0.9c-1.1,0-2.2,0.1-3.3,0c-2.8-0.3-4.5,0.4-4.4,3.7
		c0,1.1-1.1,2.2-1.9,3.5c0.9,0.2,1.9,0.3,2.9,0.5c0,0.3-0.1,0.7-0.1,1c-1.1-0.1-2.4,0.1-3.1-0.5c-0.6-0.4-0.8-2.6-0.5-2.7
		C319.6,189.9,318,187.6,316.6,184.6L316.6,184.6z"/>
	<path class="st0" d="M134,232.4c-3.2,1.3-7.3,0.2-9-2.2C128.1,228.5,132.6,229.5,134,232.4z"/>
</g>
</svg>
