<svg height="30" viewBox="0 0 38 30" width="38" xmlns="http://www.w3.org/2000/svg"><g transform="translate(-494 -440)"><g id="Spain_1_" xmlns="http://www.w3.org/2000/svg" xmlns:xlink="http://www.w3.org/1999/xlink"><path d="m522 458h1v1h-1z"/><path d="m529 455h1v1h-1z"/><path d="m528 457h-3v-1l1-1h2z"/><g id="Spain"><path d="m523 447v-1l-2-1v1h-1l-4-1v-1l-6-1-1 1-4-1h-4v-1h-2l-1 2h-2l1 5h1l1-1v1h4v1h1l-2 2v4h-2l2 2-1 1 1 2-1 2v1h1l1 1 1 2 1 1 3-3h6l2-2h1l1-3 2-1-2-2 3-5 4-1 2-2v-2z"/></g></g></g></svg>
