<?xml version="1.0" encoding="utf-8"?>
<!-- Generator: Adobe Illustrator 27.8.0, SVG Export Plug-In . SVG Version: 6.00 Build 0)  -->
<svg version="1.1" id="Layer_1" xmlns="http://www.w3.org/2000/svg" xmlns:xlink="http://www.w3.org/1999/xlink" x="0px" y="0px"
	 viewBox="0 0 512 512" style="enable-background:new 0 0 512 512;" xml:space="preserve">
<g transform="translate(-494 -440)">
	<g id="Spain_1_">
		<path d="M885,741h15v15h-15V741z"/>
		<path d="M990,696h15v15h-15V696z"/>
		<path d="M975,726h-45v-15l15-15h30V726z"/>
		<g id="Spain">
			<path d="M900,576v-15l-30-15v15h-15l-60-15v-15l-90-15l-15,15l-60-15h-60v-15h-30l-15,30h-30l15,75h15l15-15v15h60v15h15l-30,30
				v60h-30l30,30l-15,15l15,30l-15,30v15h15l15,15l15,30l15,15l45-45h90l30-30h15l15-45l30-15l-30-30l45-75l60-15l30-30v-30H900z"/>
		</g>
	</g>
</g>
</svg>
