<svg id="Capa_1" enable-background="new 0 0 512 512" viewBox="0 0 512 512" xmlns="http://www.w3.org/2000/svg"><g><circle cx="256" cy="256" r="256"/><g fill="#0D030C"><path clip-rule="evenodd" d="m256 64.5c-108.425 0-196.348 87.904-196.348 196.348 0 86.751 56.259 160.35 134.275 186.314 9.812 1.816 13.415-4.261 13.415-9.447 0-4.68-.181-20.15-.267-36.556-54.624 11.879-66.15-23.167-66.15-23.167-8.932-22.694-21.801-28.73-21.801-28.73-17.816-12.186 1.343-11.936 1.343-11.936 19.715 1.384 30.098 20.236 30.098 20.236 17.511 30.015 45.933 21.338 57.139 16.321 1.762-12.688 6.849-21.354 12.466-26.256-43.612-4.963-89.46-21.801-89.46-97.036 0-21.436 7.672-38.952 20.233-52.702-2.039-4.947-8.76-24.916 1.902-51.963 0 0 16.489-5.274 54.008 20.129 15.664-4.351 32.461-6.533 49.146-6.609 16.686.076 33.496 2.258 49.188 6.609 37.477-25.404 53.941-20.129 53.941-20.129 10.688 27.047 3.966 47.016 1.927 51.963 12.59 13.75 20.207 31.267 20.207 52.702 0 75.416-45.933 92.019-89.656 96.88 7.043 6.094 13.317 18.042 13.317 36.36 0 26.272-.225 47.416-.225 53.884 0 5.226 3.534 11.349 13.485 9.421 77.975-25.993 134.164-99.566 134.164-186.289.001-108.443-87.909-196.347-196.347-196.347z" fill-rule="evenodd"/><path d="m134.02 346.411c-.432.978-1.969 1.27-3.366.6-1.426-.641-2.223-1.972-1.762-2.95.422-1.003 1.959-1.283 3.382-.613 1.425.642 2.238 1.986 1.746 2.963z"/><path d="m141.974 355.283c-.937.867-2.769.464-4.01-.908-1.286-1.368-1.524-3.201-.575-4.08.965-.867 2.74-.46 4.026.908 1.286 1.384 1.537 3.201.559 4.08z"/><path d="m149.715 366.59c-1.204.838-3.172.054-4.388-1.692-1.204-1.746-1.204-3.842.028-4.68 1.216-.838 3.156-.082 4.389 1.648 1.2 1.774 1.2 3.87-.029 4.724z"/><path d="m160.32 377.516c-1.077 1.187-3.369.867-5.046-.753-1.718-1.581-2.194-3.829-1.117-5.017 1.092-1.188 3.397-.854 5.087.752 1.705 1.582 2.223 3.843 1.076 5.018z"/><path d="m174.952 383.86c-.476 1.537-2.683 2.235-4.906 1.582-2.223-.673-3.674-2.474-3.226-4.026.46-1.55 2.68-2.277 4.918-1.578 2.22.669 3.674 2.457 3.214 4.022z"/><path d="m191.022 385.035c.054 1.619-1.832 2.962-4.166 2.991-2.347.054-4.248-1.257-4.274-2.852 0-1.635 1.845-2.962 4.191-3.004 2.334-.044 4.249 1.258 4.249 2.865z"/><path d="m205.974 382.492c.279 1.578-1.343 3.201-3.661 3.633-2.28.419-4.388-.559-4.68-2.124-.283-1.619 1.368-3.242 3.645-3.661 2.321-.404 4.401.545 4.696 2.152z"/></g></g><g/><g/><g/><g/><g/><g/><g/><g/><g/><g/><g/><g/><g/><g/><g/></svg>
